<svg width="289" height="553" viewBox="0 0 289 553" fill="none" xmlns="http://www.w3.org/2000/svg">
<g clip-path="url(#clip0_2167_34348)">
<g clip-path="url(#clip1_2167_34348)">
<path d="M327.086 336.27C318.342 306.257 301.304 269.335 284.956 242.263C296.978 236.979 305.55 229.339 309.969 224.694C311.866 222.738 311.468 219.517 309.146 218.079C291.232 207.005 278.905 197.955 265.184 183.953C265.144 183.953 265.131 183.913 265.131 183.886C257.939 176.566 251.583 167.688 245.877 158.025C234.571 138.886 225.429 116.805 217.878 97.2128C181.931 3.96413 97.9355 20.6946 78.1507 64.1911C77.7128 64.9764 77.328 65.7616 77.0095 66.6135C76.5318 68.0376 76.0276 69.4485 75.6693 70.9259C74.8732 73.6544 74.3026 76.4627 74.0504 79.3377C73.1747 81.414 72.3121 83.4903 71.861 85.6998C71.4629 87.6696 71.3435 89.6661 71.4098 91.6492C71.6221 95.8951 72.0335 100.128 72.8297 104.254C73.1083 105.478 73.44 106.689 73.6789 107.94C73.8514 108.806 74.0106 109.724 74.1168 110.629C74.2362 111.654 74.6874 112.479 75.6561 112.812C77.6863 113.544 78.854 115.407 79.3715 117.404C79.9288 119.4 80.3667 121.45 79.9023 123.5C78.5355 130.021 77.3545 136.53 76.0409 143.038C75.1916 147.258 81.1762 147.551 84.0291 146.898C85.0243 146.672 86.0593 147.204 86.4043 148.163C86.8953 149.534 87.0811 150.891 86.6697 152.369C86.1655 154.152 86.6034 155.403 88.1426 156.215C88.8725 156.601 89.589 156.921 90.3188 157.24C90.7169 157.466 90.8496 157.706 90.7302 158.145C90.571 158.851 90.4383 159.569 90.3454 160.288C90.279 161.14 90.571 161.898 91.0487 162.604C91.5529 163.336 92.15 163.709 93.0656 163.735C95.2286 163.749 97.4446 165.692 97.909 167.781C98.2673 169.498 98.7184 171.175 99.6738 172.719C106.282 183.341 115.823 175.9 123.015 170.31C126.08 167.928 128.694 165.985 132.569 165.372C134.015 165.119 135.568 165.013 136.921 165.599C141.924 167.781 141.579 180.346 139.841 184.206C136.231 192.112 129.57 198.088 123.599 204.224C117.349 210.639 110.568 216.575 103.562 222.192C87.3996 235.116 60.7942 248.466 58.4455 271.638C57.0124 285.414 62.2937 294.571 68.119 300.361C75.0059 307.215 76.6247 318.222 70.879 326.088C39.8152 368.667 3.961 383.374 0.643631 434.337C-3.20452 493.579 52.3814 516.286 64.6822 522.076C64.6822 522.076 64.7485 522.116 64.8547 522.155C65.0405 522.249 65.3589 522.422 65.7968 522.675C76.293 528.691 82.9675 539.698 83.631 551.796C86.7626 608.802 103.907 694.824 110.263 731.226H205.326C208.046 694.797 215.079 621.167 215.331 590.302C240.622 577.724 259.372 524.698 235.806 481.135C250.813 459.213 227.95 450.935 218.356 422.678C220.944 416.968 286.575 382.961 304.727 367.442C310.247 362.717 330.457 347.943 327.047 336.257L327.086 336.27ZM285.062 336.603C284.942 336.963 284.77 337.282 284.531 337.575C284.425 337.708 284.305 337.854 284.173 337.974C284.053 338.107 283.894 338.227 283.735 338.333C278.029 342.593 272.642 346.918 267.48 351.231C265.768 352.668 264.083 354.106 262.411 355.516C261.562 356.222 260.739 356.954 259.903 357.659C257.422 359.789 255.02 361.879 252.618 363.942C250.243 366.018 247.907 368.041 245.598 370.011C244.033 371.329 242.507 372.62 240.994 373.884C239.455 375.162 237.955 376.4 236.456 377.584C231.931 381.204 227.499 384.519 223.014 387.447C220.041 389.363 217.042 391.147 214.03 392.691C212.531 393.45 210.992 394.182 209.479 394.834C208.709 395.18 207.94 395.473 207.183 395.779C183.842 339.505 225.15 322.734 241.485 270.879C241.538 270.999 241.591 271.119 241.671 271.239C241.79 271.492 241.976 271.771 242.188 272.104C242.493 272.583 242.878 273.129 243.329 273.754C243.767 274.38 244.298 275.059 244.842 275.764C245.227 276.27 245.625 276.762 246.063 277.308C246.501 277.84 246.939 278.399 247.403 278.972C247.642 279.265 247.867 279.557 248.133 279.877C248.611 280.489 249.155 281.075 249.672 281.714C250.19 282.352 250.747 283.031 251.291 283.71C251.875 284.389 252.432 285.081 253.029 285.773C257.13 290.724 261.893 296.381 266.458 302.144C267.108 302.956 267.758 303.794 268.395 304.62C269.032 305.432 269.669 306.27 270.306 307.095C270.93 307.894 271.554 308.719 272.151 309.558C272.774 310.356 273.345 311.168 273.942 311.98C274.526 312.792 275.096 313.604 275.654 314.402C275.932 314.788 276.211 315.188 276.477 315.574C277.007 316.372 277.551 317.144 278.042 317.916C279.038 319.46 279.98 320.964 280.816 322.402C284.372 328.498 286.23 333.595 285.049 336.603H285.062Z" fill="#F7F3F1" fill-opacity="0.7"/>
</g>
</g>
<defs>
<clipPath id="clip0_2167_34348">
<rect width="327" height="552" fill="white" transform="translate(0.5 0.359375)"/>
</clipPath>
<clipPath id="clip1_2167_34348">
<rect width="327" height="595" fill="white" transform="translate(0.5 0.359375)"/>
</clipPath>
</defs>
</svg>
