<svg width="500" height="500" viewBox="0 0 500 500" fill="none" xmlns="http://www.w3.org/2000/svg">
<path d="M412.132 30.06C410.332 30.06 408.688 29.868 407.2 29.484C405.712 29.1 404.428 28.524 403.348 27.756C402.292 26.988 401.464 26.028 400.864 24.876C400.288 23.7 400 22.332 400 20.772C400 19.956 400.156 19.2 400.468 18.504C400.78 17.784 401.188 17.16 401.692 16.632C402.22 16.08 402.832 15.648 403.528 15.336C404.224 15.024 404.968 14.868 405.76 14.868C406.576 14.868 407.356 15.024 408.1 15.336C408.844 15.648 409.492 16.08 410.044 16.632C410.62 17.16 411.064 17.784 411.376 18.504C411.712 19.2 411.88 19.956 411.88 20.772C411.88 21.636 411.7 22.44 411.34 23.184C411.004 23.928 410.548 24.576 409.972 25.128C409.42 25.656 408.772 26.064 408.028 26.352C407.308 26.64 406.552 26.76 405.76 26.712C404.776 26.688 403.876 26.484 403.06 26.1C402.268 25.716 401.62 25.2 401.116 24.552C401.428 25.248 401.812 25.836 402.268 26.316C402.748 26.796 403.252 27.192 403.78 27.504C404.332 27.816 404.896 28.044 405.472 28.188C406.048 28.332 406.6 28.404 407.128 28.404C408.112 28.404 409.084 28.236 410.044 27.9C411.004 27.54 411.868 27.012 412.636 26.316C413.404 25.62 414.028 24.756 414.508 23.724C414.988 22.692 415.228 21.492 415.228 20.124C415.228 18.828 415.012 17.7 414.58 16.74C414.148 15.756 413.572 14.94 412.852 14.292C412.156 13.644 411.352 13.164 410.44 12.852C409.552 12.54 408.64 12.384 407.704 12.384C406.384 12.384 405.256 12.66 404.32 13.212C403.408 13.764 402.64 14.412 402.016 15.156L401.692 14.868V0H423.544V12.276H423.22C423.22 11.34 423.052 10.572 422.716 9.972C422.404 9.348 421.876 8.868 421.132 8.532C420.388 8.172 419.416 7.92 418.216 7.776C417.016 7.632 415.54 7.56 413.788 7.56H402.088V14.58C402.688 13.86 403.384 13.224 404.176 12.672C404.992 12.096 405.856 11.628 406.768 11.268C407.704 10.884 408.664 10.596 409.648 10.404C410.632 10.212 411.616 10.116 412.6 10.116C414.256 10.116 415.804 10.332 417.244 10.764C418.708 11.196 419.98 11.832 421.06 12.672C422.14 13.512 422.98 14.556 423.58 15.804C424.204 17.052 424.516 18.492 424.516 20.124C424.516 21.732 424.18 23.16 423.508 24.408C422.836 25.632 421.924 26.664 420.772 27.504C419.644 28.344 418.336 28.98 416.848 29.412C415.36 29.844 413.788 30.06 412.132 30.06Z" fill="black" fill-opacity="0.1"/>
<path d="M433.437 30.672C432.765 30.672 432.129 30.54 431.529 30.276C430.929 30.012 430.401 29.664 429.945 29.232C429.489 28.776 429.129 28.26 428.865 27.684C428.601 27.084 428.469 26.448 428.469 25.776C428.469 25.08 428.601 24.42 428.865 23.796C429.129 23.172 429.489 22.632 429.945 22.176C430.401 21.72 430.929 21.36 431.529 21.096C432.129 20.832 432.765 20.7 433.437 20.7C434.109 20.7 434.745 20.832 435.345 21.096C435.969 21.36 436.509 21.72 436.965 22.176C437.445 22.632 437.817 23.172 438.081 23.796C438.345 24.42 438.477 25.08 438.477 25.776C438.477 26.448 438.345 27.084 438.081 27.684C437.817 28.26 437.445 28.776 436.965 29.232C436.509 29.664 435.969 30.012 435.345 30.276C434.745 30.54 434.109 30.672 433.437 30.672Z" fill="black" fill-opacity="0.1"/>
<path d="M306.732 30.312C307.332 30.312 307.824 30.156 308.208 29.844C308.592 29.532 308.892 29.148 309.108 28.692C309.324 28.236 309.468 27.744 309.54 27.216C309.612 26.664 309.648 26.148 309.648 25.668V22.248H300.18L300 22.032L319.116 0H319.404V21.924H323.22V22.248H319.404V26.316C319.404 26.796 319.44 27.276 319.512 27.756C319.584 28.212 319.728 28.632 319.944 29.016C320.16 29.4 320.46 29.712 320.844 29.952C321.228 30.192 321.72 30.312 322.32 30.312V30.636H306.732V30.312ZM309.648 21.924V11.412L300.504 21.924H309.648Z" fill="black" fill-opacity="0.1"/>
<path d="M330.899 31.788C330.227 31.788 329.591 31.656 328.991 31.392C328.391 31.128 327.863 30.78 327.407 30.348C326.951 29.892 326.591 29.376 326.327 28.8C326.063 28.2 325.931 27.564 325.931 26.892C325.931 26.196 326.063 25.536 326.327 24.912C326.591 24.288 326.951 23.748 327.407 23.292C327.863 22.836 328.391 22.476 328.991 22.212C329.591 21.948 330.227 21.816 330.899 21.816C331.571 21.816 332.207 21.948 332.807 22.212C333.431 22.476 333.971 22.836 334.427 23.292C334.907 23.748 335.279 24.288 335.543 24.912C335.807 25.536 335.939 26.196 335.939 26.892C335.939 27.564 335.807 28.2 335.543 28.8C335.279 29.376 334.907 29.892 334.427 30.348C333.971 30.78 333.431 31.128 332.807 31.392C332.207 31.656 331.571 31.788 330.899 31.788Z" fill="black" fill-opacity="0.1"/>
<path d="M212.6 30.6C208.448 30.6 205.304 29.928 203.168 28.584C201.056 27.24 200 25.14 200 22.284C200 21.468 200.144 20.724 200.432 20.052C200.744 19.356 201.152 18.756 201.656 18.252C202.184 17.748 202.784 17.352 203.456 17.064C204.128 16.776 204.836 16.632 205.58 16.632C206.444 16.632 207.2 16.8 207.848 17.136C208.52 17.448 209.084 17.88 209.54 18.432C210.02 18.96 210.38 19.572 210.62 20.268C210.86 20.964 210.98 21.696 210.98 22.464C210.98 23.064 210.872 23.676 210.656 24.3C210.44 24.924 210.104 25.488 209.648 25.992C209.192 26.496 208.604 26.916 207.884 27.252C207.164 27.564 206.288 27.72 205.256 27.72C204.32 27.72 203.504 27.492 202.808 27.036C202.112 26.58 201.536 26.04 201.08 25.416C201.272 25.968 201.56 26.484 201.944 26.964C202.352 27.42 202.82 27.828 203.348 28.188C203.876 28.524 204.464 28.8 205.112 29.016C205.76 29.208 206.444 29.304 207.164 29.304C208.292 29.304 209.288 29.124 210.152 28.764C211.04 28.404 211.772 27.9 212.348 27.252C212.948 26.604 213.404 25.836 213.716 24.948C214.028 24.036 214.184 23.052 214.184 21.996C214.184 20.844 213.98 19.824 213.572 18.936C213.188 18.048 212.648 17.304 211.952 16.704C211.28 16.08 210.5 15.612 209.612 15.3C208.724 14.988 207.8 14.832 206.84 14.832H206.48V14.508H206.84C207.704 14.508 208.556 14.34 209.396 14.004C210.236 13.668 210.98 13.2 211.628 12.6C212.276 11.976 212.792 11.256 213.176 10.44C213.584 9.6 213.788 8.676 213.788 7.668C213.788 6.612 213.608 5.688 213.248 4.896C212.912 4.104 212.456 3.444 211.88 2.916C211.328 2.388 210.68 1.992 209.936 1.728C209.216 1.464 208.46 1.332 207.668 1.332C206.468 1.332 205.424 1.584 204.536 2.088C203.672 2.592 203.012 3.192 202.556 3.888C203.348 3.168 204.452 2.808 205.868 2.808C206.66 2.808 207.356 2.94 207.956 3.204C208.58 3.468 209.096 3.828 209.504 4.284C209.936 4.74 210.26 5.268 210.476 5.868C210.692 6.444 210.8 7.056 210.8 7.704C210.8 8.4 210.668 9.024 210.404 9.576C210.164 10.128 209.828 10.596 209.396 10.98C208.964 11.34 208.448 11.628 207.848 11.844C207.248 12.036 206.612 12.132 205.94 12.132C205.148 12.132 204.44 12.012 203.816 11.772C203.216 11.532 202.7 11.196 202.268 10.764C201.836 10.332 201.512 9.828 201.296 9.252C201.08 8.676 200.972 8.064 200.972 7.416C200.972 6.336 201.212 5.34 201.692 4.428C202.196 3.516 202.94 2.736 203.924 2.088C204.932 1.416 206.192 0.899999 207.704 0.539999C209.216 0.18 210.992 0 213.032 0C214.376 0 215.732 0.156 217.1 0.468C218.492 0.780001 219.74 1.248 220.844 1.872C221.972 2.472 222.884 3.216 223.58 4.104C224.3 4.992 224.66 6.024 224.66 7.2C224.66 8.232 224.468 9.132 224.084 9.9C223.7 10.644 223.184 11.292 222.536 11.844C221.888 12.372 221.144 12.804 220.304 13.14C219.464 13.476 218.6 13.752 217.712 13.968C216.824 14.16 215.936 14.292 215.048 14.364C214.184 14.436 213.38 14.472 212.636 14.472C212.588 14.472 212.552 14.508 212.528 14.58C212.528 14.604 212.54 14.616 212.564 14.616C212.588 14.64 212.612 14.652 212.636 14.652C214.148 14.628 215.672 14.736 217.208 14.976C218.744 15.192 220.124 15.612 221.348 16.236C222.596 16.836 223.604 17.664 224.372 18.72C225.164 19.752 225.56 21.048 225.56 22.608C225.56 23.976 225.2 25.164 224.48 26.172C223.784 27.18 222.836 28.02 221.636 28.692C220.46 29.34 219.08 29.82 217.496 30.132C215.936 30.444 214.304 30.6 212.6 30.6Z" fill="black" fill-opacity="0.1"/>
<path d="M233.385 31.212C232.713 31.212 232.077 31.08 231.477 30.816C230.877 30.552 230.349 30.204 229.893 29.772C229.437 29.316 229.077 28.8 228.813 28.224C228.549 27.624 228.417 26.988 228.417 26.316C228.417 25.62 228.549 24.96 228.813 24.336C229.077 23.712 229.437 23.172 229.893 22.716C230.349 22.26 230.877 21.9 231.477 21.636C232.077 21.372 232.713 21.24 233.385 21.24C234.057 21.24 234.693 21.372 235.293 21.636C235.917 21.9 236.457 22.26 236.913 22.716C237.393 23.172 237.765 23.712 238.029 24.336C238.293 24.96 238.425 25.62 238.425 26.316C238.425 26.988 238.293 27.624 238.029 28.224C237.765 28.8 237.393 29.316 236.913 29.772C236.457 30.204 235.917 30.552 235.293 30.816C234.693 31.08 234.057 31.212 233.385 31.212Z" fill="black" fill-opacity="0.1"/>
<path d="M100.508 27.504C103.532 25.848 106.016 24.24 107.96 22.68C109.904 21.12 111.428 19.656 112.532 18.288C113.66 16.92 114.44 15.66 114.872 14.508C115.304 13.332 115.52 12.288 115.52 11.376C115.52 10.416 115.364 9.468 115.052 8.532C114.74 7.596 114.26 6.768 113.612 6.048C112.988 5.328 112.196 4.752 111.236 4.32C110.276 3.864 109.148 3.636 107.852 3.636C107.132 3.636 106.412 3.72 105.692 3.888C104.996 4.056 104.336 4.332 103.712 4.716C103.112 5.076 102.56 5.556 102.056 6.156C101.552 6.756 101.156 7.488 100.868 8.352C101.108 7.776 101.432 7.296 101.84 6.912C102.248 6.528 102.692 6.216 103.172 5.976C103.676 5.736 104.192 5.568 104.72 5.472C105.272 5.376 105.824 5.328 106.376 5.328C107.264 5.328 108.08 5.484 108.824 5.796C109.592 6.108 110.252 6.54 110.804 7.092C111.356 7.644 111.788 8.292 112.1 9.036C112.436 9.756 112.604 10.536 112.604 11.376C112.604 12.24 112.436 13.056 112.1 13.824C111.788 14.568 111.344 15.216 110.768 15.768C110.216 16.32 109.556 16.764 108.788 17.1C108.02 17.412 107.204 17.568 106.34 17.568C105.572 17.568 104.804 17.424 104.036 17.136C103.292 16.848 102.62 16.428 102.02 15.876C101.444 15.324 100.976 14.652 100.616 13.86C100.256 13.068 100.076 12.156 100.076 11.124C100.076 9.636 100.436 8.22 101.156 6.876C101.876 5.532 102.86 4.356 104.108 3.348C105.356 2.316 106.808 1.5 108.464 0.900001C110.144 0.3 111.92 0 113.792 0C115.688 0 117.368 0.252 118.832 0.756001C120.296 1.236 121.52 1.896 122.504 2.736C123.488 3.552 124.232 4.488 124.736 5.544C125.264 6.6 125.528 7.692 125.528 8.82C125.528 10.284 125.204 11.58 124.556 12.708C123.932 13.836 123.104 14.844 122.072 15.732C121.064 16.596 119.912 17.364 118.616 18.036C117.344 18.708 116.06 19.32 114.764 19.872C113.492 20.424 112.28 20.94 111.128 21.42C109.976 21.9 109.016 22.38 108.248 22.86H113.504C116.96 22.86 119.612 22.404 121.46 21.492C123.332 20.556 124.268 19.356 124.268 17.892H124.592V30.312H100.508V27.504Z" fill="black" fill-opacity="0.1"/>
<path d="M134.552 31.464C133.88 31.464 133.244 31.332 132.644 31.068C132.044 30.804 131.516 30.456 131.06 30.024C130.604 29.568 130.244 29.052 129.98 28.476C129.716 27.876 129.584 27.24 129.584 26.568C129.584 25.872 129.716 25.212 129.98 24.588C130.244 23.964 130.604 23.424 131.06 22.968C131.516 22.512 132.044 22.152 132.644 21.888C133.244 21.624 133.88 21.492 134.552 21.492C135.224 21.492 135.86 21.624 136.46 21.888C137.084 22.152 137.624 22.512 138.08 22.968C138.56 23.424 138.932 23.964 139.196 24.588C139.46 25.212 139.592 25.872 139.592 26.568C139.592 27.24 139.46 27.876 139.196 28.476C138.932 29.052 138.56 29.568 138.08 30.024C137.624 30.456 137.084 30.804 136.46 31.068C135.86 31.332 135.224 31.464 134.552 31.464Z" fill="black" fill-opacity="0.1"/>
<path d="M0.324 29.52C0.996 29.52 1.524 29.328 1.908 28.944C2.292 28.536 2.568 28.032 2.736 27.432C2.928 26.832 3.036 26.172 3.06 25.452C3.108 24.732 3.132 24.048 3.132 23.4V8.352C3.132 6.912 2.964 5.82 2.628 5.076C2.292 4.332 1.74 3.96 0.972 3.96C0.708 3.96 0.432 3.996 0.144 4.068L0 3.78L12.924 0L13.032 0.0720012V23.4C13.032 24.168 13.044 24.912 13.068 25.632C13.092 26.328 13.176 26.964 13.32 27.54C13.464 28.116 13.668 28.584 13.932 28.944C14.22 29.304 14.616 29.496 15.12 29.52V29.808H0.324V29.52Z" fill="white" fill-opacity="0.5"/>
<path d="M24.0365 30.96C23.3645 30.96 22.7285 30.828 22.1285 30.564C21.5285 30.3 21.0005 29.952 20.5445 29.52C20.0885 29.064 19.7285 28.548 19.4645 27.972C19.2005 27.372 19.0685 26.736 19.0685 26.064C19.0685 25.368 19.2005 24.708 19.4645 24.084C19.7285 23.46 20.0885 22.92 20.5445 22.464C21.0005 22.008 21.5285 21.648 22.1285 21.384C22.7285 21.12 23.3645 20.988 24.0365 20.988C24.7085 20.988 25.3445 21.12 25.9445 21.384C26.5685 21.648 27.1085 22.008 27.5645 22.464C28.0445 22.92 28.4165 23.46 28.6805 24.084C28.9445 24.708 29.0765 25.368 29.0765 26.064C29.0765 26.736 28.9445 27.372 28.6805 27.972C28.4165 28.548 28.0445 29.064 27.5645 29.52C27.1085 29.952 26.5685 30.3 25.9445 30.564C25.3445 30.828 24.7085 30.96 24.0365 30.96Z" fill="white" fill-opacity="0.5"/>
<circle cx="30" cy="130" r="29.5" fill="black" fill-opacity="0.3" stroke="white"/>
<path d="M41.25 130L24.375 139.743V120.257L41.25 130Z" fill="white"/>
<g clip-path="url(#clip0_4128_13630)">
<mask id="mask0_4128_13630" style="mask-type:luminance" maskUnits="userSpaceOnUse" x="100" y="100" width="80" height="19">
<path d="M180 100.5H100V118.5H180V100.5Z" fill="white"/>
</mask>
<g mask="url(#mask0_4128_13630)">
<path d="M125.09 103.364C124.797 102.267 123.935 101.4 122.846 101.105C120.878 100.565 112.96 100.565 112.96 100.565C112.96 100.565 105.041 100.582 103.073 101.122C101.984 101.416 101.122 102.284 100.829 103.38C100.309 105.36 100.309 109.5 100.309 109.5C100.309 109.5 100.309 113.64 100.846 115.636C101.138 116.733 102 117.6 103.09 117.895C105.057 118.435 112.976 118.434 112.976 118.434C112.976 118.434 120.894 118.435 122.862 117.895C123.951 117.6 124.813 116.733 125.106 115.636C125.642 113.656 125.642 109.5 125.642 109.5C125.642 109.5 125.626 105.36 125.09 103.364Z" fill="#FF0000"/>
<path d="M110.439 113.329L117.008 109.5L110.439 105.671V113.329Z" fill="white"/>
<path d="M137.057 116.814C136.553 116.471 136.195 115.947 135.984 115.227C135.772 114.507 135.675 113.558 135.675 112.364V110.744C135.675 109.549 135.789 108.567 136.033 107.847C136.276 107.111 136.65 106.587 137.171 106.26C137.691 105.933 138.358 105.753 139.187 105.753C140 105.753 140.667 105.916 141.155 106.26C141.642 106.604 142.016 107.127 142.244 107.847C142.472 108.567 142.585 109.533 142.585 110.727V112.347C142.585 113.542 142.472 114.491 142.244 115.211C142.016 115.931 141.659 116.454 141.155 116.798C140.65 117.125 139.968 117.305 139.122 117.305C138.244 117.322 137.561 117.142 137.057 116.814ZM139.87 115.064C140.016 114.704 140.081 114.098 140.081 113.28V109.794C140.081 108.993 140.016 108.404 139.87 108.044C139.724 107.667 139.48 107.487 139.138 107.487C138.797 107.487 138.569 107.667 138.423 108.044C138.276 108.42 138.211 108.993 138.211 109.794V113.28C138.211 114.098 138.276 114.704 138.407 115.064C138.537 115.424 138.781 115.604 139.138 115.604C139.48 115.604 139.724 115.424 139.87 115.064Z" fill="#EEEEEE"/>
<path d="M175.512 112.396V112.969C175.512 113.689 175.529 114.229 175.577 114.589C175.626 114.949 175.707 115.211 175.838 115.374C175.968 115.538 176.179 115.62 176.455 115.62C176.829 115.62 177.09 115.473 177.22 115.178C177.366 114.884 177.431 114.393 177.447 113.722L179.61 113.853C179.626 113.951 179.626 114.082 179.626 114.245C179.626 115.276 179.35 116.045 178.781 116.553C178.212 117.06 177.431 117.322 176.407 117.322C175.171 117.322 174.309 116.929 173.821 116.16C173.333 115.391 173.073 114.18 173.073 112.56V110.58C173.073 108.911 173.333 107.684 173.838 106.914C174.358 106.145 175.236 105.753 176.472 105.753C177.333 105.753 177.984 105.916 178.439 106.227C178.894 106.538 179.22 107.029 179.415 107.7C179.61 108.371 179.691 109.287 179.691 110.465V112.38H175.512V112.396ZM175.838 107.684C175.707 107.847 175.626 108.093 175.577 108.453C175.529 108.813 175.512 109.353 175.512 110.089V110.891H177.333V110.089C177.333 109.369 177.317 108.829 177.268 108.453C177.22 108.076 177.138 107.814 177.008 107.667C176.878 107.52 176.683 107.438 176.423 107.438C176.146 107.454 175.951 107.536 175.838 107.684Z" fill="#EEEEEE"/>
<path d="M130.976 112.184L128.13 101.842H130.618L131.61 106.522C131.87 107.684 132.049 108.665 132.179 109.467H132.244C132.325 108.878 132.52 107.913 132.813 106.538L133.837 101.842H136.325L133.447 112.167V117.125H130.992V112.184H130.976Z" fill="#EEEEEE"/>
<path d="M150.65 105.965V117.142H148.699L148.488 115.767H148.439C147.903 116.798 147.106 117.322 146.049 117.322C145.317 117.322 144.764 117.076 144.423 116.586C144.065 116.095 143.903 115.342 143.903 114.311V105.965H146.407V114.164C146.407 114.655 146.455 115.015 146.569 115.227C146.683 115.44 146.862 115.538 147.106 115.538C147.317 115.538 147.529 115.473 147.724 115.342C147.919 115.211 148.065 115.031 148.163 114.835V105.965H150.65Z" fill="#EEEEEE"/>
<path d="M163.48 105.965V117.142H161.529L161.317 115.767H161.269C160.732 116.798 159.935 117.322 158.878 117.322C158.147 117.322 157.594 117.076 157.252 116.586C156.895 116.095 156.732 115.342 156.732 114.311V105.965H159.236V114.164C159.236 114.655 159.285 115.015 159.399 115.227C159.512 115.44 159.691 115.538 159.935 115.538C160.147 115.538 160.358 115.473 160.553 115.342C160.748 115.211 160.895 115.031 160.992 114.835V105.965H163.48Z" fill="#EEEEEE"/>
<path d="M157.447 103.871H154.96V117.142H152.521V103.871H150.033V101.842H157.431V103.871H157.447Z" fill="#EEEEEE"/>
<path d="M171.74 107.749C171.594 107.045 171.35 106.538 171.008 106.211C170.667 105.9 170.212 105.736 169.61 105.736C169.155 105.736 168.716 105.867 168.325 106.129C167.919 106.391 167.626 106.735 167.399 107.16H167.382V101.269H164.976V117.125H167.041L167.301 116.062H167.35C167.545 116.438 167.838 116.733 168.212 116.962C168.602 117.175 169.025 117.289 169.496 117.289C170.342 117.289 170.96 116.896 171.366 116.111C171.756 115.325 171.968 114.098 171.968 112.445V110.678C171.968 109.435 171.886 108.453 171.74 107.749ZM169.447 112.315C169.447 113.133 169.415 113.771 169.35 114.229C169.285 114.687 169.171 115.015 169.008 115.211C168.846 115.407 168.634 115.505 168.374 115.505C168.163 115.505 167.984 115.456 167.805 115.358C167.626 115.26 167.496 115.113 167.382 114.916V108.567C167.464 108.256 167.61 108.011 167.821 107.815C168.033 107.618 168.244 107.52 168.488 107.52C168.748 107.52 168.943 107.618 169.073 107.815C169.22 108.011 169.301 108.355 169.366 108.829C169.415 109.304 169.447 109.975 169.447 110.858V112.315Z" fill="#EEEEEE"/>
</g>
</g>
<path d="M10.0197 205.054C10.92 205.7 12.0229 206.08 13.2141 206.08V203.779C12.9886 203.779 12.7638 203.756 12.5432 203.709V205.519C11.3521 205.519 10.2494 205.139 9.34886 204.494V209.188C9.34886 211.536 7.45191 213.44 5.11205 213.44C4.23898 213.44 3.42751 213.175 2.75342 212.721C3.52278 213.51 4.59572 214 5.78274 214C8.12275 214 10.0198 212.096 10.0198 209.748V205.054H10.0197ZM10.8473 202.733C10.3872 202.228 10.0851 201.577 10.0197 200.856V200.56H9.38399C9.54401 201.476 10.0898 202.259 10.8473 202.733ZM4.23339 210.919C3.97632 210.58 3.83741 210.167 3.83803 209.741C3.83803 208.667 4.70569 207.796 5.77614 207.796C5.97563 207.796 6.17393 207.827 6.36405 207.887V205.536C6.14187 205.505 5.91763 205.492 5.6935 205.497V207.327C5.50324 207.267 5.30484 207.236 5.1053 207.236C4.03485 207.236 3.16724 208.107 3.16724 209.181C3.16724 209.941 3.60093 210.598 4.23339 210.919Z" fill="#FF004F"/>
<path d="M9.34889 204.494C10.2494 205.139 11.3522 205.519 12.5433 205.519V203.709C11.8784 203.567 11.2898 203.218 10.8473 202.733C10.0898 202.259 9.54403 201.476 9.38402 200.56H7.71417V209.748C7.71039 210.819 6.84422 211.686 5.77607 211.686C5.14662 211.686 4.58742 211.385 4.23327 210.919C3.60086 210.598 3.16717 209.941 3.16717 209.181C3.16717 208.107 4.03478 207.236 5.10523 207.236C5.31032 207.236 5.508 207.268 5.69343 207.327V205.497C3.39466 205.545 1.5459 207.43 1.5459 209.748C1.5459 210.905 2.00628 211.954 2.75349 212.721C3.42758 213.175 4.23906 213.44 5.11212 213.44C7.45204 213.44 9.34894 211.536 9.34894 209.188V204.494H9.34889Z" fill="black"/>
<path d="M12.5431 203.709V203.219C11.9436 203.22 11.3558 203.052 10.8472 202.733C11.2975 203.228 11.8904 203.569 12.5431 203.709ZM9.38391 200.56C9.36864 200.472 9.35692 200.384 9.34878 200.296V200H7.04318V209.188C7.03949 210.259 6.17337 211.126 5.10512 211.126C4.7915 211.126 4.49539 211.052 4.23316 210.919C4.58731 211.385 5.14651 211.686 5.77596 211.686C6.84402 211.686 7.71033 210.819 7.71406 209.748V200.56H9.38391ZM5.69341 205.497V204.976C5.50076 204.949 5.30653 204.936 5.11206 204.936C2.77195 204.936 0.875 206.84 0.875 209.188C0.875 210.66 1.62054 211.958 2.75343 212.721C2.00622 211.954 1.54584 210.905 1.54584 209.748C1.54584 207.43 3.39455 205.545 5.69341 205.497Z" fill="#00F2EA"/>
<defs>
<clipPath id="clip0_4128_13630">
<rect width="80" height="19" fill="white" transform="translate(100 100)"/>
</clipPath>
</defs>
</svg>
