<svg xmlns="http://www.w3.org/2000/svg" viewBox="0 0 64 64"><defs><style>.cls-1{isolation:isolate;}.cls-2{fill:#dba5eb;}.cls-3{fill:#b27fc7;}.cls-4{fill:#ffc1ad;}.cls-5{fill:#ffa485;}.cls-6{fill:#ff9486;}.cls-7{fill:#ff5542;}.cls-8{opacity:0.3;mix-blend-mode:multiply;}.cls-9{fill:#ff6269;}.cls-10{fill:#e60000;}.cls-11{fill:#fff;}.cls-12{fill:#f6cbff;}.cls-13{fill:#53415e;}</style></defs><g class="cls-1"><g id="Layer_1" data-name="Layer 1"><rect class="cls-2" x="12.961" y="1.493" width="38.077" height="58.47" rx="18.195"/><path class="cls-3" d="M32.844,5.493a14.211,14.211,0,0,1,14.2,14.195v22.08a14.211,14.211,0,0,1-14.195,14.2H31.156A14.211,14.211,0,0,1,16.961,41.768V19.688a14.211,14.211,0,0,1,14.2-14.195h1.688m0-4H31.156a18.248,18.248,0,0,0-18.195,18.2v22.08a18.249,18.249,0,0,0,18.2,18.2h1.688a18.249,18.249,0,0,0,18.2-18.195V19.688A18.248,18.248,0,0,0,32.844,1.493Z"/><circle class="cls-4" cx="19.627" cy="15.153" r="4.191"/><circle class="cls-5" cx="19.627" cy="15.153" r="2.489"/><circle class="cls-4" cx="44.373" cy="15.153" r="4.191"/><circle class="cls-5" cx="44.373" cy="15.153" r="2.489"/><path class="cls-4" d="M19.179,35.585a12.821,12.821,0,0,1,25.642,0Z"/><path class="cls-6" d="M32,22.765A12.813,12.813,0,0,0,20.667,29.6a15.2,15.2,0,0,0,19.506-3.889A12.762,12.762,0,0,0,32,22.765Z"/><path class="cls-7" d="M51.039,24.937C42.616,24.536,32,34.147,32,34.147S21.011,42.87,17.138,53.334a18.181,18.181,0,0,0,14.018,6.629h1.688a18.249,18.249,0,0,0,18.2-18.195Z"/><g class="cls-8"><path class="cls-9" d="M19.011,49.288a18.219,18.219,0,0,0,15.718,9.094h1.688a17.861,17.861,0,0,0,5.49-.873A18.453,18.453,0,0,0,43.856,56.2c.816-11.34-3.652-19.06-9.208-24.217C33.009,33.234,32,34.147,32,34.147S23.73,40.715,19.011,49.288Z"/></g><path class="cls-7" d="M31.156,59.963h1.688a18.016,18.016,0,0,0,7.409-1.6C42.7,30.286,12.961,24.039,12.961,24.039V41.768A18.249,18.249,0,0,0,31.156,59.963Z"/><path class="cls-4" d="M3.836,62a1.7,1.7,0,0,1-1.6-2.277,59.645,59.645,0,0,0,2.444-7.916c.313-2.344-2.422-3.906-2.188-8.516s5.59-7.985,7.834-10.918c1.816-2.373,1.584-3.95,3.273-4.784,1.367-.675,2.514.5,3.012,1.687a6.194,6.194,0,0,1,.042,3.9,15.751,15.751,0,0,1-1.239,3.159l-1.793,3.551a1.437,1.437,0,0,0,1.089,2.072c1.875.266,4.612.949,6.325,2.7,2.811,2.867,1.63,6.745,4.61,8.769,1.845,1.254,1.4,4.247.8,6.343A3.1,3.1,0,0,1,23.46,62Z"/><path class="cls-4" d="M60.105,62a1.7,1.7,0,0,0,1.6-2.277,59.645,59.645,0,0,1-2.444-7.916c-.313-2.344,2.422-3.906,2.188-8.516s-5.59-7.985-7.834-10.918C51.8,30,52.03,28.423,50.341,27.589c-1.367-.675-2.514.5-3.012,1.687a6.194,6.194,0,0,0-.042,3.9,15.751,15.751,0,0,0,1.239,3.159l1.793,3.551a1.437,1.437,0,0,1-1.089,2.072c-1.875.266-4.612.949-6.325,2.7-2.811,2.867-1.63,6.745-4.609,8.769-1.846,1.254-1.405,4.247-.8,6.343A3.1,3.1,0,0,0,40.481,62Z"/><path class="cls-10" d="M32.969,55.67a1,1,0,0,1-.989-.859C29.892,40.078,19.237,35.83,18.785,35.656a1,1,0,0,1,.711-1.87c.5.189,12.2,4.8,14.464,20.743a1,1,0,0,1-.85,1.131A.965.965,0,0,1,32.969,55.67Z"/><path class="cls-11" d="M36.971,36.018a19.829,19.829,0,0,1,7.855-5.264"/><path class="cls-10" d="M36.972,37.018a1,1,0,0,1-.761-1.649,20.71,20.71,0,0,1,8.3-5.562,1,1,0,0,1,.639,1.9,18.987,18.987,0,0,0-7.415,4.967A1,1,0,0,1,36.972,37.018Z"/><rect class="cls-4" x="19.627" y="2.255" width="24.746" height="26.877" rx="12.373"/><circle class="cls-3" cx="32" cy="22.262" r="4.06"/><circle class="cls-12" cx="32" cy="22.262" r="1.74"/><circle class="cls-13" cx="27.747" cy="14.638" r="1.74"/><circle class="cls-6" cx="24.168" cy="19.228" r="2.09"/><circle class="cls-6" cx="40.083" cy="19.228" r="2.09"/><circle class="cls-13" cx="36.253" cy="14.638" r="1.74"/><circle class="cls-9" cx="56.057" cy="22.586" r="2.279"/><path class="cls-9" d="M54.713,27.671s-2.473-3.853-.39-6.565l3.467,2.959-3.077,3.606"/><circle class="cls-9" cx="59.524" cy="25.545" r="2.279"/><path class="cls-9" d="M54.713,27.671s4.194,1.837,6.545-.646l-3.468-2.96-3.077,3.606"/><circle class="cls-9" cx="5.779" cy="27.418" r="1.773"/><path class="cls-9" d="M9.509,29.1s-3.273,1.4-5.087-.542l2.715-2.281L9.509,29.1"/><circle class="cls-9" cx="8.494" cy="25.137" r="1.773"/><path class="cls-9" d="M9.509,29.1s1.947-2.983.343-5.105L7.137,26.278,9.509,29.1"/><circle class="cls-9" cx="51.281" cy="5.618" r="4.125"/><path class="cls-9" d="M50.474,15.1s-5.611-6.1-2.745-11.582l7.105,4.192-4.36,7.39"/><circle class="cls-9" cx="58.386" cy="9.81" r="4.125"/><path class="cls-9" d="M50.474,15.1s8.05,1.963,11.465-3.2l-7.1-4.192-4.36,7.39"/></g></g></svg>