<svg id="Layer_1" data-name="Layer 1" xmlns="http://www.w3.org/2000/svg" viewBox="0 0 64 64"><defs><style>.cls-1{fill:#f6cbff;}.cls-2{fill:#ff5542;}.cls-2,.cls-3{fill-rule:evenodd;}.cls-3,.cls-4{fill:#e60000;}.cls-5{fill:red;}</style></defs><path class="cls-1" d="M63.416,33.281c-.092,2.268-3.933,3.928-4.5,6.03-.587,2.17,1.875,5.541.841,7.479-1.051,1.969-5.232,1.8-6.68,3.469s-.7,5.789-2.488,7.1-5.473-.649-7.521.239c-2.016.872-3.113,4.911-5.324,5.319-2.141.4-4.611-2.968-6.878-3.06s-5,3.059-7.1,2.49c-2.17-.587-2.935-4.7-4.873-5.736-1.969-1.051-5.808.6-7.477-.85s-.587-5.492-1.9-7.283-5.488-1.952-6.375-4C2.26,42.465,4.989,39.306,4.58,37.1c-.4-2.141-4.089-4.109-4-6.376s3.933-3.928,4.5-6.03c.587-2.17-1.875-5.541-.841-7.479,1.051-1.969,5.232-1.8,6.68-3.469s.7-5.789,2.488-7.1,5.473.649,7.521-.239c2.016-.872,3.113-4.911,5.324-5.319,2.141-.4,4.611,2.968,6.878,3.06s5-3.059,7.1-2.49c2.17.587,2.935,4.7,4.873,5.736,1.969,1.051,5.808-.6,7.477.85s.587,5.492,1.9,7.283,5.488,1.952,6.375,4c.873,2.015-1.856,5.174-1.447,7.385C59.816,29.046,63.509,31.014,63.416,33.281Z"/><path class="cls-2" d="M63.042,25.723C57.235,8.485,30.994,19.26,29.6,34.683,38.519,47.344,66.632,43.556,63.042,25.723ZM34.613,33.347c4.722-5.777,17.9-13.479,20.491-5.5,1.754,8.206-13.511,8.136-20.491,5.5Z"/><path class="cls-2" d="M20.644,1.245C3.406,7.052,14.181,33.293,29.6,34.683,42.265,25.767,38.476-2.345,20.644,1.245Zm7.624,28.429c-5.777-4.722-13.479-17.9-5.5-20.491C30.978,7.434,30.9,22.7,28.257,29.677Z"/><path class="cls-2" d="M1.181,42.3C6.118,56.951,28.422,47.792,29.6,34.683,22.026,23.921-1.87,27.141,1.181,42.3Zm7.806-2.066c-1.263-5.929,11.2-5.829,15.7-4.18C21.618,39.73,10.871,46.051,9,40.284Z"/><path class="cls-2" d="M37.22,63.106c14.652-4.937,5.493-27.241-7.616-28.423C18.842,42.261,22.062,66.157,37.22,63.106Zm-2.015-7.82c-5.93,1.264-5.829-11.2-4.18-15.7l-.051.013C34.651,42.669,40.972,53.416,35.205,55.286Z"/><path class="cls-3" d="M29.491,24.66a24.848,24.848,0,0,1-1.231,5.007l.008.007.968.792a65.355,65.355,0,0,1,7.469-8.084,25.088,25.088,0,0,0,.248-6.414A23.988,23.988,0,0,1,29.491,24.66Z"/><path class="cls-4" d="M39.79,34.6a25.039,25.039,0,0,1-5.177-1.254v0c-.268.327-.526.64-.788.958a44.564,44.564,0,0,1,6.888,7.246,24.915,24.915,0,0,0,5.853.576C42.218,40.752,40.2,36.1,39.79,34.6Z"/><path class="cls-5" d="M34.613,35c-.143-.127-.644-.572-.788-.7-1.315,1.6-2.575,3.1-3.817,4.5.341.279.681.536.966.8.865.789,1.542,1.559,1.542,1.559C32.025,39.07,33.825,35.818,34.613,35Z"/><path class="cls-4" d="M30.2,43.625a17.718,17.718,0,0,1,.815-4l-.036-.031c-.3-.247-.625-.517-.966-.8a56.913,56.913,0,0,1-6.44,6.336,21.314,21.314,0,0,0-.276,4.011C25.926,45.133,28.939,43.976,30.2,43.625Z"/><path class="cls-5" d="M28.268,29.674l-.008-.007h0c-1.438,2.653-5.031,2.149-7.528,1.4,1.47,1.339,3.122,2.73,4.731,4.05,1.084-1.327,2.389-2.961,3.773-4.647Z"/><path class="cls-4" d="M18.108,28.5a21.19,21.19,0,0,0-5.833.125c3.705.553,7.467,4.853,8.9,6.66a16.582,16.582,0,0,1,3.512.769c.241-.288.5-.608.774-.94A79.7,79.7,0,0,1,18.108,28.5Z"/></svg>