<?xml version="1.0" encoding="UTF-8"?>
<svg xmlns="http://www.w3.org/2000/svg" viewBox="0 0 64 64">
  <defs>
    <style>
      .cls-1 {
        fill: #fce4ff;
      }

      .cls-1, .cls-2, .cls-3, .cls-4, .cls-5, .cls-6, .cls-7, .cls-8, .cls-9, .cls-10 {
        stroke-width: 0px;
      }

      .cls-2 {
        fill: #653784;
      }

      .cls-3 {
        fill: #ff3b2c;
      }

      .cls-4 {
        fill: #ff5542;
      }

      .cls-5 {
        fill: #f6cbff;
      }

      .cls-6 {
        fill: #e60000;
      }

      .cls-7 {
        fill: #b27fc7;
      }

      .cls-8 {
        fill: #f2bbff;
      }

      .cls-9 {
        fill: #ab71c6;
      }

      .cls-11 {
        isolation: isolate;
      }

      .cls-12 {
        mix-blend-mode: multiply;
        opacity: .28;
      }

      .cls-10 {
        fill: #b27fc7;
      }
    </style>
  </defs>
  <g class="cls-11">
    <g id="Layer_1" data-name="Layer 1">
      <ellipse class="cls-6" cx="31.92" cy="56.56" rx="2.21" ry="2.09"/>
      <g>
        <path class="cls-1" d="M32,18.06v37.49s14.25-13.65,30.04-14.81l-.97-1,1.15-.09-1.13-1.04h1.13s-.94-.89-.94-.89l.94-.16s-5.19-21-9.31-27.08c0,0-13.98-.62-20.91,7.58Z"/>
        <path class="cls-6" d="M62.05,40.73l-.78,2.12s-16.49,1.6-29.26,15.15v-2.45s9.4-13.59,30.04-14.81Z"/>
        <path class="cls-1" d="M32,18.06v37.49s-14.25-13.65-30.04-14.81l.97-1-1.15-.09,1.13-1.04h-1.13l.94-.89-.94-.16S6.97,16.56,11.09,10.48c0,0,13.98-.62,20.91,7.58Z"/>
        <path class="cls-5" d="M27.54,14.34c2.04,7.57,5.21,29.97-6.11,33.32,6.36,3.86,10.57,7.88,10.57,7.88V18.06c-1.29-1.52-2.82-2.74-4.46-3.72Z"/>
        <g class="cls-12">
          <path class="cls-10" d="M17.75,33.42s-.77,3.64,8.97,7.66c5.07,2.09,5.28,6.75,5.28,7.34v-12.87l-14.25-2.13Z"/>
          <path class="cls-10" d="M32,48.48s0-.02,0-.06v.06Z"/>
          <path class="cls-10" d="M32.01,48.48v-.06s0,.06,0,.06Z"/>
          <path class="cls-10" d="M46.26,33.42l-14.25,2.13v12.87c0-.59.22-5.25,5.28-7.34,9.74-4.02,8.97-7.66,8.97-7.66Z"/>
        </g>
        <path class="cls-6" d="M1.96,40.73l.78,2.12s16.49,1.6,29.26,15.15v-2.45s-9.4-13.59-30.04-14.81Z"/>
        <path class="cls-8" d="M1.78,37.55l.94.16-.94.89h1.13l-1.13,1.04,1.15.09-.97,1c15.79,1.16,30.04,14.81,30.04,14.81-.42-.24-13.79-21.33-30.22-17.99Z"/>
        <path class="cls-8" d="M62.32,37.49l-.94.16.94.89h-1.13s1.13,1.04,1.13,1.04l-1.15.09.97,1c-15.79,1.16-30.04,14.81-30.04,14.81.42-.24,13.79-21.33,30.22-17.99Z"/>
      </g>
      <path class="cls-7" d="M60.03,17.42s0-.02,0-.03v-1.17h-1.35v.37l-26.6-7.69c-.1-.03-.21-.03-.31,0l-26.6,7.69v-.38h-1.35v1.25h.02c0,.21.1.42.32.53l14.26,6.92-.78,7.41c-.05.23-.08.47-.08.71,0,0,0,.02,0,.02v.02s0,0,0,0c.05,3.72,6.5,6.73,14.46,6.73s14.4-3.01,14.46-6.73h0v-.02s0-.02,0-.02c0-.24-.03-.48-.08-.71l-.79-7.49,14.1-6.84c.22-.11.31-.32.32-.53h.01v-.05Z"/>
      <path class="cls-2" d="M58.67,16.22v.37l-26.6-7.69c-.1-.03-.21-.03-.31,0l-11.55,3.34h0l-5.26,1.52-1.5.43h0l-8.3,2.4v-.38h-1.35v1.25h.02c0,.21.1.42.32.53l13.64,6.61h0l.62.3-.34,3.21c4.3,5.55,11.21,9.15,19,9.15,2.8,0,5.49-.47,7.99-1.32.88-.87,1.4-1.84,1.41-2.86h0v-.02s0-.02,0-.02c0-.24-.03-.48-.08-.71l-.79-7.49,14.1-6.84c.22-.11.31-.32.32-.53h.01v-.05s0-.02,0-.03v-1.17h-1.35Z"/>
    </g>
    <g id="Layer_4" data-name="Layer 4">
      <path class="cls-9" d="M31.75,7.71L4.28,15.65c-.57.17-.64.99-.1,1.25l27.47,13.33c.17.08.37.08.54,0l27.47-13.33c.54-.26.47-1.08-.1-1.25l-27.47-7.94c-.11-.03-.23-.03-.34,0Z"/>
      <path class="cls-10" d="M48.7,14.34c0-.64-.08-1.27-.22-1.89l-16.38-4.73c-.11-.03-.23-.03-.34,0L4.28,15.65c-.57.17-.64.99-.1,1.25l24.46,11.87c11.53-1.64,20.05-7.47,20.05-14.42Z"/>
      <path class="cls-2" d="M49.27,22.43s-7.85-4.82-16.42-5.28c0,0,12.69,3.61,14.07,5.92.68,1.13,2.34-.64,2.34-.64"/>
      <path class="cls-4" d="M52.84,56.34c-.22,0-.44-.07-.62-.21-4.17-3.24-6-7.7-5.15-12.56.36-2.07,1.02-4.11,1.66-6.07,1.45-4.48,2.82-8.7.72-12.98-1.97-4-7.62-5.13-12.61-6.13-1.26-.25-2.46-.49-3.55-.77-.54-.14-.87-.69-.73-1.23s.69-.87,1.23-.73c1.04.26,2.21.5,3.44.75,5.18,1.04,11.63,2.33,14.04,7.22,2.47,5.02.9,9.84-.61,14.51-.62,1.9-1.25,3.87-1.59,5.8-.71,4.08.85,7.84,4.4,10.61.44.34.52.98.18,1.42-.2.26-.5.39-.8.39Z"/>
      <path class="cls-3" d="M53.46,54.53c-3.53-2.75-5.09-6.49-4.41-10.55-.93.75-1.67,1.72-2.15,2.83.27,3.58,2.09,6.81,5.31,9.32.19.14.41.21.62.21.3,0,.6-.13.8-.39.34-.44.26-1.08-.18-1.42Z"/>
      <path class="cls-4" d="M58.45,54.54c-1.93-.48-3.68-1.31-4.8-1.91.31-1.15.08-2.43-.72-3.4-1.27-1.54-3.51-1.7-4.99-.36-1.48,1.34-1.65,3.66-.38,5.2.81.97,2,1.39,3.14,1.23.67,1.59,1.83,4.39,2.03,5.01,0,0,1.23-.23,2.58-1.09-.36-.57-.94-1.5-1.13-2.08,0,0,.9,1.19,1.55,1.8.44-.32.88-.71,1.29-1.2-1.42-1.24-2.59-2.6-2.59-2.6,1.45.86,2.59,1.41,3.31,1.56.9-1.19.7-2.16.7-2.16Z"/>
      <path class="cls-3" d="M57.75,56.7c.25-.33.41-.65.52-.93-1.66-.06-3.83-.63-3.83-.63,1.45.86,2.59,1.41,3.31,1.56Z"/>
      <path class="cls-3" d="M54.18,57.14s.9,1.19,1.55,1.8c.12-.08.23-.19.34-.28-.98-.41-1.9-1.51-1.9-1.51Z"/>
      <path class="cls-3" d="M53.84,59.97c-1.06-1.14-3.13-4.67-3.13-4.67.67,1.59,1.83,4.39,2.03,5.01,0,0,.45-.09,1.1-.34Z"/>
      <path class="cls-3" d="M50.71,55.3c.16.37.34.81.53,1.27.82-.79,2.33-2.44,2.41-3.93,0,0-.53,2.21-2.94,2.67Z"/>
    </g>
  </g>
</svg>