<svg id="Layer_1" data-name="Layer 1" xmlns="http://www.w3.org/2000/svg" viewBox="0 0 64 64"><defs><style>.cls-1{fill:#b27fc7;}.cls-2{fill:#e60000;}.cls-3{fill:#ff5542;}.cls-4{fill:#dba5eb;}.cls-5{fill:#ffa485;}.cls-6{fill:#fce4ff;}.cls-7{fill:#f6cbff;}.cls-8{fill:#ffc1ad;}</style></defs><circle class="cls-1" cx="24.099" cy="4.193" r="2.73"/><circle class="cls-1" cx="35.257" cy="5.651" r="2.198"/><polygon class="cls-1" points="30.026 15.838 23.614 5.001 25.241 4.039 30.068 12.197 34.455 5.152 36.059 6.15 30.026 15.838"/><path class="cls-2" d="M24.109,51.75l-2.571-1.2-3.21,11.774a.792.792,0,0,0,1.415.658l6.936-10.041Z"/><path class="cls-2" d="M40.6,51.75l2.571-1.2,3.21,11.774a.792.792,0,0,1-1.415.658L38.033,52.945Z"/><path class="cls-3" d="M32.806,57.008c-3.119.109-6.238.233-9.357.333-2.582.083-5.524.551-8.061.007a11.041,11.041,0,0,1-7.921-7.167C4.486,42.349.68,33.771,1.329,25.2,2.24,13.187,16.294,13.4,25.32,13.338a139.177,139.177,0,0,0,18.5-1.822c4.042-.569,8.678-1.538,12.6.072,4.119,1.69,5.064,6.222,5.132,10.232A68.486,68.486,0,0,1,56.916,48C55.9,50.53,54.419,53.032,52,54.427c-2.858,1.648-6.626,1.62-9.818,1.965C39.063,56.728,35.937,56.9,32.806,57.008Z"/><path class="cls-4" d="M32.471,49.83c-2.146.075-4.292.16-6.439.229a24.967,24.967,0,0,1-5.546.014,7.446,7.446,0,0,1-5.443-4.7c-2.042-5.138-4.652-10.765-4.2-16.393.64-7.886,10.311-7.765,16.522-7.813A100.246,100.246,0,0,0,40.1,19.954c2.782-.378,5.973-1.02,8.672.033,2.832,1.105,3.478,4.079,3.52,6.711a43.2,43.2,0,0,1-3.222,17.194,8.241,8.241,0,0,1-3.391,4.223c-1.969,1.084-4.561,1.071-6.758,1.3C36.777,49.639,34.626,49.754,32.471,49.83Z"/><path class="cls-5" d="M45.3,19.412a9.49,9.49,0,0,1,3.469.575c2.832,1.105,3.478,4.079,3.52,6.711a43.2,43.2,0,0,1-3.222,17.194,8.241,8.241,0,0,1-3.391,4.223c-1.969,1.084-4.561,1.071-6.758,1.3-2.145.224-4.3.339-6.451.415s-4.292.16-6.439.229c-1.151.038-2.406.181-3.621.181a9.775,9.775,0,0,1-1.925-.167,7.446,7.446,0,0,1-5.443-4.7c-2.042-5.138-4.652-10.765-4.2-16.393.64-7.886,10.311-7.765,16.522-7.813A100.246,100.246,0,0,0,40.1,19.954a39,39,0,0,1,5.2-.542m0-1.8h0a31.415,31.415,0,0,0-4.512.426c-.316.045-.628.09-.935.132l-.757.1a91.656,91.656,0,0,1-11.746,1.1l-.442,0c-6.4.045-17.1.12-17.864,9.467C8.607,34.287,10.78,39.65,12.7,44.381c.226.559.451,1.113.669,1.662a9.211,9.211,0,0,0,6.76,5.8,11.492,11.492,0,0,0,2.284.2c.774,0,1.536-.052,2.273-.1.479-.033.951-.065,1.406-.08q2.012-.065,4.021-.141l2.423-.088c2.629-.093,4.657-.223,6.575-.424.411-.043.836-.077,1.268-.111a15.117,15.117,0,0,0,6.173-1.4,9.825,9.825,0,0,0,4.184-5.1A44.7,44.7,0,0,0,54.1,26.669c-.087-5.441-2.587-7.551-4.668-8.363a11.2,11.2,0,0,0-4.124-.7Z"/><path class="cls-6" d="M33.352,24.3l2.2,4.087a2.568,2.568,0,0,0,1.983,1.336l4.614.5a2.57,2.57,0,0,1,1.579,4.33l-3.207,3.355a2.572,2.572,0,0,0-.658,2.3l.947,4.544a2.57,2.57,0,0,1-3.63,2.84L33,45.583a2.569,2.569,0,0,0-2.39.085l-4.029,2.3A2.569,2.569,0,0,1,22.758,45.4l.622-4.6a2.57,2.57,0,0,0-.82-2.247l-3.436-3.119A2.57,2.57,0,0,1,20.391,31l4.567-.83A2.571,2.571,0,0,0,26.842,28.7l1.905-4.233A2.569,2.569,0,0,1,33.352,24.3Z"/><path class="cls-7" d="M26.58,47.972l4.029-2.3A2.569,2.569,0,0,1,33,45.583L37.181,47.6a2.57,2.57,0,0,0,3.63-2.84l-.947-4.544a2.572,2.572,0,0,1,.658-2.3l3.207-3.355a2.57,2.57,0,0,0-1.579-4.33l-4.614-.5a2.568,2.568,0,0,1-1.983-1.336l-.38-.705C31.95,36.669,27.049,41.628,22.9,44.333L22.758,45.4A2.569,2.569,0,0,0,26.58,47.972Z"/><circle class="cls-8" cx="58.079" cy="25.379" r="2.243"/><circle class="cls-8" cx="57.308" cy="32.694" r="1.75"/><circle class="cls-8" cx="56.051" cy="39.087" r="1.32"/></svg>