<svg id="Layer_1" data-name="Layer 1" xmlns="http://www.w3.org/2000/svg" viewBox="0 0 64 64"><defs><style>.cls-1{fill:#e60000;}.cls-2{fill:#fce4ff;}.cls-3{fill:#7e5096;}.cls-4{fill:#dba5eb;}.cls-5{fill:#b27fc7;}.cls-6{fill:#ffc1ad;}.cls-7{fill:#ff9486;}.cls-8{fill:#ff5542;}.cls-9{fill:#ff736c;}.cls-10{fill:#ffa485;}</style></defs><path class="cls-1" d="M22.552,6.472v49.9H5.183A4.069,4.069,0,0,1,1.7,50.207Z"/><rect class="cls-2" x="8.813" y="2.955" width="52.841" height="58.641" rx="12.795"/><path class="cls-3" d="M25.256,21.662a4.843,4.843,0,0,0-4.8,2.971c-1.383,3.309-4.474,4.016-4.5,6.564a2.477,2.477,0,0,0,2.827,2.557l2.236,1.8,5.93-1.594,5.573,1.057.835-.4a5.137,5.137,0,0,0-.125-3.43A2.5,2.5,0,0,0,31.2,29.667c.05,0,.157-.4.167-.434a2.6,2.6,0,0,0,.074-1.1A4.127,4.127,0,0,0,30.3,26.259a9.351,9.351,0,0,1-1.066-2.65,3.429,3.429,0,0,0-1.34-1.715,3.207,3.207,0,0,0-2.555-.254Z"/><path class="cls-4" d="M41.365,29.243h0a11.5,11.5,0,0,1,11.5,11.5V56.3a0,0,0,0,1,0,0h-23a0,0,0,0,1,0,0V40.742A11.5,11.5,0,0,1,41.365,29.243Z"/><path class="cls-5" d="M25.424,31.424h0a11.5,11.5,0,0,1,11.5,11.5V58.479a0,0,0,0,1,0,0h-23a0,0,0,0,1,0,0V42.923A11.5,11.5,0,0,1,25.424,31.424Z"/><rect class="cls-6" x="22.552" y="28.476" width="5.743" height="7.557" rx="2.872"/><path class="cls-7" d="M25.424,28.476h0a2.881,2.881,0,0,0-2.872,2.872v1.3a3.3,3.3,0,0,0,2.872,1.7h0a3.3,3.3,0,0,0,2.872-1.7v-1.3A2.88,2.88,0,0,0,25.424,28.476Z"/><path class="cls-3" d="M35.868,40.961h0a7.446,7.446,0,0,1,7.446,7.446V58.479a0,0,0,0,1,0,0H28.422a0,0,0,0,1,0,0V48.406A7.446,7.446,0,0,1,35.868,40.961Z"/><rect class="cls-6" x="21.454" y="22.453" width="7.94" height="10.549" rx="3.97"/><rect class="cls-6" x="39.23" y="26.113" width="5.896" height="7.758" rx="2.948"/><path class="cls-7" d="M42.178,26.113h0a2.957,2.957,0,0,0-2.948,2.948V30.4a3.393,3.393,0,0,0,2.948,1.745h0A3.4,3.4,0,0,0,45.127,30.4V29.061A2.957,2.957,0,0,0,42.178,26.113Z"/><rect class="cls-6" x="37.736" y="20.291" width="8.884" height="10.549" rx="4.442"/><rect class="cls-6" x="34.121" y="38.97" width="3.493" height="4.596" rx="1.746"/><path class="cls-7" d="M35.868,38.97h0a1.752,1.752,0,0,0-1.747,1.747v.791a2.009,2.009,0,0,0,1.747,1.034h0a2.009,2.009,0,0,0,1.746-1.034v-.791A1.752,1.752,0,0,0,35.868,38.97Z"/><rect class="cls-6" x="32.876" y="34.623" width="5.983" height="7.104" rx="2.991"/><path class="cls-8" d="M49.38,2.052H21.293A13.181,13.181,0,0,0,8.109,15.236V49.313A13.181,13.181,0,0,0,21.293,62.5H49.38a13.185,13.185,0,0,0,13.2-13.185V15.236A13.184,13.184,0,0,0,49.38,2.052Zm3.157,47.261a3.159,3.159,0,0,1-3.157,3.146H21.293a3.149,3.149,0,0,1-3.145-3.146V15.236a3.148,3.148,0,0,1,3.145-3.145H49.38a3.158,3.158,0,0,1,3.157,3.145Z"/><path class="cls-9" d="M49.38,13.764a1.48,1.48,0,0,1,1.484,1.472V49.313a1.481,1.481,0,0,1-1.484,1.473H21.293a1.474,1.474,0,0,1-1.472-1.473V15.236a1.473,1.473,0,0,1,1.472-1.472H49.38m0-1.673H21.293a3.148,3.148,0,0,0-3.145,3.145V49.313a3.149,3.149,0,0,0,3.145,3.146H49.38a3.159,3.159,0,0,0,3.157-3.146V15.236a3.158,3.158,0,0,0-3.157-3.145Z"/><path class="cls-10" d="M18.356,12.545a.491.491,0,0,1-.346-.143L12.648,7.04a.488.488,0,1,1,.69-.691L18.7,11.711a.489.489,0,0,1-.345.834Z"/><path class="cls-10" d="M52.266,12.545a.489.489,0,0,1-.345-.834l5.363-5.362a.488.488,0,1,1,.69.691L52.612,12.4A.491.491,0,0,1,52.266,12.545Z"/><path class="cls-10" d="M12.993,58.276a.488.488,0,0,1-.345-.834l5.362-5.363a.489.489,0,0,1,.691.691l-5.363,5.364A.49.49,0,0,1,12.993,58.276Z"/><path class="cls-10" d="M57.629,58.276a.49.49,0,0,1-.345-.142L51.921,52.77a.489.489,0,0,1,.691-.691l5.362,5.363a.488.488,0,0,1-.345.834Z"/><path class="cls-10" d="M46.611,9.321a6.2,6.2,0,0,1-3.368-.92,4.4,4.4,0,0,0-4.575,0,6.614,6.614,0,0,1-6.73,0,4.391,4.391,0,0,0-4.569,0,6.612,6.612,0,0,1-6.729,0,4,4,0,0,0-2.284-.641,1.116,1.116,0,1,1,0-2.231,6.187,6.187,0,0,1,3.363.92,4.389,4.389,0,0,0,4.571,0,6.61,6.61,0,0,1,6.728,0,4.389,4.389,0,0,0,4.571,0,6.618,6.618,0,0,1,6.732,0,4.4,4.4,0,0,0,4.578,0,6.2,6.2,0,0,1,3.367-.92,1.116,1.116,0,1,1,0,2.231,4.02,4.02,0,0,0-2.289.641A6.194,6.194,0,0,1,46.611,9.321Z"/><path class="cls-10" d="M46.611,59.684a6.2,6.2,0,0,1-3.368-.92,4.4,4.4,0,0,0-4.575,0,6.614,6.614,0,0,1-6.73,0,4.386,4.386,0,0,0-4.569,0,6.612,6.612,0,0,1-6.729,0,4,4,0,0,0-2.284-.642,1.115,1.115,0,1,1,0-2.23,6.188,6.188,0,0,1,3.363.919,4.389,4.389,0,0,0,4.571,0,6.616,6.616,0,0,1,6.728,0,4.389,4.389,0,0,0,4.571,0,6.624,6.624,0,0,1,6.732,0,4.4,4.4,0,0,0,4.578,0,6.2,6.2,0,0,1,3.367-.919,1.115,1.115,0,1,1,0,2.23,4.012,4.012,0,0,0-2.289.642A6.194,6.194,0,0,1,46.611,59.684Z"/><path class="cls-10" d="M58.41,53.985A1.115,1.115,0,0,1,57.3,52.87a5.979,5.979,0,0,0-.68-2.938,8.927,8.927,0,0,1,0-7.738,6.683,6.683,0,0,0,0-5.874,8.137,8.137,0,0,1-.882-3.867,8.123,8.123,0,0,1,.882-3.864,5.963,5.963,0,0,0,.68-2.933,5.965,5.965,0,0,0-.68-2.934,8.137,8.137,0,0,1-.882-3.867,8.131,8.131,0,0,1,.882-3.865,5.96,5.96,0,0,0,.68-2.933,1.115,1.115,0,1,1,2.23,0,8.131,8.131,0,0,1-.882,3.865,5.973,5.973,0,0,0-.679,2.933,5.981,5.981,0,0,0,.679,2.935,8.132,8.132,0,0,1,.882,3.866,8.12,8.12,0,0,1-.882,3.864,5.976,5.976,0,0,0-.679,2.933,5.983,5.983,0,0,0,.679,2.936,8.92,8.92,0,0,1,0,7.735,6.7,6.7,0,0,0,0,5.878,8.138,8.138,0,0,1,.882,3.868A1.115,1.115,0,0,1,58.41,53.985Z"/><path class="cls-10" d="M13.774,53.186a1.115,1.115,0,0,1-1.116-1.115,5.752,5.752,0,0,0-.675-2.864,8.633,8.633,0,0,1,0-7.619,6.411,6.411,0,0,0,0-5.727,7.87,7.87,0,0,1-.886-3.807,7.875,7.875,0,0,1,.886-3.806,5.729,5.729,0,0,0,.675-2.858,5.749,5.749,0,0,0-.675-2.862,7.864,7.864,0,0,1-.886-3.8,7.877,7.877,0,0,1,.886-3.807,5.736,5.736,0,0,0,.675-2.859,1.116,1.116,0,1,1,2.231,0A7.872,7.872,0,0,1,14,15.863a5.729,5.729,0,0,0-.676,2.86A5.722,5.722,0,0,0,14,21.582a7.881,7.881,0,0,1,.886,3.808A7.868,7.868,0,0,1,14,29.2a6.39,6.39,0,0,0,0,5.721,8.628,8.628,0,0,1,0,7.617,6.407,6.407,0,0,0,0,5.729,7.868,7.868,0,0,1,.886,3.809A1.115,1.115,0,0,1,13.774,53.186Z"/><path class="cls-3" d="M35.568,36.015s-.357.777-.522,1.18l-2.519-.112a2.831,2.831,0,0,1,3.231-2.7A2.589,2.589,0,0,1,39.072,36.9a7.677,7.677,0,0,1-3.128.214Z"/><path class="cls-3" d="M37.736,25.427a3.764,3.764,0,0,1,2.385-1.436,8.612,8.612,0,0,0,4.183-2.1s-.386,1.94,1.163,2.541a1.855,1.855,0,0,1,1.154,1.414,6.468,6.468,0,0,0,.238-1.916c-.033-1.054-1.157-2.966-2.116-2.948a4.114,4.114,0,0,0-4.729-.587A3.742,3.742,0,0,0,37.736,25.427Z"/><path class="cls-3" d="M42.51,27.7s-.413.654-.793.732-1.19-.149-1.538-.012.347-.912,1.49-.921C42.51,27.493,42.51,27.7,42.51,27.7Z"/><path class="cls-3" d="M41.847,27.7s.413.654.793.732,1.189-.149,1.538-.012-.347-.912-1.49-.921C41.847,27.493,41.847,27.7,41.847,27.7Z"/><path class="cls-3" d="M25.424,23.759a5.049,5.049,0,0,1-3.468,3.866,1.55,1.55,0,0,1-.5,1.293L21.3,25.452l2.061-3.322,2.712-.192L28.4,23.3l1.466,2.923-.472,2.288a6.2,6.2,0,0,0-1.416-3.393A3.836,3.836,0,0,0,25.424,23.759Z"/></svg>