<svg id="Layer_1" data-name="Layer 1" xmlns="http://www.w3.org/2000/svg" viewBox="0 0 64 64"><defs><style>.cls-1{fill:#ff5542;}.cls-2{fill:#e60000;}.cls-3{fill:#b27fc7;}.cls-4{fill:#ffa485;}.cls-5{fill:#ff8d6e;}.cls-6{fill:#dba5eb;}.cls-7{fill:#aa6dc6;}.cls-8{fill:#fce4ff;}.cls-9{fill:#cf86ea;}.cls-10{fill:#f6cbff;}</style></defs><path class="cls-1" d="M36.9,62.562l16.7-6.188a5.7,5.7,0,0,0,2.69-2.048c5.493-7.822,6.827-19.607,2.6-31.028l-47.3,17.526C15.85,52.35,24.661,60.462,34.019,62.733A4.932,4.932,0,0,0,36.9,62.562Z"/><path class="cls-2" d="M58.883,23.3l-7.5,2.78L50.83,27.5c.033.139.059.274.091.412L47.5,26.454,34.927,32.3,33.19,37.358s10.293-4.851,16.077-2.552a4.856,4.856,0,0,1,2.943,4.646c-.216,10.642-4.765,17.077-8.56,20.607L53.7,56.336a5.444,5.444,0,0,0,2.556-1.965C61.775,46.549,63.122,34.741,58.883,23.3Z"/><ellipse class="cls-3" cx="35.186" cy="32.077" rx="25.27" ry="4.304" transform="translate(-8.953 14.223) rotate(-20.33)"/><path class="cls-4" d="M23.224,57.289c1.848-.318,3.817-.7,5.964-1.148a102.687,102.687,0,0,0,14.335-4.23A112.935,112.935,0,0,0,60.651,43.95a35.1,35.1,0,0,0,.617-9.75c-8.036,5.778-22.435,11.871-33.7,14.231-4.252.892-7.739,1.487-10.949,1.864A35.41,35.41,0,0,0,23.224,57.289Z"/><path class="cls-5" d="M61.268,34.2a68.969,68.969,0,0,1-9.063,5.362,32.414,32.414,0,0,1-1.567,9.455A103.809,103.809,0,0,0,60.651,43.95a33.768,33.768,0,0,0,.638-4.706l.007-.113q.074-1.176.07-2.374V36.7Q61.36,35.459,61.268,34.2Z"/><path class="cls-6" d="M51.236,29.7a7.382,7.382,0,0,0-12.614-.054A12.247,12.247,0,0,0,18.138,41.373a105.45,105.45,0,0,0,18.544-5.26A120.355,120.355,0,0,0,51.236,29.7Z"/><circle class="cls-6" cx="54.115" cy="22.202" r="2.376"/><circle class="cls-6" cx="14.64" cy="37.358" r="1.56"/><path class="cls-6" d="M35.585,18.81a1.277,1.277,0,0,0-1.434.853,2.071,2.071,0,0,0-.273,0,2.21,2.21,0,1,0,2.246,1.431,1.277,1.277,0,0,0-.539-2.283Z"/><path class="cls-3" d="M31.807,9.1a8.629,8.629,0,0,0-8.678-4.281,5.381,5.381,0,0,0-9.958-.633A7.323,7.323,0,0,0,4.426,14.73c.085.15.18.29.274.431a8.627,8.627,0,1,0,15.162,5.594A8.628,8.628,0,0,0,31.807,9.1Z"/><path class="cls-7" d="M23.129,4.814a5.275,5.275,0,0,0-3.184-3.3c3.354,9.986-2.68,25.451-10.007,27.8a8.613,8.613,0,0,0,9.924-8.558A8.628,8.628,0,1,0,23.129,4.814Z"/><path class="cls-8" d="M24.77,33.052,29.1,30.593a1.615,1.615,0,0,0,.605-2.219c-1.339-2.3-3.685-7.11-3.024-11.663l-3.21-1.15a14.722,14.722,0,0,0,.312,7.7L19.44,17.24l-2.363,1.229,1.792,4.274a16.055,16.055,0,0,0-5.526-2.152l-1.045,3.3s6.221,1.379,10.26,8.54A1.621,1.621,0,0,0,24.77,33.052Z"/><path class="cls-6" d="M44.467,14.433l3.005.987s.148-3.007,5.151-3.659c4.465-.582,1.779-6.32-2.147-3.563.155-.1.239-.379.307-.538.486-1.139.894-2.928-.335-3.756a2.15,2.15,0,0,0-1.5-.292c-1.791.289-1.567,2.509-1.854,3.359-.024.071-.048.143-.065.216,0,0,.192-2.368-.991-3.438A2.242,2.242,0,0,0,42.318,5.43C41.97,8.127,46.169,9.641,44.467,14.433Z"/><path class="cls-9" d="M45.648,14.821l1.824.6s.148-3.007,5.151-3.659c2.209-.288,2.664-1.838,2.087-3A10.523,10.523,0,0,0,45.648,14.821Z"/><path class="cls-10" d="M50.356,19.917c-1.448,4.41-6.015,10.072-9.031,9.081s-3.338-8.257-1.89-12.667,4.28-4.786,7.3-3.8S51.8,15.508,50.356,19.917Z"/><path class="cls-9" d="M46.6,8.854s.221-.719.421-1.672c.005-.064.175-2.377-.991-3.433a2.22,2.22,0,0,0-2.962.037C44.158,4.249,46.056,5.519,46.6,8.854Z"/><ellipse class="cls-8" cx="45.877" cy="15.135" rx="0.579" ry="2.633" transform="translate(17.185 54.001) rotate(-71.821)"/><ellipse class="cls-8" cx="44.913" cy="18.071" rx="0.787" ry="3.942" transform="matrix(0.312, -0.95, 0.95, 0.312, 13.732, 55.105)"/><ellipse class="cls-8" cx="43.835" cy="21.353" rx="0.786" ry="3.942" transform="translate(9.873 56.339) rotate(-71.821)"/><ellipse class="cls-8" cx="42.694" cy="24.83" rx="0.579" ry="2.633" transform="translate(5.784 57.646) rotate(-71.821)"/><path class="cls-10" d="M41.552,9.6c-3.2.925-4.3,2.021-5.226,5.226a.447.447,0,0,1-.858,0c-.926-3.2-2.022-4.3-5.227-5.226a.448.448,0,0,1,0-.858c3.2-.926,4.3-2.022,5.227-5.227a.448.448,0,0,1,.858,0c.926,3.205,2.022,4.3,5.226,5.227A.447.447,0,0,1,41.552,9.6Z"/><path class="cls-10" d="M17.684,31.354a1.642,1.642,0,0,0-1.372,1.372.117.117,0,0,1-.225,0,1.642,1.642,0,0,0-1.372-1.372.117.117,0,0,1,0-.225,1.642,1.642,0,0,0,1.372-1.372.117.117,0,0,1,.225,0,1.642,1.642,0,0,0,1.372,1.372A.117.117,0,0,1,17.684,31.354Z"/><path class="cls-10" d="M61.228,15.373a3.248,3.248,0,0,0-2.715,2.715.233.233,0,0,1-.446,0,3.249,3.249,0,0,0-2.715-2.715.233.233,0,0,1,0-.446,3.249,3.249,0,0,0,2.715-2.715.233.233,0,0,1,.446,0,3.248,3.248,0,0,0,2.715,2.715A.233.233,0,0,1,61.228,15.373Z"/><path class="cls-10" d="M36.417,32.505a2.191,2.191,0,0,0-1.83,1.83.157.157,0,0,1-.3,0,2.191,2.191,0,0,0-1.83-1.83.157.157,0,0,1,0-.3,2.19,2.19,0,0,0,1.83-1.83.157.157,0,0,1,.3,0,2.19,2.19,0,0,0,1.83,1.83A.157.157,0,0,1,36.417,32.505Z"/></svg>