<svg id="Layer_1" data-name="Layer 1" xmlns="http://www.w3.org/2000/svg" viewBox="0 0 64 64"><defs><style>.cls-1{fill:#fce4ff;}.cls-2{fill:#f6cbff;}.cls-3{fill:#53415e;}.cls-4{fill:#ffa485;}.cls-5{fill:#fec6b4;}.cls-6{fill:#ff5542;}.cls-7{fill:red;}.cls-8{fill:#dba5eb;}.cls-9{fill:#ff9486;}.cls-10{fill:#b27fc7;}.cls-11{fill:#ffc1ad;}.cls-12{fill:#7e5096;}</style></defs><path class="cls-1" d="M62.3,30.529c0,1.715-2.448,3.2-2.735,4.83-.294,1.68,1.5,3.906.926,5.473-.581,1.594-3.388,2.147-4.227,3.6s.071,4.171-1.01,5.458-3.91.854-5.2,1.938S48.7,55.766,47.24,56.613s-3.955-.536-5.549.045c-1.567.57-2.6,3.238-4.281,3.533-1.634.286-3.514-1.864-5.23-1.864s-3.595,2.15-5.229,1.864c-1.68-.294-2.714-2.963-4.281-3.533-1.6-.581-4.1.793-5.55-.046s-1.521-3.707-2.808-4.788-4.117-.647-5.2-1.938S8.948,45.892,8.1,44.429s-3.647-2-4.227-3.6C3.3,39.265,5.1,37.039,4.8,35.359c-.286-1.634-2.734-3.115-2.734-4.83s2.448-3.2,2.734-4.83c.295-1.68-1.5-3.906-.925-5.473.58-1.595,3.388-2.148,4.227-3.6s-.072-4.17,1.009-5.457,3.911-.854,5.2-1.938,1.344-3.941,2.807-4.788,3.956.535,5.55-.045c1.567-.571,2.6-3.239,4.281-3.533,1.633-.286,3.514,1.864,5.229,1.864s3.6-2.15,5.23-1.864c1.68.294,2.714,2.962,4.281,3.533,1.594.581,4.1-.794,5.55.045s1.521,3.708,2.808,4.789,4.117.647,5.2,1.937.163,4,1.009,5.458,3.647,2,4.227,3.6c.57,1.567-1.22,3.793-.926,5.473C59.847,27.332,62.3,28.813,62.3,30.529Z"/><path class="cls-2" d="M55.528,30.529c0,1.33-1.9,2.479-2.12,3.745-.228,1.3,1.16,3.029.718,4.243-.45,1.237-2.627,1.666-3.278,2.79s.056,3.233-.782,4.231-3.032.662-4.033,1.5-1.042,3.056-2.177,3.712-3.066-.415-4.3.035c-1.215.442-2.017,2.511-3.319,2.739-1.267.222-2.725-1.445-4.055-1.445s-2.788,1.667-4.055,1.445c-1.3-.228-2.1-2.3-3.319-2.739-1.236-.451-3.179.615-4.3-.036s-1.179-2.874-2.177-3.712-3.192-.5-4.032-1.5-.126-3.1-.782-4.232-2.827-1.552-3.277-2.789c-.443-1.214.945-2.94.717-4.243-.221-1.266-2.12-2.414-2.12-3.744s1.9-2.479,2.12-3.746c.229-1.3-1.159-3.028-.717-4.243.45-1.236,2.627-1.665,3.277-2.789s-.055-3.233.783-4.231,3.032-.662,4.033-1.5,1.042-3.056,2.177-3.712,3.066.415,4.3-.035c1.215-.442,2.017-2.511,3.319-2.739,1.266-.222,2.724,1.445,4.054,1.445s2.789-1.667,4.056-1.445c1.3.228,2.1,2.3,3.319,2.739,1.236.45,3.179-.615,4.3.035s1.179,2.875,2.176,3.713,3.192.5,4.033,1.5.126,3.1.782,4.231,2.827,1.553,3.277,2.789c.442,1.215-.946,2.941-.718,4.243C53.63,28.051,55.528,29.2,55.528,30.529Z"/><circle class="cls-3" cx="32.18" cy="5.38" r="4.375"/><circle class="cls-4" cx="25.86" cy="14.583" r="1.712"/><circle class="cls-4" cx="38.189" cy="14.927" r="1.712"/><path class="cls-5" d="M32,20.189V63.221A41.1,41.1,0,0,1,6.709,56.552a5.837,5.837,0,0,1-2.793-5.979c.629-4.152,6.121-4.67,8.67-5.371s11.789-2.8,12.553-4.269-1.784-5.608-3.058-10.387S20.9,20.414,25.649,19.14C28.261,18.44,32,20.189,32,20.189Z"/><path class="cls-6" d="M12.586,45.2c-2.549.7-8.041,1.219-8.67,5.371a5.839,5.839,0,0,0,2.793,5.979A41.1,41.1,0,0,0,32,63.221V44.993a13.455,13.455,0,0,1-8.084-3.183C21.146,43.137,14.657,44.632,12.586,45.2Z"/><path class="cls-7" d="M31.6,58.118a.511.511,0,0,1-.183-.034,174.492,174.492,0,0,1-16.268-7.715.5.5,0,1,1,.479-.879,172.822,172.822,0,0,0,16.154,7.662.5.5,0,0,1-.182.966Z"/><path class="cls-5" d="M32,20.189V63.221a41.1,41.1,0,0,0,25.291-6.669,5.837,5.837,0,0,0,2.793-5.979c-.629-4.152-6.121-4.67-8.67-5.371s-11.789-2.8-12.553-4.269,1.784-5.608,3.058-10.387S43.1,20.414,38.351,19.14C35.739,18.44,32,20.189,32,20.189Z"/><path class="cls-6" d="M51.414,45.2c2.549.7,8.041,1.219,8.67,5.371a5.839,5.839,0,0,1-2.793,5.979A41.1,41.1,0,0,1,32,63.221V44.993a13.455,13.455,0,0,0,8.084-3.183C42.854,43.137,49.343,44.632,51.414,45.2Z"/><path class="cls-5" d="M36.64,18.985s7.157-1.2,8.959,5.967,2.189,12.708,4.314,15.67c0,0,3.476-.773,8.048,2.446,0,0,1.867.482.579-1.915s-1.352-3.235-.644-3.943,5.014,1.532,5.022,7.532c.007,5.408-14.808,3.6-17.254,1.19s-4.417-7.469-5.074-11.411L38.9,26.844Z"/><path class="cls-8" d="M15.318,30.889c-2.688.776-3.607,1.7-4.383,4.382a.375.375,0,0,1-.719,0c-.777-2.687-1.7-3.606-4.383-4.382a.376.376,0,0,1,0-.72c2.687-.776,3.606-1.7,4.383-4.382a.375.375,0,0,1,.719,0c.776,2.687,1.7,3.606,4.383,4.382A.376.376,0,0,1,15.318,30.889Z"/><path class="cls-5" d="M27.36,18.985s-7.157-1.2-8.959,5.967-2.189,12.708-4.314,15.67c0,0-3.476-.773-8.048,2.446,0,0-1.867.482-.579-1.915s1.352-3.235.644-3.943S1.09,38.742,1.082,44.742c-.007,5.408,14.808,3.6,17.254,1.19s4.417-7.469,5.074-11.411L25.1,26.844Z"/><path class="cls-9" d="M38.351,19.14C35.739,18.44,32,20.189,32,20.189s-3.739-1.749-6.351-1.049c-4.745,1.274-4.843,6.627-3.568,11.406s3.823,8.921,3.058,10.387a.99.99,0,0,1-.2.239A20.278,20.278,0,0,0,32,42.083a20.278,20.278,0,0,0,7.064-.911,1.013,1.013,0,0,1-.2-.239c-.765-1.466,1.784-5.608,3.058-10.387S43.1,20.414,38.351,19.14Z"/><path class="cls-10" d="M45.6,24.952c-1.8-7.171-8.959-5.967-8.959-5.967h0A14.316,14.316,0,0,0,32,20.189a14.316,14.316,0,0,0-4.641-1.2h0s-7.157-1.2-8.959,5.967c-1.045,4.155-1.615,7.756-2.322,10.63L22.4,38.529a27.389,27.389,0,0,0,1.01-4.008v0c1.152,3,2.27,5.377,1.729,6.414a.99.99,0,0,1-.2.239A20.278,20.278,0,0,0,32,42.083a20.278,20.278,0,0,0,7.064-.911,1.013,1.013,0,0,1-.2-.239c-.541-1.037.577-3.418,1.729-6.414v0A27.255,27.255,0,0,0,41.6,38.529l6.321-2.947C47.214,32.708,46.644,29.107,45.6,24.952Z"/><path class="cls-11" d="M36.64,18.985h0A14.316,14.316,0,0,0,32,20.189a14.316,14.316,0,0,0-4.641-1.2h0a9.4,9.4,0,0,0-2.943.091,8.385,8.385,0,0,0,15.166,0A9.4,9.4,0,0,0,36.64,18.985Z"/><rect class="cls-9" x="27.917" y="9.544" width="8.165" height="13.503" rx="4.083"/><rect class="cls-11" x="25.784" y="7.543" width="12.433" height="13.503" rx="6.216"/><path class="cls-3" d="M32,7.543a6.234,6.234,0,0,0-6.14,5.3c1.216.1,4.53.071,6.14-3.085,0,0,.765,3.459,6.189,3.46A6.236,6.236,0,0,0,32,7.543Z"/><path class="cls-7" d="M34.37,56.955A.5.5,0,0,1,34.155,56l14.662-6.973a.5.5,0,0,1,.43.9L34.585,56.906A.5.5,0,0,1,34.37,56.955Z"/><path class="cls-11" d="M27.579,63.258s10.149.678,16.7-.392-1.371-4.656-4.761-5.281-3.356-2.123-5.007-3.193-5.53-.848-6.556,2.007Z"/><path class="cls-9" d="M14.5,47.549a9.075,9.075,0,0,0,3.834-1.617c2.447-2.413,4.417-7.469,5.074-11.411-1.276-3.289-2.443-7.753-2.443-7.753C23.211,37.911,18.208,44.4,14.5,47.549Z"/><path class="cls-12" d="M20.783,37.775l1.617.754a27.389,27.389,0,0,0,1.01-4.008c-1.276-3.289-2.443-7.753-2.443-7.753A23.543,23.543,0,0,1,20.783,37.775Z"/><path class="cls-9" d="M49.5,47.549a9.075,9.075,0,0,1-3.834-1.617c-2.447-2.413-4.417-7.469-5.073-11.411,1.275-3.289,2.442-7.753,2.442-7.753C40.791,37.911,45.794,44.4,49.5,47.549Z"/><path class="cls-12" d="M43.219,37.775l-1.617.754a27.255,27.255,0,0,1-1.009-4.008c1.275-3.289,2.442-7.753,2.442-7.753A23.543,23.543,0,0,0,43.219,37.775Z"/><path class="cls-9" d="M17.085,42.826a.5.5,0,0,1-.368-.161,5.67,5.67,0,0,0-2.723-1.552.5.5,0,0,1,.186-.982,6.607,6.607,0,0,1,3.274,1.859.5.5,0,0,1-.369.836Z"/><path class="cls-9" d="M46.916,42.826a.5.5,0,0,1-.369-.836,6.6,6.6,0,0,1,3.273-1.859.5.5,0,0,1,.186.982,5.67,5.67,0,0,0-2.722,1.552A.5.5,0,0,1,46.916,42.826Z"/><path class="cls-12" d="M35.355,36.492a.373.373,0,0,1-.211-.064c-3.4-2.311-5.546-.077-5.566-.055a.375.375,0,1,1-.549-.512c.027-.028,2.612-2.721,6.537-.054a.375.375,0,0,1-.211.685Z"/><path class="cls-8" d="M58.16,16.1c-4.284,1.237-5.748,2.7-6.986,6.985a.6.6,0,0,1-1.146,0c-1.238-4.283-2.7-5.748-6.985-6.985a.6.6,0,0,1,0-1.147c4.283-1.237,5.747-2.7,6.985-6.985a.6.6,0,0,1,1.146,0c1.238,4.283,2.7,5.748,6.986,6.985A.6.6,0,0,1,58.16,16.1Z"/></svg>