<svg id="Layer_1" data-name="Layer 1" xmlns="http://www.w3.org/2000/svg" viewBox="0 0 64 64"><defs><style>.cls-1{fill:#e60000;}.cls-2{fill:#ffc1ad;}.cls-3{fill:#653784;}.cls-4{fill:#ff5542;}.cls-10,.cls-12,.cls-13,.cls-5,.cls-7,.cls-9{fill:none;}.cls-5{stroke:#e60000;}.cls-12,.cls-13,.cls-5,.cls-7,.cls-9{stroke-linecap:round;stroke-linejoin:round;}.cls-5,.cls-7{stroke-width:1.228px;}.cls-6{fill:#ff9486;}.cls-7{stroke:#ff5542;}.cls-8{fill:#dba5eb;}.cls-13,.cls-9{stroke:#ff9486;}.cls-10,.cls-12{stroke:#653784;}.cls-10{stroke-miterlimit:10;stroke-width:1.495px;}.cls-11{fill:#b27fc7;}.cls-12{stroke-width:1.118px;}.cls-13{stroke-width:1.075px;}</style></defs><path class="cls-1" d="M36.205,6s-1.659,5.69-5.6,7-7.824.293-8.672-2.265,1.66-5.69,5.6-7S36.205,6,36.205,6Z"/><rect class="cls-2" x="2.029" y="10.059" width="30.092" height="32.683" rx="15.046" transform="translate(-10.172 10.711) rotate(-27.171)"/><path class="cls-3" d="M29.869,18.377a15.1,15.1,0,0,0-17.237-7.664L5.963,18.545l4.554,9.675c3.39-.694,3.671-5.761,3.671-5.761,4.145.089,7.1-5.877,7.1-5.877,2.615,1.434,6.452,1.809,8.634,1.9Z"/><path class="cls-4" d="M22.785,11.618a15.031,15.031,0,0,0-13.173.244h0A15.091,15.091,0,0,0,3.1,32.119l1.183,2.3A14.9,14.9,0,0,0,7.97,39.047C7.976,39.006,7.788,24.664,22.785,11.618Z"/><path class="cls-5" d="M6.777,24.632S11.907,14.5,20.721,10.75"/><path class="cls-5" d="M22.362,10.75c-10.128-.379-16.4,7.8-16.4,7.8"/><circle class="cls-4" cx="21.74" cy="9.704" r="3.07"/><path class="cls-1" d="M22.738,11.09A4.341,4.341,0,0,0,22.682,6.8a3.02,3.02,0,0,0-.377-.11,3.07,3.07,0,0,0-1.724,5.86A3.648,3.648,0,0,0,22.738,11.09Z"/><path class="cls-4" d="M8.607,2.175s.15,5.926,3.627,8.2,7.489,2.283,8.962.027-.15-5.926-3.626-8.2S8.607,2.175,8.607,2.175Z"/><path class="cls-2" d="M61.973,28.4c-.026-.141-.052-.281-.08-.422-.011-.056-.019-.109-.031-.165l0,0A40.322,40.322,0,0,0,57.6,15.965C51.091,4.368,37.224,7.676,35.68,14.3c-1.516,6.507,8.075,12.347,13.148,5.254a24.509,24.509,0,0,0,.217,22.129l-.267.29A24.818,24.818,0,0,0,28.92,39.6c-.494.143-2.589-1.042-3.107-1.206a19.374,19.374,0,0,0-6.939-1.024c-6.485.395-10.309,7.4-8.27,13.192,1.958,5.559,9.1,9.7,15.036,11.389l0,0a4.878,4.878,0,0,0,1.124.29c.082.02.167.044.249.063a20.551,20.551,0,0,0,7,.227C46.4,61.944,67.379,56.132,61.973,28.4Z"/><path class="cls-6" d="M21.945,56.329c1.966-.211,5.159,5.995,5.159,5.995a20.649,20.649,0,0,0,6.9.211c10.353-.494,26.679-4.64,28.634-22.146C60.081,59.253,19.856,56.554,21.945,56.329Z"/><path class="cls-6" d="M36.967,44.366a46.182,46.182,0,0,1,8.8-2.847,1.021,1.021,0,0,0,.861-.715,22.644,22.644,0,0,0-15.571-1.129,6.739,6.739,0,0,0-.094,1.588C31.192,44.743,34.121,45.5,36.967,44.366Z"/><path class="cls-2" d="M36.89,33.843c-.445-.014-.87-.01-1.265.009-2.826.134-4.536,2.221-4.669,4.982-.156,3.257,2.485,4.273,5.249,3.519a43.14,43.14,0,0,1,8.477-1.71c1.354-.071,1.118-1.876.762-2.737C44.218,34.938,40.055,33.941,36.89,33.843Z"/><path class="cls-5" d="M10.755,3.108S16.232,4.972,18.8,9.555"/><path class="cls-5" d="M18.274,5.065c1.376,1.093,2.8,5.731-2,5.021"/><path class="cls-7" d="M30.444,6.3s-4.651.978-6.58,3.737"/><path class="cls-8" d="M28.85,39.6c-.58.053-2.537-1.046-3.037-1.2a16.312,16.312,0,0,0-6.939-1.024C9.8,38.583,8.29,46.659,10.329,52.446c2.111,5.994,7.258,8.515,13.424,9.859a40.842,40.842,0,0,0,11.136.13C25.362,59.161,23.688,43.944,28.85,39.6Z"/><path class="cls-9" d="M54.53,48.9s-4.96-2.552-6.878-11.008"/><polyline class="cls-10" points="22.785 28.252 25.976 26.614 23.101 21.013"/><path class="cls-11" d="M23.753,62.306a40.888,40.888,0,0,0,11.136.129,12.309,12.309,0,0,1-6.751-6.044c-13.552-1.151-17.013-8.4-17.856-12.783a13.1,13.1,0,0,0,.047,8.838C12.44,58.44,17.587,60.961,23.753,62.306Z"/><path class="cls-12" d="M17.075,31.743a6.5,6.5,0,0,0,7.076,2.738"/><path class="cls-12" d="M14.142,32.806s4.2-.332,3.985-4.283"/><path class="cls-6" d="M48.794,19.618a24.6,24.6,0,0,0-2.226,14.526c-.962-7.494,2.755-13.166,5.966-16.982C52.534,17.162,51.585,16.4,48.794,19.618Z"/><path class="cls-6" d="M48.619,19.825c-.14.165-.284.339-.432.525Q48.408,20.1,48.619,19.825Z"/><path class="cls-13" d="M34.8,37.927a7.01,7.01,0,0,0-.963,4.5"/><path class="cls-13" d="M38.081,37.818a7.006,7.006,0,0,0-.962,4.5"/><path class="cls-13" d="M42.006,37.154a7.009,7.009,0,0,0-.962,4.5"/></svg>