<svg id="Layer_1" data-name="Layer 1" xmlns="http://www.w3.org/2000/svg" viewBox="0 0 64 64"><defs><style>.cls-1{fill:#ff5542;}.cls-2{fill:#e60000;}.cls-3{fill:#ffc1ad;}.cls-4{fill:#b27fc7;}.cls-5{fill:#f9f1f9;}.cls-6{fill:#f6cbff;}</style></defs><path class="cls-1" d="M63.306,21.847a17.2,17.2,0,0,0-1.725-7.075A15.523,15.523,0,0,0,47.627,6.114a15.918,15.918,0,0,0-11.158,4.611c-1.156,1.168-1.911,2.912-3.614,3.4a3.512,3.512,0,0,1-2.48-.281c-1.97-.965-3.05-3.267-4.786-4.6-7.037-5.4-17.672-3.292-22.518,3.982-8.384,12.587,4.343,27.683,13.587,35.4,3.907,3.263,9.354,7.057,9.845,12.6A95.6,95.6,0,0,0,46.463,48.7C54.174,42.467,63.57,32.42,63.306,21.847Z"/><path class="cls-2" d="M57.441,24.014a15.474,15.474,0,0,0,3.791-9.906,15.553,15.553,0,0,0-13.6-7.994,15.759,15.759,0,0,0-8.02,2.195,16.76,16.76,0,0,0-2.033,1.427,15.378,15.378,0,0,0-2.569,7.3,6.209,6.209,0,0,1-4.27,5.455,14.326,14.326,0,0,0-6.4,4.369,14,14,0,0,0-3.434,9.1,9.129,9.129,0,0,1-2.176,5.99l-4.136,4.867c.7.639,1.4,1.246,2.073,1.81a63.038,63.038,0,0,1,6.376,5.639L27.3,49.248a9.134,9.134,0,0,1,5.562-3.115,14,14,0,0,0,8.429-4.858,14.323,14.323,0,0,0,3.279-7.026,6.208,6.208,0,0,1,4.694-5.094A15.637,15.637,0,0,0,57.441,24.014Z"/><path class="cls-3" d="M36.551,6.9A15.649,15.649,0,0,0,32.8,15.8a6.209,6.209,0,0,1-4.27,5.455,14.32,14.32,0,0,0-6.4,4.369,14,14,0,0,0-3.435,9.1,9.128,9.128,0,0,1-2.175,5.989L5.952,53.14A5.64,5.64,0,0,0,6.6,61.071h0a5.648,5.648,0,0,0,7.937-.645L25.093,48.005a9.134,9.134,0,0,1,5.562-3.115,14,14,0,0,0,8.429-4.858,14.322,14.322,0,0,0,3.278-7.025,6.21,6.21,0,0,1,4.7-5.095,15.641,15.641,0,0,0,8.176-5.14c5.1-6,5.054-14.423-.1-18.807S41.652.893,36.551,6.9Z"/><path class="cls-4" d="M15.438,41.977,5.952,53.14A5.64,5.64,0,0,0,6.6,61.071h0a5.648,5.648,0,0,0,7.937-.645l9.481-11.157Z"/><rect class="cls-5" x="21.619" y="28.253" width="17.758" height="9.339" rx="2.505" transform="translate(-14.339 34.844) rotate(-49.643)"/><rect class="cls-4" x="26.96" y="30.814" width="2.726" height="9.339" transform="translate(-17.057 34.088) rotate(-49.643)"/><rect class="cls-4" x="31.311" y="25.693" width="2.726" height="9.339" transform="translate(-11.621 35.6) rotate(-49.643)"/><rect class="cls-6" x="1.254" y="31.321" width="14.759" height="3.054" rx="1.527" transform="translate(-3.376 1.078) rotate(-5.981)"/><rect class="cls-6" x="15.887" y="10.635" width="14.759" height="3.054" rx="1.527" transform="translate(32.938 -12.245) rotate(84.019)"/><rect class="cls-6" x="4.002" y="17.768" width="14.759" height="3.054" rx="1.527" transform="translate(14.686 -2.862) rotate(39.019)"/><rect class="cls-6" x="47.151" y="34.046" width="14.759" height="3.054" rx="1.527" transform="translate(109.061 71.145) rotate(180)"/><rect class="cls-6" x="30.442" y="53.094" width="14.759" height="3.054" rx="1.527" transform="translate(-16.799 92.442) rotate(-90)"/><rect class="cls-6" x="42.202" y="47.154" width="14.759" height="3.054" rx="1.527" transform="translate(50.218 118.163) rotate(-135)"/></svg>