<?xml version="1.0" encoding="UTF-8"?>
<svg id="Layer_6" data-name="Layer 6" xmlns="http://www.w3.org/2000/svg" viewBox="0 0 64 64">
  <defs>
    <style>
      .cls-1 {
        fill: #fce4ff;
      }

      .cls-1, .cls-2, .cls-3, .cls-4, .cls-5, .cls-6, .cls-7, .cls-8, .cls-9, .cls-10 {
        stroke-width: 0px;
      }

      .cls-2 {
        fill: #f6cbff;
      }

      .cls-11 {
        stroke-width: .9px;
      }

      .cls-11, .cls-12 {
        fill: none;
        stroke: #ffc1ad;
        stroke-linecap: round;
        stroke-linejoin: round;
      }

      .cls-3 {
        fill: #ff5542;
      }

      .cls-4, .cls-7 {
        fill: #dba5eb;
      }

      .cls-12 {
        stroke-width: .77px;
      }

      .cls-5 {
        fill: #ffc1ad;
      }

      .cls-6 {
        fill: #ff4739;
      }

      .cls-7 {
        opacity: .4;
      }

      .cls-8 {
        fill: #ffb39f;
      }

      .cls-9 {
        fill: #ff9486;
      }

      .cls-10 {
        fill: #b27fc7;
      }
    </style>
  </defs>
  <ellipse class="cls-10" cx="32.78" cy="42.04" rx="28.92" ry="21.12" transform="translate(-4.75 4.19) rotate(-6.81)"/>
  <path class="cls-7" d="M52.34,25.4c-5.63-3.51-13.3-5.27-21.55-4.39-15.88,1.69-27.86,12.47-26.76,24.09.94,9.91,11.09,17.21,23.9,18.1,11.17-5.95,23.36-17.14,24.41-37.8Z"/>
  <path class="cls-3" d="M30.79,21c-15.88,1.69-27.86,12.47-26.76,24.09.06.62.16,1.24.29,1.84,5.42,7.6,16.9,12.13,29.66,10.77,13.41-1.43,24.22-8.92,27.59-18.13-.01-.2-.02-.39-.04-.59-1.1-11.62-14.86-19.66-30.74-17.98Z"/>
  <path class="cls-6" d="M61.57,39.57c-.01-.2-.02-.39-.04-.59-.46-4.83-3.11-9.04-7.19-12.19-7.6,20.13-33.65,21.69-49.66,20.6,5.55,7.32,16.8,11.64,29.3,10.31,13.41-1.43,24.22-8.92,27.59-18.13Z"/>
  <path class="cls-9" d="M34.91,34.79c-10.45.99-18.13,9.36-17.17,18.7.05.5.13.99.23,1.48.32.54.68,1.05,1.06,1.55,4.53,1.28,9.63,1.75,14.95,1.18,8.64-.92,16.18-4.36,21.37-9.15-1.68-8.62-10.51-14.7-20.44-13.76Z"/>
  <path class="cls-5" d="M40.4,56.51s-10.16-3.41-15.24-12.02c-5.07-8.61-10.67-6.23-11.1-2.89,0,0-2.19-10.52-7.15-8.7-3.51,1.29-2.53,5.86-2.53,5.86,0,0-3.2-.28-.07,8.17,0,0,10.46,16.07,36.08,9.59Z"/>
  <g>
    <path class="cls-1" d="M42.21,34.31l10.44-18.04-1.43-.83-10.44,18.04c-3.51-1.56-7.71-.25-9.68,3.15l-3.82,6.6,13.2,7.64,3.82-6.6c1.97-3.4,1.01-7.69-2.09-9.97Z"/>
    <rect class="cls-10" x="52.64" y="2.33" width="5.09" height="15.86" rx="1.58" ry="1.58" transform="translate(12.57 -26.27) rotate(30.07)"/>
    <path class="cls-4" d="M59.77,3.75l-1.45-.84c-.76-.44-1.72-.18-2.16.58l-6.37,10.99c-.3.51-.27,1.12.02,1.6,1.96.26,5.92-.95,9.96-12.33Z"/>
    <path class="cls-2" d="M31.12,45.46l9.36,5.42,3.82-6.6c1.34-2.31,1.32-5.04.2-7.26-2.46,7.72-7.94,9.23-13.38,8.44Z"/>
  </g>
  <g>
    <circle class="cls-10" cx="14.38" cy="8.46" r="5.25"/>
    <circle class="cls-10" cx="7.93" cy="12.15" r="5.25"/>
    <circle class="cls-10" cx="18.07" cy="14.91" r="5.25"/>
    <path class="cls-4" d="M17.57,14.07l-1.56-1.3-2.6,3.13,1.14-4.2-1.96-.53-1.18,4.34-.68-4.18-2.01.33.55,3.39c.12.74.08,1.49-.11,2.22l-1.78,6.55,5.26,1.43,1.82-6.69c.2-.72.54-1.39,1.02-1.97l2.09-2.52Z"/>
  </g>
  <path class="cls-4" d="M58.74,47.65c.68.69,1.38,1.62,1.55,2.58.13.75-.06,1.44-.61,2.18-1.82,2.46-4.65,2.83-6.18,2.83-1.24,0-2.51-.23-3.63-.63,2.48-1.4,6.02-3.74,8.87-6.97M58.49,45.12c-4.56,6.08-12.35,9.38-12.35,9.38,1.67,1.52,4.49,2.54,7.35,2.54s5.74-1.01,7.62-3.56c3.31-4.48-2.62-8.36-2.62-8.36h0Z"/>
  <g>
    <path class="cls-9" d="M35.11,12.13l1.03.92s-3.57,3.88-2.43,5.43,3.58.68,4.38.66,1.57.6,1.9,2.22-.99,5.11-4.46,5.72c-2.72.48-8.58-1.85-7.38-7.63,1.05-5.07,6.96-7.33,6.96-7.33Z"/>
    <path class="cls-3" d="M35.11,12.13s.9-2.49,2.62-2.84,3.96,2.03,3.17,2.91-2.59.3-4.76.85l-1.03-.92Z"/>
    <path class="cls-11" d="M35.37,20.62s-.9,3.37-.19,5.6"/>
    <path class="cls-11" d="M33.21,19.35s-2.72.85-4.13,2.8"/>
    <path class="cls-12" d="M32.93,16.59s-1.16-.44-2.48-.14"/>
  </g>
  <path class="cls-9" d="M43.47,16.44c-.06.17-.09.35-.12.53-.08.46-.41,1.17.16,1.43.43.19.96.11,1.32-.18.53-.43.61-1.28.31-1.87-.31-.61-1.13-.86-1.54-.2-.06.09-.1.19-.14.3Z"/>
  <path class="cls-5" d="M45.51,48.84c-.07.17-.11.35-.15.53-.11.46-.47,1.15.06,1.43.39.21.9.17,1.26-.1.53-.4.66-1.24.42-1.85-.25-.63-1.01-.93-1.43-.3-.06.09-.11.19-.15.29Z"/>
  <path class="cls-9" d="M10.52,43.83c-.08-.11-.17-.2-.27-.3-.24-.24-.54-.74-.91-.48-.28.19-.44.55-.4.9.05.51.52.9.99.96.48.05.94-.36.71-.88-.03-.07-.08-.14-.12-.21Z"/>
  <path class="cls-5" d="M26.8,6.15c-.13.25-.21.54-.21.87,0,.89.95,1.65,1.83,1.48s1.47-1.19,1.23-2.05c-.46-1.6-2.24-1.46-2.85-.3Z"/>
  <path class="cls-9" d="M17.8,48.7c-.12.25-.2.54-.2.87,0,.89.9,1.65,1.73,1.48s1.39-1.19,1.16-2.05c-.44-1.6-2.11-1.46-2.69-.3Z"/>
  <path class="cls-9" d="M21.48,28.36c-.08.16-.13.34-.13.56,0,.57.6,1.05,1.16.94s.94-.76.78-1.3c-.29-1.02-1.42-.93-1.81-.19Z"/>
  <path class="cls-5" d="M50.06,44.63c-.06.09-.09.21-.1.34-.02.35.31.68.65.63s.58-.43.51-.78c-.13-.65-.8-.63-1.06-.19Z"/>
  <path class="cls-8" d="M40.4,56.51s-1.75-.59-4.17-1.89c-14.57,5.03-27.18-4.05-32.18-8.46.09.26.17.5.27.77,0,0,10.46,16.07,36.08,9.59Z"/>
</svg>