<svg id="Layer_1" data-name="Layer 1" xmlns="http://www.w3.org/2000/svg" viewBox="0 0 64 64"><defs><style>.cls-1{fill:#e60000;}.cls-2{fill:#ff5542;}.cls-3{fill:#fce4ff;}.cls-4{fill:#f6cbff;}</style></defs><path class="cls-1" d="M53.5,10.18H10.555a9.3,9.3,0,0,0-9.27,9.27V42.629a9.3,9.3,0,0,0,9.27,9.27H29.56a8.864,8.864,0,0,1,5.633,2.02l8.744,7.2a1.269,1.269,0,0,0,2.074-.979V55.953A4.054,4.054,0,0,1,50.065,51.9H53.5a9.3,9.3,0,0,0,9.27-9.27V19.45A9.3,9.3,0,0,0,53.5,10.18Z"/><path class="cls-2" d="M53.5,6.18H10.555a9.3,9.3,0,0,0-9.27,9.27V38.629a9.3,9.3,0,0,0,9.27,9.27H29.56a8.864,8.864,0,0,1,5.633,2.02l8.744,7.2a1.268,1.268,0,0,0,2.074-.978V51.953A4.054,4.054,0,0,1,50.065,47.9H53.5a9.3,9.3,0,0,0,9.27-9.27V15.45A9.3,9.3,0,0,0,53.5,6.18Z"/><path class="cls-3" d="M35.217,12.7l2.574,5.215a3.216,3.216,0,0,0,2.424,1.761l5.755.837a3.219,3.219,0,0,1,1.784,5.491l-4.164,4.06a3.218,3.218,0,0,0-.926,2.849l.983,5.732a3.22,3.22,0,0,1-4.672,3.394l-5.147-2.706a3.221,3.221,0,0,0-3,0l-5.147,2.706a3.22,3.22,0,0,1-4.672-3.394L22,32.917a3.221,3.221,0,0,0-.926-2.849l-4.165-4.06a3.219,3.219,0,0,1,1.784-5.491l5.756-.837a3.22,3.22,0,0,0,2.424-1.761L29.443,12.7A3.219,3.219,0,0,1,35.217,12.7Z"/><path class="cls-4" d="M25.684,42.043l5.147-2.706a3.221,3.221,0,0,1,3,0l5.147,2.706a3.22,3.22,0,0,0,4.672-3.394l-.983-5.732a3.218,3.218,0,0,1,.926-2.849l4.164-4.06a3.219,3.219,0,0,0-1.784-5.491l-5.755-.837a3.22,3.22,0,0,1-2.425-1.761l-.443-.9c-4.436,11.108-10.794,17.1-16.107,20.3l-.228,1.326A3.22,3.22,0,0,0,25.684,42.043Z"/></svg>