<svg width="161" height="560" viewBox="0 0 161 560" fill="none" xmlns="http://www.w3.org/2000/svg">
<g clip-path="url(#clip0_2167_35354)">
<path d="M102.492 759.316C93.5681 759.316 85.0552 755.721 77.7267 748.827C67.0288 738.766 60.4954 723.157 60.6631 708.094C60.9065 686.447 70.7715 666.507 80.312 647.222C81.7452 644.319 83.1785 641.421 84.5738 638.534C94.1955 618.595 104.206 592.665 96.1425 568.968C91.5561 555.484 81.5343 544.347 71.8424 533.572C60.8849 521.391 49.5488 508.793 45.8548 492.655C38.5426 460.729 64.038 431.091 83.8545 411.568C104.417 391.309 130.016 366.099 128.858 335.719C127.787 307.643 103.26 285.531 79.4304 276.069C58.3808 267.716 35.1515 265.71 12.6902 263.775C7.6333 263.342 2.58183 262.904 -2.44261 262.401C-63.7581 256.254 -107.161 238.483 -135.139 208.066C-153.841 187.737 -164.269 157.796 -162.343 129.936C-160.813 107.721 -151.537 88.5327 -136.22 75.9031C-109.843 54.158 -74.0775 54.8284 -39.4905 55.4934C-7.72127 56.0881 25.1188 56.7153 50.8955 40.1497C75.2551 24.4869 91.3723 -5.78961 98.7764 -49.8474C100.264 -58.6979 101.475 -67.8188 102.638 -76.6368C106.089 -102.691 109.653 -129.632 120.935 -153.777C155.549 -227.868 247.833 -251.371 322.789 -248.657C354.715 -247.5 386.971 -242.872 418.161 -238.4C463.37 -231.918 510.105 -225.208 556.185 -229.101C643.71 -236.497 726.626 -283.448 777.985 -354.689L780.424 -352.927C728.563 -280.982 644.824 -233.572 556.434 -226.106C510.013 -222.181 463.1 -228.912 417.729 -235.421C386.614 -239.882 354.439 -244.499 322.67 -245.65C248.78 -248.294 157.647 -225.262 123.661 -152.507C112.573 -128.777 109.036 -102.069 105.618 -76.2422C104.45 -67.3971 103.238 -58.2546 101.74 -49.3501C94.1847 -4.42178 77.624 26.5414 52.518 42.6799C25.9733 59.743 -7.33186 59.1104 -39.5554 58.4995C-75.1592 57.8182 -108.794 57.1857 -134.306 78.2225C-148.979 90.3223 -157.865 108.759 -159.342 130.136C-161.207 157.201 -151.083 186.277 -132.921 206.028C-105.468 235.872 -62.6927 253.335 -2.14516 259.401C2.86847 259.904 7.90373 260.336 12.9498 260.774C35.6274 262.731 59.0784 264.748 80.5391 273.269C103.466 282.368 130.665 304.156 131.865 335.601C133.071 367.31 106.949 393.034 85.9638 413.709C66.6665 432.724 41.8147 461.524 48.7916 491.979C52.3125 507.355 62.886 519.109 74.0815 531.555C83.9789 542.557 94.2063 553.933 98.9982 567.995C107.414 592.73 97.1593 619.379 87.2889 639.837C85.8881 642.735 84.4548 645.638 83.0108 648.552C73.6163 667.535 63.9082 687.16 63.6756 708.121C63.5188 722.157 69.8466 737.274 79.7928 746.632C87.1483 753.553 95.7801 756.861 104.688 756.223L104.904 759.224C104.098 759.284 103.298 759.311 102.497 759.311L102.492 759.316Z" fill="#84C5AF"/>
</g>
<defs>
<clipPath id="clip0_2167_35354">
<rect width="324" height="559" fill="white" transform="translate(-163 0.289062)"/>
</clipPath>
</defs>
</svg>