<svg width="418" height="536" viewBox="0 0 418 536" fill="none" xmlns="http://www.w3.org/2000/svg">
<g opacity="0.4" clip-path="url(#clip0_2167_34929)">
<g style="mix-blend-mode:overlay">
<path d="M197.478 32.0297C197.58 32.0297 197.663 31.9469 197.663 31.8449C197.663 31.7429 197.58 31.6602 197.478 31.6602C197.376 31.6602 197.293 31.7429 197.293 31.8449C197.293 31.9469 197.376 32.0297 197.478 32.0297Z" fill="white"/>
<path d="M230.321 32.1186C230.473 32.1186 230.596 31.9959 230.596 31.8445C230.596 31.6931 230.473 31.5703 230.321 31.5703C230.17 31.5703 230.047 31.6931 230.047 31.8445C230.047 31.9959 230.17 32.1186 230.321 32.1186Z" fill="white"/>
<path d="M263.157 32.3024C263.407 32.3024 263.61 32.0997 263.61 31.8494C263.61 31.5991 263.407 31.3965 263.157 31.3965C262.906 31.3965 262.703 31.5991 262.703 31.8494C262.703 32.0997 262.906 32.3024 263.157 32.3024Z" fill="white"/>
<path d="M295.998 32.3915C296.303 32.3915 296.547 32.1472 296.547 31.8432C296.547 31.5393 296.303 31.2949 295.998 31.2949C295.694 31.2949 295.449 31.5393 295.449 31.8432C295.449 32.1472 295.694 32.3915 295.998 32.3915Z" fill="white"/>
<path d="M328.834 32.4824C329.186 32.4824 329.472 32.1963 329.472 31.8447C329.472 31.4931 329.186 31.207 328.834 31.207C328.482 31.207 328.195 31.4931 328.195 31.8447C328.195 32.1963 328.482 32.4824 328.834 32.4824Z" fill="white"/>
<path d="M361.674 32.4824C362.026 32.4824 362.312 32.1963 362.312 31.8447C362.312 31.4931 362.026 31.207 361.674 31.207C361.322 31.207 361.035 31.4931 361.035 31.8447C361.035 32.1963 361.322 32.4824 361.674 32.4824Z" fill="white"/>
<path d="M394.517 32.4824C394.87 32.4824 395.156 32.1963 395.156 31.8447C395.156 31.4931 394.87 31.207 394.517 31.207C394.165 31.207 393.879 31.4931 393.879 31.8447C393.879 32.1963 394.165 32.4824 394.517 32.4824Z" fill="white"/>
<path d="M131.805 64.7306C131.853 64.7306 131.895 64.6886 131.895 64.6407C131.895 64.5927 131.853 64.5508 131.805 64.5508C131.757 64.5508 131.715 64.5927 131.715 64.6407C131.715 64.6886 131.757 64.7306 131.805 64.7306Z" fill="white"/>
<path d="M164.646 64.9135C164.795 64.9135 164.92 64.7943 164.92 64.6394C164.92 64.4844 164.801 64.3652 164.646 64.3652C164.49 64.3652 164.371 64.4844 164.371 64.6394C164.371 64.7943 164.496 64.9135 164.646 64.9135Z" fill="white"/>
<path d="M197.483 65.1825C197.787 65.1825 198.032 64.9382 198.032 64.6342C198.032 64.3303 197.787 64.0859 197.483 64.0859C197.178 64.0859 196.934 64.3303 196.934 64.6342C196.934 64.9382 197.178 65.1825 197.483 65.1825Z" fill="white"/>
<path d="M230.322 65.3663C230.722 65.3663 231.05 65.0385 231.05 64.6392C231.05 64.2399 230.722 63.9121 230.322 63.9121C229.922 63.9121 229.594 64.2399 229.594 64.6392C229.594 65.0385 229.922 65.3663 230.322 65.3663Z" fill="white"/>
<path d="M263.157 65.4572C263.611 65.4572 263.975 65.0936 263.975 64.6407C263.975 64.1878 263.611 63.8242 263.157 63.8242C262.704 63.8242 262.34 64.1878 262.34 64.6407C262.34 65.0936 262.704 65.4572 263.157 65.4572Z" fill="white"/>
<path d="M295.999 65.6411C296.554 65.6411 297.001 65.1941 297.001 64.6399C297.001 64.0856 296.554 63.6387 295.999 63.6387C295.444 63.6387 294.996 64.0856 294.996 64.6399C294.996 65.1941 295.444 65.6411 295.999 65.6411Z" fill="white"/>
<path d="M328.834 65.7301C329.437 65.7301 329.926 65.2414 329.926 64.6394C329.926 64.0375 329.437 63.5488 328.834 63.5488C328.232 63.5488 327.742 64.0375 327.742 64.6394C327.742 65.2414 328.232 65.7301 328.834 65.7301Z" fill="white"/>
<path d="M361.674 65.7301C362.277 65.7301 362.766 65.2414 362.766 64.6394C362.766 64.0375 362.277 63.5488 361.674 63.5488C361.071 63.5488 360.582 64.0375 360.582 64.6394C360.582 65.2414 361.071 65.7301 361.674 65.7301Z" fill="white"/>
<path d="M394.518 65.7301C395.121 65.7301 395.61 65.2414 395.61 64.6394C395.61 64.0375 395.121 63.5488 394.518 63.5488C393.915 63.5488 393.426 64.0375 393.426 64.6394C393.426 65.2414 393.915 65.7301 394.518 65.7301Z" fill="white"/>
<path d="M98.961 97.5255C99.0089 97.5255 99.0509 97.4835 99.0509 97.4356C99.0509 97.3876 99.0089 97.3457 98.961 97.3457C98.913 97.3457 98.8711 97.3876 98.8711 97.4356C98.8711 97.4835 98.913 97.5255 98.961 97.5255Z" fill="white"/>
<path d="M131.805 97.7935C132.008 97.7935 132.169 97.6326 132.169 97.4299C132.169 97.2273 132.008 97.0664 131.805 97.0664C131.603 97.0664 131.441 97.2273 131.441 97.4299C131.441 97.6326 131.603 97.7935 131.805 97.7935Z" fill="white"/>
<path d="M164.642 98.0683C164.995 98.0683 165.281 97.7823 165.281 97.4306C165.281 97.079 164.995 96.793 164.642 96.793C164.29 96.793 164.004 97.079 164.004 97.4306C164.004 97.7823 164.29 98.0683 164.642 98.0683Z" fill="white"/>
<path d="M197.479 98.3412C197.981 98.3412 198.393 97.936 198.393 97.4294C198.393 96.9228 197.987 96.5176 197.479 96.5176C196.972 96.5176 196.566 96.9228 196.566 97.4294C196.566 97.936 196.972 98.3412 197.479 98.3412Z" fill="white"/>
<path d="M230.323 98.525C230.925 98.525 231.415 98.0363 231.415 97.4344C231.415 96.8324 230.925 96.3438 230.323 96.3438C229.72 96.3438 229.23 96.8324 229.23 97.4344C229.23 98.0363 229.72 98.525 230.323 98.525Z" fill="white"/>
<path d="M263.156 98.705C263.86 98.705 264.433 98.1329 264.433 97.4297C264.433 96.7264 263.86 96.1543 263.156 96.1543C262.452 96.1543 261.879 96.7264 261.879 97.4297C261.879 98.1329 262.452 98.705 263.156 98.705Z" fill="white"/>
<path d="M295.999 98.794C296.751 98.794 297.366 98.1861 297.366 97.4292C297.366 96.6723 296.757 96.0645 295.999 96.0645C295.242 96.0645 294.633 96.6723 294.633 97.4292C294.633 98.1861 295.242 98.794 295.999 98.794Z" fill="white"/>
<path d="M328.835 98.8888C329.641 98.8888 330.291 98.2392 330.291 97.4346C330.291 96.6301 329.641 95.9805 328.835 95.9805C328.029 95.9805 327.379 96.6301 327.379 97.4346C327.379 98.2392 328.029 98.8888 328.835 98.8888Z" fill="white"/>
<path d="M361.675 98.9777C362.528 98.9777 363.22 98.2864 363.22 97.4342C363.22 96.5819 362.528 95.8906 361.675 95.8906C360.821 95.8906 360.129 96.5819 360.129 97.4342C360.129 98.2864 360.821 98.9777 361.675 98.9777Z" fill="white"/>
<path d="M394.515 98.8888C395.32 98.8888 395.971 98.2392 395.971 97.4346C395.971 96.6301 395.32 95.9805 394.515 95.9805C393.709 95.9805 393.059 96.6301 393.059 97.4346C393.059 98.2392 393.709 98.8888 394.515 98.8888Z" fill="white"/>
<path d="M66.129 130.317C66.1769 130.317 66.2188 130.275 66.2188 130.227C66.2188 130.179 66.1769 130.137 66.129 130.137C66.081 130.137 66.0391 130.179 66.0391 130.227C66.0391 130.275 66.081 130.317 66.129 130.317Z" fill="white"/>
<path d="M98.9617 130.59C99.1646 130.59 99.3257 130.429 99.3257 130.227C99.3257 130.024 99.1646 129.863 98.9617 129.863C98.7588 129.863 98.5977 130.024 98.5977 130.227C98.5977 130.429 98.7588 130.59 98.9617 130.59Z" fill="white"/>
<path d="M131.802 130.952C132.202 130.952 132.53 130.624 132.53 130.225C132.53 129.826 132.202 129.498 131.802 129.498C131.402 129.498 131.074 129.826 131.074 130.225C131.074 130.624 131.402 130.952 131.802 130.952Z" fill="white"/>
<path d="M164.647 131.227C165.202 131.227 165.65 130.78 165.65 130.226C165.65 129.672 165.202 129.225 164.647 129.225C164.092 129.225 163.645 129.672 163.645 130.226C163.645 130.78 164.092 131.227 164.647 131.227Z" fill="white"/>
<path d="M197.48 131.5C198.184 131.5 198.757 130.928 198.757 130.225C198.757 129.521 198.184 128.949 197.48 128.949C196.776 128.949 196.203 129.521 196.203 130.225C196.203 130.928 196.776 131.5 197.48 131.5Z" fill="white"/>
<path d="M230.319 131.68C231.125 131.68 231.776 131.03 231.776 130.226C231.776 129.421 231.125 128.771 230.319 128.771C229.514 128.771 228.863 129.421 228.863 130.226C228.863 131.03 229.514 131.68 230.319 131.68Z" fill="white"/>
<path d="M263.157 131.864C264.064 131.864 264.798 131.131 264.798 130.225C264.798 129.319 264.064 128.586 263.157 128.586C262.25 128.586 261.516 129.319 261.516 130.225C261.516 131.131 262.25 131.864 263.157 131.864Z" fill="white"/>
<path d="M296 132.042C297.005 132.042 297.82 131.228 297.82 130.224C297.82 129.22 297.005 128.406 296 128.406C294.995 128.406 294.18 129.22 294.18 130.224C294.18 131.228 294.995 132.042 296 132.042Z" fill="white"/>
<path d="M328.836 132.133C329.892 132.133 330.745 131.28 330.745 130.225C330.745 129.171 329.892 128.318 328.836 128.318C327.779 128.318 326.926 129.171 326.926 130.225C326.926 131.28 327.779 132.133 328.836 132.133Z" fill="white"/>
<path d="M361.675 132.133C362.732 132.133 363.585 131.28 363.585 130.225C363.585 129.171 362.732 128.318 361.675 128.318C360.619 128.318 359.766 129.171 359.766 130.225C359.766 131.28 360.619 132.133 361.675 132.133Z" fill="white"/>
<path d="M394.519 132.133C395.575 132.133 396.429 131.28 396.429 130.225C396.429 129.171 395.575 128.318 394.519 128.318C393.463 128.318 392.609 129.171 392.609 130.225C392.609 131.28 393.463 132.133 394.519 132.133Z" fill="white"/>
<path d="M66.13 163.29C66.2792 163.29 66.4045 163.171 66.4045 163.016C66.4045 162.861 66.2852 162.742 66.13 162.742C65.9748 162.742 65.8555 162.861 65.8555 163.016C65.8555 163.171 65.9748 163.29 66.13 163.29Z" fill="white"/>
<path d="M98.9628 163.652C99.3149 163.652 99.6014 163.366 99.6014 163.015C99.6014 162.663 99.3149 162.377 98.9628 162.377C98.6107 162.377 98.3242 162.663 98.3242 163.015C98.3242 163.366 98.6107 163.652 98.9628 163.652Z" fill="white"/>
<path d="M131.803 164.016C132.358 164.016 132.806 163.569 132.806 163.015C132.806 162.461 132.358 162.014 131.803 162.014C131.248 162.014 130.801 162.461 130.801 163.015C130.801 163.569 131.248 164.016 131.803 164.016Z" fill="white"/>
<path d="M164.648 164.291C165.352 164.291 165.925 163.719 165.925 163.016C165.925 162.312 165.352 161.74 164.648 161.74C163.944 161.74 163.371 162.312 163.371 163.016C163.371 163.719 163.944 164.291 164.648 164.291Z" fill="white"/>
<path d="M197.479 164.564C198.333 164.564 199.025 163.872 199.025 163.02C199.025 162.168 198.333 161.477 197.479 161.477C196.626 161.477 195.934 162.168 195.934 163.02C195.934 163.872 196.626 164.564 197.479 164.564Z" fill="white"/>
<path d="M230.324 164.839C231.333 164.839 232.144 164.022 232.144 163.021C232.144 162.02 231.327 161.203 230.324 161.203C229.322 161.203 228.504 162.02 228.504 163.021C228.504 164.022 229.322 164.839 230.324 164.839Z" fill="white"/>
<path d="M263.157 165.113C264.315 165.113 265.252 164.178 265.252 163.022C265.252 161.865 264.315 160.93 263.157 160.93C261.999 160.93 261.062 161.865 261.062 163.022C261.062 164.178 261.999 165.113 263.157 165.113Z" fill="white"/>
<path d="M296 165.291C297.256 165.291 298.274 164.275 298.274 163.021C298.274 161.767 297.256 160.75 296 160.75C294.745 160.75 293.727 161.767 293.727 163.021C293.727 164.275 294.745 165.291 296 165.291Z" fill="white"/>
<path d="M328.834 165.38C330.141 165.38 331.203 164.32 331.203 163.014C331.203 161.709 330.141 160.648 328.834 160.648C327.527 160.648 326.465 161.709 326.465 163.014C326.465 164.32 327.527 165.38 328.834 165.38Z" fill="white"/>
<path d="M361.674 165.38C362.981 165.38 364.043 164.32 364.043 163.014C364.043 161.709 362.981 160.648 361.674 160.648C360.367 160.648 359.305 161.709 359.305 163.014C359.305 164.32 360.367 165.38 361.674 165.38Z" fill="white"/>
<path d="M394.518 165.38C395.825 165.38 396.887 164.32 396.887 163.014C396.887 161.709 395.825 160.648 394.518 160.648C393.211 160.648 392.148 161.709 392.148 163.014C392.148 164.32 393.211 165.38 394.518 165.38Z" fill="white"/>
<path d="M33.2866 195.996C33.388 195.996 33.4716 195.913 33.4716 195.812C33.4716 195.71 33.388 195.627 33.2866 195.627C33.1851 195.627 33.1016 195.71 33.1016 195.812C33.1016 195.913 33.1851 195.996 33.2866 195.996Z" fill="white"/>
<path d="M66.1272 196.358C66.4315 196.358 66.6762 196.114 66.6762 195.81C66.6762 195.506 66.4315 195.262 66.1272 195.262C65.8228 195.262 65.5781 195.506 65.5781 195.81C65.5781 196.114 65.8228 196.358 66.1272 196.358Z" fill="white"/>
<path d="M98.9639 196.722C99.4652 196.722 99.877 196.317 99.877 195.81C99.877 195.304 99.4711 194.898 98.9639 194.898C98.4566 194.898 98.0508 195.304 98.0508 195.81C98.0508 196.317 98.4566 196.722 98.9639 196.722Z" fill="white"/>
<path d="M131.804 197.086C132.509 197.086 133.082 196.514 133.082 195.811C133.082 195.107 132.509 194.535 131.804 194.535C131.1 194.535 130.527 195.107 130.527 195.811C130.527 196.514 131.1 197.086 131.804 197.086Z" fill="white"/>
<path d="M164.643 197.361C165.497 197.361 166.189 196.669 166.189 195.817C166.189 194.965 165.497 194.273 164.643 194.273C163.79 194.273 163.098 194.965 163.098 195.817C163.098 196.669 163.79 197.361 164.643 197.361Z" fill="white"/>
<path d="M197.48 197.724C198.536 197.724 199.39 196.872 199.39 195.817C199.39 194.762 198.536 193.91 197.48 193.91C196.424 193.91 195.57 194.762 195.57 195.817C195.57 196.872 196.424 197.724 197.48 197.724Z" fill="white"/>
<path d="M230.321 197.991C231.526 197.991 232.505 197.014 232.505 195.81C232.505 194.606 231.526 193.629 230.321 193.629C229.115 193.629 228.137 194.606 228.137 195.81C228.137 197.014 229.115 197.991 230.321 197.991Z" fill="white"/>
<path d="M263.158 198.266C264.516 198.266 265.617 197.167 265.617 195.811C265.617 194.455 264.516 193.355 263.158 193.355C261.8 193.355 260.699 194.455 260.699 195.811C260.699 197.167 261.8 198.266 263.158 198.266Z" fill="white"/>
<path d="M296.001 198.45C297.457 198.45 298.639 197.27 298.639 195.816C298.639 194.362 297.457 193.176 296.001 193.176C294.545 193.176 293.363 194.356 293.363 195.816C293.363 197.276 294.545 198.45 296.001 198.45Z" fill="white"/>
<path d="M328.835 198.541C330.345 198.541 331.568 197.319 331.568 195.812C331.568 194.304 330.345 193.082 328.835 193.082C327.325 193.082 326.102 194.304 326.102 195.812C326.102 197.319 327.325 198.541 328.835 198.541Z" fill="white"/>
<path d="M361.674 198.63C363.232 198.63 364.497 197.367 364.497 195.811C364.497 194.256 363.232 192.992 361.674 192.992C360.117 192.992 358.852 194.256 358.852 195.811C358.852 197.367 360.117 198.63 361.674 198.63Z" fill="white"/>
<path d="M394.518 198.63C396.076 198.63 397.341 197.367 397.341 195.811C397.341 194.256 396.076 192.992 394.518 192.992C392.961 192.992 391.695 194.256 391.695 195.811C391.695 197.367 392.961 198.63 394.518 198.63Z" fill="white"/>
<path d="M33.2862 228.876C33.4354 228.876 33.5608 228.751 33.5608 228.602C33.5608 228.453 33.4354 228.328 33.2862 228.328C33.137 228.328 33.0117 228.447 33.0117 228.602C33.0117 228.757 33.1311 228.876 33.2862 228.876Z" fill="white"/>
<path d="M66.1265 229.335C66.5264 229.335 66.8546 229.007 66.8546 228.608C66.8546 228.209 66.5264 227.881 66.1265 227.881C65.7267 227.881 65.3984 228.209 65.3984 228.608C65.3984 229.007 65.7267 229.335 66.1265 229.335Z" fill="white"/>
<path d="M98.9632 229.697C99.566 229.697 100.055 229.208 100.055 228.606C100.055 228.004 99.566 227.516 98.9632 227.516C98.3605 227.516 97.8711 228.004 97.8711 228.606C97.8711 229.208 98.3605 229.697 98.9632 229.697Z" fill="white"/>
<path d="M131.804 230.061C132.609 230.061 133.26 229.411 133.26 228.607C133.26 227.802 132.609 227.152 131.804 227.152C130.998 227.152 130.348 227.802 130.348 228.607C130.348 229.411 130.998 230.061 131.804 230.061Z" fill="white"/>
<path d="M164.644 230.424C165.653 230.424 166.465 229.608 166.465 228.607C166.465 227.606 165.647 226.789 164.644 226.789C163.642 226.789 162.824 227.606 162.824 228.607C162.824 229.608 163.642 230.424 164.644 230.424Z" fill="white"/>
<path d="M197.481 230.788C198.687 230.788 199.665 229.811 199.665 228.607C199.665 227.403 198.687 226.426 197.481 226.426C196.276 226.426 195.297 227.403 195.297 228.607C195.297 229.811 196.276 230.788 197.481 230.788Z" fill="white"/>
<path d="M230.322 231.152C231.73 231.152 232.87 230.014 232.87 228.607C232.87 227.201 231.73 226.062 230.322 226.062C228.913 226.062 227.773 227.201 227.773 228.607C227.773 230.014 228.913 231.152 230.322 231.152Z" fill="white"/>
<path d="M263.155 231.427C264.712 231.427 265.978 230.163 265.978 228.608C265.978 227.053 264.712 225.789 263.155 225.789C261.597 225.789 260.332 227.053 260.332 228.608C260.332 230.163 261.597 231.427 263.155 231.427Z" fill="white"/>
<path d="M295.996 231.605C297.655 231.605 299.004 230.264 299.004 228.601C299.004 226.939 297.661 225.598 295.996 225.598C294.331 225.598 292.988 226.939 292.988 228.601C292.988 230.264 294.331 231.605 295.996 231.605Z" fill="white"/>
<path d="M328.835 231.791C330.596 231.791 332.022 230.366 332.022 228.608C332.022 226.85 330.596 225.426 328.835 225.426C327.075 225.426 325.648 226.85 325.648 228.608C325.648 230.366 327.075 231.791 328.835 231.791Z" fill="white"/>
<path d="M361.675 231.88C363.483 231.88 364.951 230.414 364.951 228.608C364.951 226.802 363.483 225.336 361.675 225.336C359.867 225.336 358.398 226.802 358.398 228.608C358.398 230.414 359.867 231.88 361.675 231.88Z" fill="white"/>
<path d="M394.519 231.791C396.279 231.791 397.706 230.366 397.706 228.608C397.706 226.85 396.279 225.426 394.519 225.426C392.758 225.426 391.332 226.85 391.332 228.608C391.332 230.366 392.758 231.791 394.519 231.791Z" fill="white"/>
<path d="M0.449265 261.494C0.497206 261.494 0.539155 261.452 0.539155 261.404C0.539155 261.356 0.497206 261.314 0.449265 261.314C0.401324 261.314 0.359375 261.356 0.359375 261.404C0.359375 261.452 0.401324 261.494 0.449265 261.494Z" fill="white"/>
<path d="M33.2856 261.857C33.5362 261.857 33.7392 261.654 33.7392 261.404C33.7392 261.154 33.5362 260.951 33.2856 260.951C33.0349 260.951 32.832 261.154 32.832 261.404C32.832 261.654 33.0349 261.857 33.2856 261.857Z" fill="white"/>
<path d="M66.1262 262.219C66.5798 262.219 66.9438 261.849 66.9438 261.402C66.9438 260.955 66.5738 260.586 66.1262 260.586C65.6786 260.586 65.3086 260.949 65.3086 261.402C65.3086 261.855 65.6726 262.219 66.1262 262.219Z" fill="white"/>
<path d="M98.9607 262.672C99.6649 262.672 100.238 262.1 100.238 261.396C100.238 260.693 99.6649 260.121 98.9607 260.121C98.2565 260.121 97.6836 260.693 97.6836 261.396C97.6836 262.1 98.2565 262.672 98.9607 262.672Z" fill="white"/>
<path d="M131.805 263.036C132.712 263.036 133.446 262.303 133.446 261.397C133.446 260.491 132.712 259.758 131.805 259.758C130.898 259.758 130.164 260.491 130.164 261.397C130.164 262.303 130.898 263.036 131.805 263.036Z" fill="white"/>
<path d="M164.646 263.488C165.803 263.488 166.74 262.553 166.74 261.397C166.74 260.24 165.803 259.305 164.646 259.305C163.488 259.305 162.551 260.24 162.551 261.397C162.551 262.553 163.488 263.488 164.646 263.488Z" fill="white"/>
<path d="M197.478 263.852C198.839 263.852 199.937 262.756 199.937 261.397C199.937 260.038 198.839 258.941 197.478 258.941C196.118 258.941 195.02 260.038 195.02 261.397C195.02 262.756 196.118 263.852 197.478 263.852Z" fill="white"/>
<path d="M230.323 264.216C231.88 264.216 233.146 262.953 233.146 261.397C233.146 259.842 231.88 258.578 230.323 258.578C228.765 258.578 227.5 259.842 227.5 261.397C227.5 262.953 228.765 264.216 230.323 264.216Z" fill="white"/>
<path d="M263.156 264.491C264.869 264.491 266.253 263.108 266.253 261.398C266.253 259.687 264.869 258.305 263.156 258.305C261.443 258.305 260.059 259.687 260.059 261.398C260.059 263.108 261.443 264.491 263.156 264.491Z" fill="white"/>
<path d="M296.001 264.766C297.863 264.766 299.373 263.258 299.373 261.398C299.373 259.539 297.863 258.031 296.001 258.031C294.139 258.031 292.629 259.539 292.629 261.398C292.629 263.258 294.139 264.766 296.001 264.766Z" fill="white"/>
<path d="M328.836 265.038C330.847 265.038 332.476 263.411 332.476 261.403C332.476 259.395 330.847 257.768 328.836 257.768C326.825 257.768 325.195 259.395 325.195 261.403C325.195 263.411 326.825 265.038 328.836 265.038Z" fill="white"/>
<path d="M361.676 265.038C363.687 265.038 365.316 263.411 365.316 261.403C365.316 259.395 363.687 257.768 361.676 257.768C359.664 257.768 358.035 259.395 358.035 261.403C358.035 263.411 359.664 265.038 361.676 265.038Z" fill="white"/>
<path d="M394.519 265.038C396.531 265.038 398.16 263.411 398.16 261.403C398.16 259.395 396.531 257.768 394.519 257.768C392.508 257.768 390.879 259.395 390.879 261.403C390.879 263.411 392.508 265.038 394.519 265.038Z" fill="white"/>
<path d="M0.45063 294.377C0.552806 294.377 0.635635 294.295 0.635635 294.193C0.635635 294.091 0.552806 294.008 0.45063 294.008C0.348455 294.008 0.265625 294.091 0.265625 294.193C0.265625 294.295 0.348455 294.377 0.45063 294.377Z" fill="white"/>
<path d="M33.2873 294.735C33.5917 294.735 33.8364 294.491 33.8364 294.187C33.8364 293.883 33.5917 293.639 33.2873 293.639C32.983 293.639 32.7383 293.883 32.7383 294.187C32.7383 294.491 32.983 294.735 33.2873 294.735Z" fill="white"/>
<path d="M66.1276 295.194C66.6826 295.194 67.1302 294.747 67.1302 294.193C67.1302 293.638 66.6826 293.191 66.1276 293.191C65.5726 293.191 65.125 293.638 65.125 294.193C65.125 294.747 65.5726 295.194 66.1276 295.194Z" fill="white"/>
<path d="M98.9643 295.558C99.7191 295.558 100.331 294.947 100.331 294.193C100.331 293.439 99.7191 292.828 98.9643 292.828C98.2095 292.828 97.5977 293.439 97.5977 294.193C97.5977 294.947 98.2095 295.558 98.9643 295.558Z" fill="white"/>
<path d="M131.805 296.01C132.813 296.01 133.625 295.194 133.625 294.193C133.625 293.191 132.807 292.375 131.805 292.375C130.802 292.375 129.984 293.191 129.984 294.193C129.984 295.194 130.802 296.01 131.805 296.01Z" fill="white"/>
<path d="M164.645 296.463C165.901 296.463 166.919 295.447 166.919 294.193C166.919 292.938 165.901 291.922 164.645 291.922C163.389 291.922 162.371 292.938 162.371 294.193C162.371 295.447 163.389 296.463 164.645 296.463Z" fill="white"/>
<path d="M197.482 296.827C198.938 296.827 200.125 295.647 200.125 294.193C200.125 292.739 198.944 291.559 197.482 291.559C196.019 291.559 194.844 292.739 194.844 294.193C194.844 295.647 196.025 296.827 197.482 296.827Z" fill="white"/>
<path d="M230.32 297.197C231.982 297.197 233.328 295.852 233.328 294.193C233.328 292.534 231.982 291.189 230.32 291.189C228.659 291.189 227.312 292.534 227.312 294.193C227.312 295.852 228.659 297.197 230.32 297.197Z" fill="white"/>
<path d="M263.157 297.555C265.019 297.555 266.529 296.047 266.529 294.188C266.529 292.328 265.019 290.82 263.157 290.82C261.295 290.82 259.785 292.328 259.785 294.188C259.785 296.047 261.295 297.555 263.157 297.555Z" fill="white"/>
<path d="M295.998 297.919C298.057 297.919 299.734 296.25 299.734 294.188C299.734 292.126 298.063 290.457 295.998 290.457C293.933 290.457 292.262 292.126 292.262 294.188C292.262 296.25 293.933 297.919 295.998 297.919Z" fill="white"/>
<path d="M328.833 298.193C331.047 298.193 332.837 296.399 332.837 294.194C332.837 291.989 331.041 290.195 328.833 290.195C326.624 290.195 324.828 291.989 324.828 294.194C324.828 296.399 326.624 298.193 328.833 298.193Z" fill="white"/>
<path d="M361.674 298.288C363.939 298.288 365.774 296.455 365.774 294.194C365.774 291.933 363.939 290.1 361.674 290.1C359.41 290.1 357.574 291.933 357.574 294.194C357.574 296.455 359.41 298.288 361.674 298.288Z" fill="white"/>
<path d="M394.516 298.193C396.728 298.193 398.521 296.403 398.521 294.194C398.521 291.986 396.728 290.195 394.516 290.195C392.305 290.195 390.512 291.986 390.512 294.194C390.512 296.403 392.305 298.193 394.516 298.193Z" fill="white"/>
<path d="M0.45063 327.168C0.552085 327.168 0.635635 327.085 0.635635 326.984C0.635635 326.882 0.552085 326.799 0.45063 326.799C0.349176 326.799 0.265625 326.882 0.265625 326.984C0.265625 327.085 0.349176 327.168 0.45063 327.168Z" fill="white"/>
<path d="M33.287 327.621C33.6391 327.621 33.9256 327.335 33.9256 326.983C33.9256 326.632 33.6391 326.346 33.287 326.346C32.9349 326.346 32.6484 326.632 32.6484 326.983C32.6484 327.335 32.9349 327.621 33.287 327.621Z" fill="white"/>
<path d="M66.1273 328.074C66.73 328.074 67.2194 327.585 67.2194 326.983C67.2194 326.381 66.73 325.893 66.1273 325.893C65.5245 325.893 65.0352 326.381 65.0352 326.983C65.0352 327.585 65.5245 328.074 66.1273 328.074Z" fill="white"/>
<path d="M98.964 328.438C99.7697 328.438 100.42 327.788 100.42 326.983C100.42 326.179 99.7697 325.529 98.964 325.529C98.1583 325.529 97.5078 326.179 97.5078 326.983C97.5078 327.788 98.1583 328.438 98.964 328.438Z" fill="white"/>
<path d="M131.804 328.896C132.861 328.896 133.714 328.044 133.714 326.989C133.714 325.934 132.861 325.082 131.804 325.082C130.748 325.082 129.895 325.934 129.895 326.989C129.895 328.044 130.748 328.896 131.804 328.896Z" fill="white"/>
<path d="M164.647 329.349C165.954 329.349 167.016 328.288 167.016 326.983C167.016 325.678 165.954 324.617 164.647 324.617C163.34 324.617 162.277 325.678 162.277 326.983C162.277 328.288 163.34 329.349 164.647 329.349Z" fill="white"/>
<path d="M197.479 329.713C198.989 329.713 200.213 328.491 200.213 326.983C200.213 325.476 198.989 324.254 197.479 324.254C195.97 324.254 194.746 325.476 194.746 326.983C194.746 328.491 195.97 329.713 197.479 329.713Z" fill="white"/>
<path d="M230.324 330.166C232.084 330.166 233.51 328.741 233.51 326.983C233.51 325.225 232.084 323.801 230.324 323.801C228.563 323.801 227.137 325.225 227.137 326.983C227.137 328.741 228.563 330.166 230.324 330.166Z" fill="white"/>
<path d="M263.16 330.624C265.171 330.624 266.8 328.997 266.8 326.989C266.8 324.98 265.171 323.354 263.16 323.354C261.149 323.354 259.52 324.98 259.52 326.989C259.52 328.997 261.149 330.624 263.16 330.624Z" fill="white"/>
<path d="M296.001 330.988C298.215 330.988 300.005 329.194 300.005 326.989C300.005 324.784 298.209 322.99 296.001 322.99C293.792 322.99 291.996 324.784 291.996 326.989C291.996 329.194 293.792 330.988 296.001 330.988Z" fill="white"/>
<path d="M328.833 331.352C331.25 331.352 333.202 329.397 333.202 326.989C333.202 324.582 331.244 322.627 328.833 322.627C326.422 322.627 324.465 324.582 324.465 326.989C324.465 329.397 326.422 331.352 328.833 331.352Z" fill="white"/>
<path d="M361.675 331.532C364.189 331.532 366.228 329.496 366.228 326.985C366.228 324.473 364.189 322.438 361.675 322.438C359.16 322.438 357.121 324.473 357.121 326.985C357.121 329.496 359.16 331.532 361.675 331.532Z" fill="white"/>
<path d="M395.515 331.232C397.864 330.68 399.32 328.332 398.767 325.987C398.214 323.641 395.863 322.187 393.514 322.739C391.166 323.291 389.71 325.64 390.262 327.985C390.815 330.33 393.167 331.784 395.515 331.232Z" fill="white"/>
<path d="M0.450305 360.052C0.599503 360.052 0.724829 359.933 0.724829 359.778C0.724829 359.623 0.605471 359.504 0.450305 359.504C0.295139 359.504 0.175781 359.629 0.175781 359.778C0.175781 359.927 0.295139 360.052 0.450305 360.052Z" fill="white"/>
<path d="M33.287 360.416C33.6391 360.416 33.9256 360.13 33.9256 359.778C33.9256 359.427 33.6391 359.141 33.287 359.141C32.9349 359.141 32.6484 359.427 32.6484 359.778C32.6484 360.13 32.9349 360.416 33.287 360.416Z" fill="white"/>
<path d="M66.1273 360.871C66.73 360.871 67.2194 360.382 67.2194 359.78C67.2194 359.178 66.73 358.689 66.1273 358.689C65.5245 358.689 65.0352 359.178 65.0352 359.78C65.0352 360.382 65.5245 360.871 66.1273 360.871Z" fill="white"/>
<path d="M98.9637 361.321C99.8171 361.321 100.509 360.63 100.509 359.778C100.509 358.926 99.8171 358.234 98.9637 358.234C98.1102 358.234 97.418 358.926 97.418 359.778C97.418 360.63 98.1102 361.321 98.9637 361.321Z" fill="white"/>
<path d="M131.804 361.685C132.861 361.685 133.714 360.833 133.714 359.778C133.714 358.723 132.861 357.871 131.804 357.871C130.748 357.871 129.895 358.723 129.895 359.778C129.895 360.833 130.748 361.685 131.804 361.685Z" fill="white"/>
<path d="M164.647 362.146C165.954 362.146 167.016 361.085 167.016 359.78C167.016 358.475 165.954 357.414 164.647 357.414C163.34 357.414 162.277 358.475 162.277 359.78C162.277 361.085 163.34 362.146 164.647 362.146Z" fill="white"/>
<path d="M197.483 362.599C199.041 362.599 200.306 361.335 200.306 359.78C200.306 358.224 199.041 356.961 197.483 356.961C195.925 356.961 194.66 358.224 194.66 359.78C194.66 361.335 195.925 362.599 197.483 362.599Z" fill="white"/>
<path d="M230.319 363.051C232.128 363.051 233.596 361.585 233.596 359.78C233.596 357.974 232.128 356.508 230.319 356.508C228.511 356.508 227.043 357.974 227.043 359.78C227.043 361.585 228.511 363.051 230.319 363.051Z" fill="white"/>
<path d="M263.16 363.415C265.171 363.415 266.8 361.788 266.8 359.78C266.8 357.772 265.171 356.145 263.16 356.145C261.149 356.145 259.52 357.772 259.52 359.78C259.52 361.788 261.149 363.415 263.16 363.415Z" fill="white"/>
<path d="M295.998 363.874C298.26 363.874 300.098 362.044 300.098 359.78C300.098 357.515 298.266 355.686 295.998 355.686C293.731 355.686 291.898 357.515 291.898 359.78C291.898 362.044 293.731 363.874 295.998 363.874Z" fill="white"/>
<path d="M328.835 364.327C331.347 364.327 333.388 362.289 333.388 359.78C333.388 357.271 331.347 355.232 328.835 355.232C326.322 355.232 324.281 357.271 324.281 359.78C324.281 362.289 326.322 364.327 328.835 364.327Z" fill="white"/>
<path d="M361.676 364.6C364.343 364.6 366.504 362.442 366.504 359.778C366.504 357.114 364.343 354.957 361.676 354.957C359.008 354.957 356.848 357.114 356.848 359.778C356.848 362.442 359.008 364.6 361.676 364.6Z" fill="white"/>
<path d="M394.518 364.327C397.033 364.327 399.072 362.291 399.072 359.78C399.072 357.268 397.033 355.232 394.518 355.232C392.004 355.232 389.965 357.268 389.965 359.78C389.965 362.291 392.004 364.327 394.518 364.327Z" fill="white"/>
<path d="M0.45063 392.754C0.552806 392.754 0.635635 392.672 0.635635 392.57C0.635635 392.467 0.552806 392.385 0.45063 392.385C0.348455 392.385 0.265625 392.467 0.265625 392.57C0.265625 392.672 0.348455 392.754 0.45063 392.754Z" fill="white"/>
<path d="M33.287 393.207C33.6391 393.207 33.9256 392.921 33.9256 392.569C33.9256 392.218 33.6391 391.932 33.287 391.932C32.9349 391.932 32.6484 392.218 32.6484 392.569C32.6484 392.921 32.9349 393.207 33.287 393.207Z" fill="white"/>
<path d="M66.1273 393.666C66.73 393.666 67.2194 393.177 67.2194 392.575C67.2194 391.973 66.73 391.484 66.1273 391.484C65.5245 391.484 65.0352 391.973 65.0352 392.575C65.0352 393.177 65.5245 393.666 66.1273 393.666Z" fill="white"/>
<path d="M98.964 394.029C99.7697 394.029 100.42 393.38 100.42 392.575C100.42 391.771 99.7697 391.121 98.964 391.121C98.1583 391.121 97.5078 391.771 97.5078 392.575C97.5078 393.38 98.1583 394.029 98.964 394.029Z" fill="white"/>
<path d="M131.804 394.482C132.861 394.482 133.714 393.63 133.714 392.575C133.714 391.52 132.861 390.668 131.804 390.668C130.748 390.668 129.895 391.52 129.895 392.575C129.895 393.63 130.748 394.482 131.804 394.482Z" fill="white"/>
<path d="M164.647 394.935C165.954 394.935 167.016 393.874 167.016 392.569C167.016 391.264 165.954 390.203 164.647 390.203C163.34 390.203 162.277 391.264 162.277 392.569C162.277 393.874 163.34 394.935 164.647 394.935Z" fill="white"/>
<path d="M197.483 395.394C199.041 395.394 200.306 394.13 200.306 392.575C200.306 391.019 199.041 389.756 197.483 389.756C195.925 389.756 194.66 391.019 194.66 392.575C194.66 394.13 195.925 395.394 197.483 395.394Z" fill="white"/>
<path d="M230.324 395.757C232.084 395.757 233.51 394.333 233.51 392.575C233.51 390.817 232.084 389.393 230.324 389.393C228.563 389.393 227.137 390.817 227.137 392.575C227.137 394.333 228.563 395.757 230.324 395.757Z" fill="white"/>
<path d="M263.16 396.21C265.171 396.21 266.8 394.583 266.8 392.575C266.8 390.566 265.171 388.939 263.16 388.939C261.149 388.939 259.52 390.566 259.52 392.575C259.52 394.583 261.149 396.21 263.16 396.21Z" fill="white"/>
<path d="M296.001 396.574C298.215 396.574 300.005 394.78 300.005 392.575C300.005 390.37 298.209 388.576 296.001 388.576C293.792 388.576 291.996 390.37 291.996 392.575C291.996 394.78 293.792 396.574 296.001 396.574Z" fill="white"/>
<path d="M328.833 396.938C331.25 396.938 333.202 394.983 333.202 392.575C333.202 390.168 331.244 388.213 328.833 388.213C326.422 388.213 324.465 390.168 324.465 392.575C324.465 394.983 326.422 396.938 328.833 396.938Z" fill="white"/>
<path d="M361.675 397.118C364.189 397.118 366.228 395.082 366.228 392.571C366.228 390.059 364.189 388.023 361.675 388.023C359.16 388.023 357.121 390.059 357.121 392.571C357.121 395.082 359.16 397.118 361.675 397.118Z" fill="white"/>
<path d="M397.599 395.655C399.305 393.951 399.305 391.189 397.599 389.486C395.893 387.782 393.127 387.782 391.421 389.486C389.715 391.189 389.715 393.951 391.421 395.655C393.127 397.359 395.893 397.359 397.599 395.655Z" fill="white"/>
<path d="M0.45063 425.549C0.552085 425.549 0.635635 425.466 0.635635 425.364C0.635635 425.263 0.552085 425.18 0.45063 425.18C0.349176 425.18 0.265625 425.263 0.265625 425.364C0.265625 425.466 0.349176 425.549 0.45063 425.549Z" fill="white"/>
<path d="M33.2873 425.913C33.5917 425.913 33.8364 425.669 33.8364 425.365C33.8364 425.061 33.5917 424.816 33.2873 424.816C32.983 424.816 32.7383 425.061 32.7383 425.365C32.7383 425.669 32.983 425.913 33.2873 425.913Z" fill="white"/>
<path d="M66.1276 426.366C66.6826 426.366 67.1302 425.919 67.1302 425.364C67.1302 424.81 66.6826 424.363 66.1276 424.363C65.5726 424.363 65.125 424.81 65.125 425.364C65.125 425.919 65.5726 426.366 66.1276 426.366Z" fill="white"/>
<path d="M98.964 426.818C99.7697 426.818 100.42 426.169 100.42 425.364C100.42 424.56 99.7697 423.91 98.964 423.91C98.1583 423.91 97.5078 424.56 97.5078 425.364C97.5078 426.169 98.1583 426.818 98.964 426.818Z" fill="white"/>
<path d="M131.805 427.182C132.813 427.182 133.625 426.366 133.625 425.365C133.625 424.363 132.807 423.547 131.805 423.547C130.802 423.547 129.984 424.363 129.984 425.365C129.984 426.366 130.802 427.182 131.805 427.182Z" fill="white"/>
<path d="M164.645 427.635C165.901 427.635 166.919 426.618 166.919 425.364C166.919 424.11 165.901 423.094 164.645 423.094C163.389 423.094 162.371 424.11 162.371 425.364C162.371 426.618 163.389 427.635 164.645 427.635Z" fill="white"/>
<path d="M197.482 428.007C198.938 428.007 200.125 426.827 200.125 425.372C200.125 423.918 198.944 422.738 197.482 422.738C196.019 422.738 194.844 423.918 194.844 425.372C194.844 426.827 196.025 428.007 197.482 428.007Z" fill="white"/>
<path d="M230.32 428.46C232.033 428.46 233.417 427.077 233.417 425.366C233.417 423.656 232.033 422.273 230.32 422.273C228.607 422.273 227.223 423.656 227.223 425.366C227.223 427.077 228.607 428.46 230.32 428.46Z" fill="white"/>
<path d="M263.157 428.821C265.066 428.821 266.618 427.272 266.618 425.365C266.618 423.458 265.066 421.908 263.157 421.908C261.247 421.908 259.695 423.458 259.695 425.365C259.695 427.272 261.247 428.821 263.157 428.821Z" fill="white"/>
<path d="M295.998 429.096C298.057 429.096 299.734 427.428 299.734 425.365C299.734 423.303 298.063 421.635 295.998 421.635C293.933 421.635 292.262 423.303 292.262 425.365C292.262 427.428 293.933 429.096 295.998 429.096Z" fill="white"/>
<path d="M328.833 429.365C331.047 429.365 332.837 427.571 332.837 425.366C332.837 423.161 331.041 421.367 328.833 421.367C326.624 421.367 324.828 423.161 324.828 425.366C324.828 427.571 326.624 429.365 328.833 429.365Z" fill="white"/>
<path d="M361.674 429.549C363.989 429.549 365.863 427.678 365.863 425.365C365.863 423.053 363.989 421.182 361.674 421.182C359.358 421.182 357.484 423.053 357.484 425.365C357.484 427.678 359.358 429.549 361.674 429.549Z" fill="white"/>
<path d="M394.518 429.46C396.782 429.46 398.618 427.627 398.618 425.366C398.618 423.105 396.782 421.271 394.518 421.271C392.254 421.271 390.418 423.105 390.418 425.366C390.418 427.627 392.254 429.46 394.518 429.46Z" fill="white"/>
<path d="M0.449265 458.252C0.497206 458.252 0.539155 458.21 0.539155 458.162C0.539155 458.114 0.497206 458.072 0.449265 458.072C0.401324 458.072 0.359375 458.114 0.359375 458.162C0.359375 458.21 0.401324 458.252 0.449265 458.252Z" fill="white"/>
<path d="M33.2856 458.613C33.5362 458.613 33.7392 458.41 33.7392 458.16C33.7392 457.91 33.5362 457.707 33.2856 457.707C33.0349 457.707 32.832 457.91 32.832 458.16C32.832 458.41 33.0349 458.613 33.2856 458.613Z" fill="white"/>
<path d="M66.1279 459.066C66.6292 459.066 67.041 458.661 67.041 458.154C67.041 457.647 66.6352 457.242 66.1279 457.242C65.6207 457.242 65.2148 457.647 65.2148 458.154C65.2148 458.661 65.6207 459.066 66.1279 459.066Z" fill="white"/>
<path d="M98.9607 459.43C99.6649 459.43 100.238 458.858 100.238 458.154C100.238 457.451 99.6649 456.879 98.9607 456.879C98.2565 456.879 97.6836 457.451 97.6836 458.154C97.6836 458.858 98.2565 459.43 98.9607 459.43Z" fill="white"/>
<path d="M131.805 459.89C132.76 459.89 133.536 459.115 133.536 458.162C133.536 457.208 132.76 456.434 131.805 456.434C130.85 456.434 130.074 457.208 130.074 458.162C130.074 459.115 130.85 459.89 131.805 459.89Z" fill="white"/>
<path d="M164.646 460.254C165.803 460.254 166.74 459.318 166.74 458.162C166.74 457.006 165.803 456.07 164.646 456.07C163.488 456.07 162.551 457.006 162.551 458.162C162.551 459.318 163.488 460.254 164.646 460.254Z" fill="white"/>
<path d="M197.478 460.618C198.836 460.618 199.937 459.518 199.937 458.162C199.937 456.806 198.836 455.707 197.478 455.707C196.12 455.707 195.02 456.806 195.02 458.162C195.02 459.518 196.12 460.618 197.478 460.618Z" fill="white"/>
<path d="M230.323 460.98C231.88 460.98 233.146 459.716 233.146 458.161C233.146 456.605 231.88 455.342 230.323 455.342C228.765 455.342 227.5 456.605 227.5 458.161C227.5 459.716 228.765 460.98 230.323 460.98Z" fill="white"/>
<path d="M263.16 461.343C264.92 461.343 266.346 459.919 266.346 458.161C266.346 456.403 264.92 454.979 263.16 454.979C261.399 454.979 259.973 456.403 259.973 458.161C259.973 459.919 261.399 461.343 263.16 461.343Z" fill="white"/>
<path d="M295.997 461.612C297.906 461.612 299.458 460.063 299.458 458.156C299.458 456.249 297.906 454.699 295.997 454.699C294.087 454.699 292.535 456.249 292.535 458.156C292.535 460.063 294.087 461.612 295.997 461.612Z" fill="white"/>
<path d="M328.836 461.796C330.847 461.796 332.476 460.169 332.476 458.161C332.476 456.152 330.847 454.525 328.836 454.525C326.825 454.525 325.195 456.152 325.195 458.161C325.195 460.169 326.825 461.796 328.836 461.796Z" fill="white"/>
<path d="M361.677 461.887C363.742 461.887 365.413 460.219 365.413 458.157C365.413 456.094 363.742 454.426 361.677 454.426C359.612 454.426 357.941 456.094 357.941 458.157C357.941 460.219 359.612 461.887 361.677 461.887Z" fill="white"/>
<path d="M394.519 461.796C396.531 461.796 398.16 460.169 398.16 458.161C398.16 456.152 396.531 454.525 394.519 454.525C392.508 454.525 390.879 456.152 390.879 458.161C390.879 460.169 392.508 461.796 394.519 461.796Z" fill="white"/>
<path d="M33.2859 491.315C33.4888 491.315 33.65 491.154 33.65 490.951C33.65 490.749 33.4888 490.588 33.2859 490.588C33.083 490.588 32.9219 490.749 32.9219 490.951C32.9219 491.154 33.083 491.315 33.2859 491.315Z" fill="white"/>
<path d="M66.1265 491.679C66.5264 491.679 66.8546 491.351 66.8546 490.952C66.8546 490.552 66.5264 490.225 66.1265 490.225C65.7267 490.225 65.3984 490.552 65.3984 490.952C65.3984 491.351 65.7267 491.679 66.1265 491.679Z" fill="white"/>
<path d="M98.9632 492.041C99.566 492.041 100.055 491.552 100.055 490.95C100.055 490.348 99.566 489.859 98.9632 489.859C98.3605 489.859 97.8711 490.348 97.8711 490.95C97.8711 491.552 98.3605 492.041 98.9632 492.041Z" fill="white"/>
<path d="M131.803 492.501C132.657 492.501 133.349 491.81 133.349 490.958C133.349 490.105 132.657 489.414 131.803 489.414C130.95 489.414 130.258 490.105 130.258 490.958C130.258 491.81 130.95 492.501 131.803 492.501Z" fill="white"/>
<path d="M164.644 492.865C165.7 492.865 166.554 492.013 166.554 490.958C166.554 489.903 165.7 489.051 164.644 489.051C163.588 489.051 162.734 489.903 162.734 490.958C162.734 492.013 163.588 492.865 164.644 492.865Z" fill="white"/>
<path d="M197.481 493.132C198.687 493.132 199.665 492.155 199.665 490.951C199.665 489.747 198.687 488.77 197.481 488.77C196.276 488.77 195.297 489.747 195.297 490.951C195.297 492.155 196.276 493.132 197.481 493.132Z" fill="white"/>
<path d="M230.322 493.496C231.73 493.496 232.87 492.358 232.87 490.951C232.87 489.545 231.73 488.406 230.322 488.406C228.913 488.406 227.773 489.545 227.773 490.951C227.773 492.358 228.913 493.496 230.322 493.496Z" fill="white"/>
<path d="M263.155 493.771C264.712 493.771 265.978 492.507 265.978 490.952C265.978 489.396 264.712 488.133 263.155 488.133C261.597 488.133 260.332 489.396 260.332 490.952C260.332 492.507 261.597 493.771 263.155 493.771Z" fill="white"/>
<path d="M296 494.045C297.712 494.045 299.097 492.663 299.097 490.952C299.097 489.242 297.712 487.859 296 487.859C294.287 487.859 292.902 489.242 292.902 490.952C292.902 492.663 294.287 494.045 296 494.045Z" fill="white"/>
<path d="M328.835 494.223C330.643 494.223 332.111 492.757 332.111 490.952C332.111 489.146 330.643 487.68 328.835 487.68C327.027 487.68 325.559 489.146 325.559 490.952C325.559 492.757 327.027 494.223 328.835 494.223Z" fill="white"/>
<path d="M361.675 494.223C363.483 494.223 364.951 492.757 364.951 490.952C364.951 489.146 363.483 487.68 361.675 487.68C359.867 487.68 358.398 489.146 358.398 490.952C358.398 492.757 359.867 494.223 361.675 494.223Z" fill="white"/>
<path d="M394.519 494.223C396.327 494.223 397.795 492.757 397.795 490.952C397.795 489.146 396.327 487.68 394.519 487.68C392.71 487.68 391.242 489.146 391.242 490.952C391.242 492.757 392.71 494.223 394.519 494.223Z" fill="white"/>
<path d="M33.2866 523.926C33.388 523.926 33.4716 523.843 33.4716 523.741C33.4716 523.64 33.388 523.557 33.2866 523.557C33.1851 523.557 33.1016 523.64 33.1016 523.741C33.1016 523.843 33.1851 523.926 33.2866 523.926Z" fill="white"/>
<path d="M66.1272 524.29C66.4315 524.29 66.6762 524.046 66.6762 523.742C66.6762 523.438 66.4315 523.193 66.1272 523.193C65.8228 523.193 65.5781 523.438 65.5781 523.742C65.5781 524.046 65.8228 524.29 66.1272 524.29Z" fill="white"/>
<path d="M98.9639 524.652C99.4652 524.652 99.877 524.247 99.877 523.74C99.877 523.233 99.4711 522.828 98.9639 522.828C98.4566 522.828 98.0508 523.233 98.0508 523.74C98.0508 524.247 98.4566 524.652 98.9639 524.652Z" fill="white"/>
<path d="M131.804 525.016C132.509 525.016 133.082 524.443 133.082 523.74C133.082 523.037 132.509 522.465 131.804 522.465C131.1 522.465 130.527 523.037 130.527 523.74C130.527 524.443 131.1 525.016 131.804 525.016Z" fill="white"/>
<path d="M164.645 525.379C165.552 525.379 166.286 524.646 166.286 523.74C166.286 522.835 165.552 522.102 164.645 522.102C163.738 522.102 163.004 522.835 163.004 523.74C163.004 524.646 163.738 525.379 164.645 525.379Z" fill="white"/>
<path d="M197.48 525.654C198.536 525.654 199.39 524.802 199.39 523.747C199.39 522.692 198.536 521.84 197.48 521.84C196.424 521.84 195.57 522.692 195.57 523.747C195.57 524.802 196.424 525.654 197.48 525.654Z" fill="white"/>
<path d="M230.325 526.018C231.58 526.018 232.598 525.001 232.598 523.747C232.598 522.493 231.58 521.477 230.325 521.477C229.069 521.477 228.051 522.493 228.051 523.747C228.051 525.001 229.069 526.018 230.325 526.018Z" fill="white"/>
<path d="M263.158 526.204C264.513 526.204 265.617 525.107 265.617 523.748C265.617 522.39 264.519 521.293 263.158 521.293C261.797 521.293 260.699 522.39 260.699 523.748C260.699 525.107 261.797 526.204 263.158 526.204Z" fill="white"/>
<path d="M296.001 526.382C297.457 526.382 298.639 525.202 298.639 523.742C298.639 522.281 297.457 521.107 296.001 521.107C294.545 521.107 293.363 522.287 293.363 523.742C293.363 525.196 294.545 526.382 296.001 526.382Z" fill="white"/>
<path d="M328.835 526.567C330.392 526.567 331.657 525.304 331.657 523.749C331.657 522.193 330.392 520.93 328.835 520.93C327.277 520.93 326.012 522.193 326.012 523.749C326.012 525.304 327.277 526.567 328.835 526.567Z" fill="white"/>
<path d="M361.674 526.567C363.232 526.567 364.497 525.304 364.497 523.749C364.497 522.193 363.232 520.93 361.674 520.93C360.117 520.93 358.852 522.193 358.852 523.749C358.852 525.304 360.117 526.567 361.674 526.567Z" fill="white"/>
<path d="M394.518 526.567C396.076 526.567 397.341 525.304 397.341 523.749C397.341 522.193 396.076 520.93 394.518 520.93C392.961 520.93 391.695 522.193 391.695 523.749C391.695 525.304 392.961 526.567 394.518 526.567Z" fill="white"/>
</g>
</g>
<defs>
<clipPath id="clip0_2167_34929">
<rect width="723" height="535" fill="white" transform="translate(0.5 0.693359)"/>
</clipPath>
</defs>
</svg>