<svg width="170" height="391" viewBox="0 0 170 391" fill="none" xmlns="http://www.w3.org/2000/svg">
<g clip-path="url(#clip0_3701_24606)">
<mask id="mask0_3701_24606" style="mask-type:luminance" maskUnits="userSpaceOnUse" x="-74" y="263" width="232" height="233">
<path d="M42.153 495.168C105.992 495.168 157.743 443.417 157.743 379.578C157.743 315.74 105.992 263.988 42.153 263.988C-21.6856 263.988 -73.437 315.74 -73.437 379.578C-73.437 443.417 -21.6856 495.168 42.153 495.168Z" fill="white"/>
</mask>
<g mask="url(#mask0_3701_24606)">
<path d="M38.5103 173.41L-167.449 379.369L-167.039 379.779L38.9204 173.82L38.5103 173.41Z" fill="#FFD798"/>
<path d="M45.7837 178.561L-160.175 384.52L-159.765 384.93L46.1938 178.971L45.7837 178.561Z" fill="#FFD798"/>
<path d="M53.0376 183.719L-152.921 389.678L-152.511 390.088L53.4477 184.129L53.0376 183.719Z" fill="#FFD798"/>
<path d="M60.311 188.861L-145.648 394.82L-145.238 395.23L60.7212 189.271L60.311 188.861Z" fill="#FFD798"/>
<path d="M67.5767 194.018L-138.382 399.977L-137.972 400.387L67.9868 194.428L67.5767 194.018Z" fill="#FFD798"/>
<path d="M74.8462 199.158L-131.113 405.117L-130.703 405.527L75.2563 199.568L74.8462 199.158Z" fill="#FFD798"/>
<path d="M82.1079 204.311L-123.851 410.27L-123.441 410.68L82.5181 204.721L82.1079 204.311Z" fill="#FFD798"/>
<path d="M89.3735 209.467L-116.585 415.426L-116.175 415.836L89.7837 209.877L89.3735 209.467Z" fill="#FFD798"/>
<path d="M96.6392 214.602L-109.32 420.561L-108.91 420.971L97.0493 215.012L96.6392 214.602Z" fill="#FFD798"/>
<path d="M103.913 219.752L-102.046 425.711L-101.636 426.121L104.323 220.162L103.913 219.752Z" fill="#FFD798"/>
<path d="M111.167 224.9L-94.7925 430.859L-94.3824 431.269L111.577 225.31L111.167 224.9Z" fill="#FFD798"/>
<path d="M118.44 230.051L-87.519 436.01L-87.1089 436.42L118.85 230.461L118.44 230.051Z" fill="#FFD798"/>
<path d="M125.706 235.209L-80.2534 441.168L-79.8433 441.578L126.116 235.619L125.706 235.209Z" fill="#FFD798"/>
<path d="M132.967 240.352L-72.9917 446.311L-72.5816 446.721L133.377 240.762L132.967 240.352Z" fill="#FFD798"/>
<path d="M140.241 245.502L-65.7183 451.461L-65.3081 451.871L140.651 245.912L140.241 245.502Z" fill="#FFD798"/>
<path d="M147.506 250.65L-58.4526 456.609L-58.0425 457.019L147.916 251.061L147.506 250.65Z" fill="#FFD798"/>
<path d="M154.776 255.801L-51.1831 461.76L-50.773 462.17L155.186 256.211L154.776 255.801Z" fill="#FFD798"/>
<path d="M162.034 260.959L-43.9253 466.918L-43.5152 467.328L162.444 261.369L162.034 260.959Z" fill="#FFD798"/>
<path d="M169.299 266.092L-36.6597 472.051L-36.2496 472.461L169.709 266.502L169.299 266.092Z" fill="#FFD798"/>
<path d="M176.569 271.244L-29.3901 477.203L-28.98 477.613L176.979 271.654L176.569 271.244Z" fill="#FFD798"/>
<path d="M183.834 276.393L-22.1245 482.352L-21.7144 482.762L184.245 276.803L183.834 276.393Z" fill="#FFD798"/>
<path d="M191.1 281.535L-14.8589 487.494L-14.4488 487.904L191.51 281.945L191.1 281.535Z" fill="#FFD798"/>
<path d="M198.374 286.686L-7.58545 492.645L-7.17533 493.055L198.784 287.096L198.374 286.686Z" fill="#FFD798"/>
<path d="M205.635 291.826L-0.32373 497.785L0.0863928 498.195L206.045 292.236L205.635 291.826Z" fill="#FFD798"/>
<path d="M212.901 296.986L6.94189 502.945L7.35201 503.355L213.311 297.396L212.901 296.986Z" fill="#FFD798"/>
<path d="M220.17 302.135L14.2114 508.094L14.6215 508.504L220.581 302.545L220.17 302.135Z" fill="#FFD798"/>
<path d="M227.436 307.283L21.4771 513.242L21.8872 513.652L227.846 307.693L227.436 307.283Z" fill="#FFD798"/>
<path d="M234.698 312.436L28.7388 518.395L29.1489 518.805L235.108 312.846L234.698 312.436Z" fill="#FFD798"/>
<path d="M241.971 317.576L36.0122 523.535L36.4223 523.945L242.381 317.986L241.971 317.576Z" fill="#FFD798"/>
<path d="M249.237 322.732L43.2778 528.691L43.6879 529.102L249.647 323.143L249.237 322.732Z" fill="#FFD798"/>
<path d="M256.502 327.877L50.5435 533.836L50.9536 534.246L256.913 328.287L256.502 327.877Z" fill="#FFD798"/>
<path d="M263.756 333.025L57.7974 538.984L58.2075 539.394L264.166 333.435L263.756 333.025Z" fill="#FFD798"/>
<path d="M271.03 338.176L65.0708 544.135L65.4809 544.545L271.44 338.586L271.03 338.176Z" fill="#FFD798"/>
<path d="M278.303 343.318L72.3442 549.277L72.7544 549.687L278.713 343.728L278.303 343.318Z" fill="#FFD798"/>
<path d="M285.569 348.475L79.6099 554.434L80.02 554.844L285.979 348.885L285.569 348.475Z" fill="#FFD798"/>
<path d="M292.831 353.627L86.8716 559.586L87.2817 559.996L293.241 354.037L292.831 353.627Z" fill="#FFD798"/>
<path d="M300.096 358.775L94.1372 564.734L94.5473 565.144L300.506 359.186L300.096 358.775Z" fill="#FFD798"/>
<path d="M307.366 363.926L101.407 569.885L101.817 570.295L307.776 364.336L307.366 363.926Z" fill="#FFD798"/>
<path d="M314.627 369.066L108.668 575.025L109.079 575.436L315.038 369.477L314.627 369.066Z" fill="#FFD798"/>
<path d="M321.893 374.225L115.934 580.184L116.344 580.594L322.303 374.635L321.893 374.225Z" fill="#FFD798"/>
<path d="M329.159 379.369L123.2 585.328L123.61 585.738L329.569 379.779L329.159 379.369Z" fill="#FFD798"/>
</g>
</g>
<g clip-path="url(#clip1_3701_24606)">
<path d="M78.4146 242.441V224.441L94.007 233.441L78.4146 242.441ZM80.7259 228.448V238.435L89.3772 233.441L80.7259 228.448Z" fill="#FFD798"/>
<path d="M103.911 242.441V224.441L119.503 233.441L103.911 242.441ZM106.222 228.448V238.435L114.873 233.441L106.222 228.448Z" fill="#FFD798"/>
<path d="M128.333 242.441V224.441L143.925 233.441L128.333 242.441ZM130.644 228.448V238.435L139.295 233.441L130.644 228.448Z" fill="#FFD798"/>
<path d="M153.829 242.441V224.441L169.421 233.441L153.829 242.441ZM156.14 228.448V238.435L164.791 233.441L156.14 228.448Z" fill="#FFD798"/>
</g>
<g clip-path="url(#clip2_3701_24606)">
<path d="M-53.105 133.918C-53.105 97.5238 -23.4866 67.9297 12.9071 67.9297C49.3009 67.9297 78.895 97.5238 78.895 133.918C78.895 170.311 49.2767 199.905 12.9071 199.905C-23.4625 199.905 -53.0808 170.311 -53.0808 133.918L-53.105 133.918ZM58.0606 133.918C58.0606 109.018 37.8068 88.74 12.8829 88.74C-12.041 88.74 -32.2947 109.018 -32.2947 133.918C-32.2947 158.817 -12.041 179.095 12.8829 179.095C37.8068 179.095 58.0606 158.817 58.0606 133.918Z" fill="#FFD798"/>
</g>
<g clip-path="url(#clip3_3701_24606)">
<path d="M111.367 2.94266C112.499 2.94266 113.417 1.99798 113.417 0.832655C113.417 -0.332666 112.499 -1.27734 111.367 -1.27734C110.235 -1.27734 109.317 -0.332666 109.317 0.832655C109.317 1.99798 110.235 2.94266 111.367 2.94266Z" fill="#FFD798"/>
<path d="M127.738 2.94266C128.87 2.94266 129.788 1.99798 129.788 0.832655C129.788 -0.332666 128.87 -1.27734 127.738 -1.27734C126.606 -1.27734 125.688 -0.332666 125.688 0.832655C125.688 1.99798 126.606 2.94266 127.738 2.94266Z" fill="#FFD798"/>
<path d="M144.097 2.94266C145.23 2.94266 146.147 1.99798 146.147 0.832655C146.147 -0.332666 145.23 -1.27734 144.097 -1.27734C142.965 -1.27734 142.047 -0.332666 142.047 0.832655C142.047 1.99798 142.965 2.94266 144.097 2.94266Z" fill="#FFD798"/>
<path d="M160.457 2.94266C161.589 2.94266 162.507 1.99798 162.507 0.832655C162.507 -0.332666 161.589 -1.27734 160.457 -1.27734C159.325 -1.27734 158.407 -0.332666 158.407 0.832655C158.407 1.99798 159.325 2.94266 160.457 2.94266Z" fill="#FFD798"/>
<path d="M111.367 18.7532C112.499 18.7532 113.417 17.8085 113.417 16.6432C113.417 15.4779 112.499 14.5332 111.367 14.5332C110.235 14.5332 109.317 15.4779 109.317 16.6432C109.317 17.8085 110.235 18.7532 111.367 18.7532Z" fill="#FFD798"/>
<path d="M127.738 18.7532C128.87 18.7532 129.788 17.8085 129.788 16.6432C129.788 15.4779 128.87 14.5332 127.738 14.5332C126.606 14.5332 125.688 15.4779 125.688 16.6432C125.688 17.8085 126.606 18.7532 127.738 18.7532Z" fill="#FFD798"/>
<path d="M144.097 18.7532C145.23 18.7532 146.147 17.8085 146.147 16.6432C146.147 15.4779 145.23 14.5332 144.097 14.5332C142.965 14.5332 142.047 15.4779 142.047 16.6432C142.047 17.8085 142.965 18.7532 144.097 18.7532Z" fill="#FFD798"/>
<path d="M160.457 18.7532C161.589 18.7532 162.507 17.8085 162.507 16.6432C162.507 15.4779 161.589 14.5332 160.457 14.5332C159.325 14.5332 158.407 15.4779 158.407 16.6432C158.407 17.8085 159.325 18.7532 160.457 18.7532Z" fill="#FFD798"/>
<path d="M111.367 34.554C112.499 34.554 113.417 33.6093 113.417 32.444C113.417 31.2787 112.499 30.334 111.367 30.334C110.235 30.334 109.317 31.2787 109.317 32.444C109.317 33.6093 110.235 34.554 111.367 34.554Z" fill="#FFD798"/>
<path d="M127.738 34.554C128.87 34.554 129.788 33.6093 129.788 32.444C129.788 31.2787 128.87 30.334 127.738 30.334C126.606 30.334 125.688 31.2787 125.688 32.444C125.688 33.6093 126.606 34.554 127.738 34.554Z" fill="#FFD798"/>
<path d="M144.097 34.554C145.23 34.554 146.147 33.6093 146.147 32.444C146.147 31.2787 145.23 30.334 144.097 30.334C142.965 30.334 142.047 31.2787 142.047 32.444C142.047 33.6093 142.965 34.554 144.097 34.554Z" fill="#FFD798"/>
<path d="M160.457 34.554C161.589 34.554 162.507 33.6093 162.507 32.444C162.507 31.2787 161.589 30.334 160.457 30.334C159.325 30.334 158.407 31.2787 158.407 32.444C158.407 33.6093 159.325 34.554 160.457 34.554Z" fill="#FFD798"/>
<path d="M111.367 50.3626C112.499 50.3626 113.417 49.4179 113.417 48.2526C113.417 47.0873 112.499 46.1426 111.367 46.1426C110.235 46.1426 109.317 47.0873 109.317 48.2526C109.317 49.4179 110.235 50.3626 111.367 50.3626Z" fill="#FFD798"/>
<path d="M127.738 50.3626C128.87 50.3626 129.788 49.4179 129.788 48.2526C129.788 47.0873 128.87 46.1426 127.738 46.1426C126.606 46.1426 125.688 47.0873 125.688 48.2526C125.688 49.4179 126.606 50.3626 127.738 50.3626Z" fill="#FFD798"/>
<path d="M144.097 50.3626C145.23 50.3626 146.147 49.4179 146.147 48.2526C146.147 47.0873 145.23 46.1426 144.097 46.1426C142.965 46.1426 142.047 47.0873 142.047 48.2526C142.047 49.4179 142.965 50.3626 144.097 50.3626Z" fill="#FFD798"/>
<path d="M160.457 50.3626C161.589 50.3626 162.507 49.4179 162.507 48.2526C162.507 47.0873 161.589 46.1426 160.457 46.1426C159.325 46.1426 158.407 47.0873 158.407 48.2526C158.407 49.4179 159.325 50.3626 160.457 50.3626Z" fill="#FFD798"/>
<path d="M111.367 66.1731C112.499 66.1731 113.417 65.2284 113.417 64.0631C113.417 62.8978 112.499 61.9531 111.367 61.9531C110.235 61.9531 109.317 62.8978 109.317 64.0631C109.317 65.2284 110.235 66.1731 111.367 66.1731Z" fill="#FFD798"/>
<path d="M127.738 66.1731C128.87 66.1731 129.788 65.2284 129.788 64.0631C129.788 62.8978 128.87 61.9531 127.738 61.9531C126.606 61.9531 125.688 62.8978 125.688 64.0631C125.688 65.2284 126.606 66.1731 127.738 66.1731Z" fill="#FFD798"/>
<path d="M144.097 66.1731C145.23 66.1731 146.147 65.2284 146.147 64.0631C146.147 62.8978 145.23 61.9531 144.097 61.9531C142.965 61.9531 142.047 62.8978 142.047 64.0631C142.047 65.2284 142.965 66.1731 144.097 66.1731Z" fill="#FFD798"/>
<path d="M160.457 66.1731C161.589 66.1731 162.507 65.2284 162.507 64.0631C162.507 62.8978 161.589 61.9531 160.457 61.9531C159.325 61.9531 158.407 62.8978 158.407 64.0631C158.407 65.2284 159.325 66.1731 160.457 66.1731Z" fill="#FFD798"/>
<path d="M111.367 81.9837C112.499 81.9837 113.417 81.039 113.417 79.8737C113.417 78.7083 112.499 77.7637 111.367 77.7637C110.235 77.7637 109.317 78.7083 109.317 79.8737C109.317 81.039 110.235 81.9837 111.367 81.9837Z" fill="#FFD798"/>
<path d="M127.738 81.9837C128.87 81.9837 129.788 81.039 129.788 79.8737C129.788 78.7083 128.87 77.7637 127.738 77.7637C126.606 77.7637 125.688 78.7083 125.688 79.8737C125.688 81.039 126.606 81.9837 127.738 81.9837Z" fill="#FFD798"/>
<path d="M144.097 81.9837C145.23 81.9837 146.147 81.039 146.147 79.8737C146.147 78.7083 145.23 77.7637 144.097 77.7637C142.965 77.7637 142.047 78.7083 142.047 79.8737C142.047 81.039 142.965 81.9837 144.097 81.9837Z" fill="#FFD798"/>
<path d="M160.457 81.9837C161.589 81.9837 162.507 81.039 162.507 79.8737C162.507 78.7083 161.589 77.7637 160.457 77.7637C159.325 77.7637 158.407 78.7083 158.407 79.8737C158.407 81.039 159.325 81.9837 160.457 81.9837Z" fill="#FFD798"/>
<path d="M47.7458 2.94266C48.878 2.94266 49.7958 1.99798 49.7958 0.832655C49.7958 -0.332666 48.878 -1.27734 47.7458 -1.27734C46.6136 -1.27734 45.6958 -0.332666 45.6958 0.832655C45.6958 1.99798 46.6136 2.94266 47.7458 2.94266Z" fill="#FFD798"/>
<path d="M64.1052 2.94266C65.2374 2.94266 66.1552 1.99798 66.1552 0.832655C66.1552 -0.332666 65.2374 -1.27734 64.1052 -1.27734C62.973 -1.27734 62.0552 -0.332666 62.0552 0.832655C62.0552 1.99798 62.973 2.94266 64.1052 2.94266Z" fill="#FFD798"/>
<path d="M80.4646 2.94266C81.5967 2.94266 82.5145 1.99798 82.5145 0.832655C82.5145 -0.332666 81.5967 -1.27734 80.4646 -1.27734C79.3324 -1.27734 78.4146 -0.332666 78.4146 0.832655C78.4146 1.99798 79.3324 2.94266 80.4646 2.94266Z" fill="#FFD798"/>
<path d="M96.8359 2.94266C97.9681 2.94266 98.8859 1.99798 98.8859 0.832655C98.8859 -0.332666 97.9681 -1.27734 96.8359 -1.27734C95.7037 -1.27734 94.7859 -0.332666 94.7859 0.832655C94.7859 1.99798 95.7037 2.94266 96.8359 2.94266Z" fill="#FFD798"/>
<path d="M47.7458 18.7532C48.878 18.7532 49.7958 17.8085 49.7958 16.6432C49.7958 15.4779 48.878 14.5332 47.7458 14.5332C46.6136 14.5332 45.6958 15.4779 45.6958 16.6432C45.6958 17.8085 46.6136 18.7532 47.7458 18.7532Z" fill="#FFD798"/>
<path d="M64.1052 18.7532C65.2374 18.7532 66.1552 17.8085 66.1552 16.6432C66.1552 15.4779 65.2374 14.5332 64.1052 14.5332C62.973 14.5332 62.0552 15.4779 62.0552 16.6432C62.0552 17.8085 62.973 18.7532 64.1052 18.7532Z" fill="#FFD798"/>
<path d="M80.4646 18.7532C81.5967 18.7532 82.5145 17.8085 82.5145 16.6432C82.5145 15.4779 81.5967 14.5332 80.4646 14.5332C79.3324 14.5332 78.4146 15.4779 78.4146 16.6432C78.4146 17.8085 79.3324 18.7532 80.4646 18.7532Z" fill="#FFD798"/>
<path d="M96.8359 18.7532C97.9681 18.7532 98.8859 17.8085 98.8859 16.6432C98.8859 15.4779 97.9681 14.5332 96.8359 14.5332C95.7037 14.5332 94.7859 15.4779 94.7859 16.6432C94.7859 17.8085 95.7037 18.7532 96.8359 18.7532Z" fill="#FFD798"/>
<path d="M47.7458 34.554C48.878 34.554 49.7958 33.6093 49.7958 32.444C49.7958 31.2787 48.878 30.334 47.7458 30.334C46.6136 30.334 45.6958 31.2787 45.6958 32.444C45.6958 33.6093 46.6136 34.554 47.7458 34.554Z" fill="#FFD798"/>
<path d="M64.1052 34.554C65.2374 34.554 66.1552 33.6093 66.1552 32.444C66.1552 31.2787 65.2374 30.334 64.1052 30.334C62.973 30.334 62.0552 31.2787 62.0552 32.444C62.0552 33.6093 62.973 34.554 64.1052 34.554Z" fill="#FFD798"/>
<path d="M80.4646 34.554C81.5967 34.554 82.5145 33.6093 82.5145 32.444C82.5145 31.2787 81.5967 30.334 80.4646 30.334C79.3324 30.334 78.4146 31.2787 78.4146 32.444C78.4146 33.6093 79.3324 34.554 80.4646 34.554Z" fill="#FFD798"/>
<path d="M96.8359 34.554C97.9681 34.554 98.8859 33.6093 98.8859 32.444C98.8859 31.2787 97.9681 30.334 96.8359 30.334C95.7037 30.334 94.7859 31.2787 94.7859 32.444C94.7859 33.6093 95.7037 34.554 96.8359 34.554Z" fill="#FFD798"/>
<path d="M47.7458 50.3626C48.878 50.3626 49.7958 49.4179 49.7958 48.2526C49.7958 47.0873 48.878 46.1426 47.7458 46.1426C46.6136 46.1426 45.6958 47.0873 45.6958 48.2526C45.6958 49.4179 46.6136 50.3626 47.7458 50.3626Z" fill="#FFD798"/>
<path d="M64.1052 50.3626C65.2374 50.3626 66.1552 49.4179 66.1552 48.2526C66.1552 47.0873 65.2374 46.1426 64.1052 46.1426C62.973 46.1426 62.0552 47.0873 62.0552 48.2526C62.0552 49.4179 62.973 50.3626 64.1052 50.3626Z" fill="#FFD798"/>
<path d="M80.4646 50.3626C81.5967 50.3626 82.5145 49.4179 82.5145 48.2526C82.5145 47.0873 81.5967 46.1426 80.4646 46.1426C79.3324 46.1426 78.4146 47.0873 78.4146 48.2526C78.4146 49.4179 79.3324 50.3626 80.4646 50.3626Z" fill="#FFD798"/>
<path d="M96.8359 50.3626C97.9681 50.3626 98.8859 49.4179 98.8859 48.2526C98.8859 47.0873 97.9681 46.1426 96.8359 46.1426C95.7037 46.1426 94.7859 47.0873 94.7859 48.2526C94.7859 49.4179 95.7037 50.3626 96.8359 50.3626Z" fill="#FFD798"/>
<path d="M47.7458 66.1731C48.878 66.1731 49.7958 65.2284 49.7958 64.0631C49.7958 62.8978 48.878 61.9531 47.7458 61.9531C46.6136 61.9531 45.6958 62.8978 45.6958 64.0631C45.6958 65.2284 46.6136 66.1731 47.7458 66.1731Z" fill="#FFD798"/>
<path d="M64.1052 66.1731C65.2374 66.1731 66.1552 65.2284 66.1552 64.0631C66.1552 62.8978 65.2374 61.9531 64.1052 61.9531C62.973 61.9531 62.0552 62.8978 62.0552 64.0631C62.0552 65.2284 62.973 66.1731 64.1052 66.1731Z" fill="#FFD798"/>
<path d="M80.4646 66.1731C81.5967 66.1731 82.5145 65.2284 82.5145 64.0631C82.5145 62.8978 81.5967 61.9531 80.4646 61.9531C79.3324 61.9531 78.4146 62.8978 78.4146 64.0631C78.4146 65.2284 79.3324 66.1731 80.4646 66.1731Z" fill="#FFD798"/>
<path d="M96.8359 66.1731C97.9681 66.1731 98.8859 65.2284 98.8859 64.0631C98.8859 62.8978 97.9681 61.9531 96.8359 61.9531C95.7037 61.9531 94.7859 62.8978 94.7859 64.0631C94.7859 65.2284 95.7037 66.1731 96.8359 66.1731Z" fill="#FFD798"/>
<path d="M47.7458 81.9837C48.878 81.9837 49.7958 81.039 49.7958 79.8737C49.7958 78.7083 48.878 77.7637 47.7458 77.7637C46.6136 77.7637 45.6958 78.7083 45.6958 79.8737C45.6958 81.039 46.6136 81.9837 47.7458 81.9837Z" fill="#FFD798"/>
<path d="M64.1052 81.9837C65.2374 81.9837 66.1552 81.039 66.1552 79.8737C66.1552 78.7083 65.2374 77.7637 64.1052 77.7637C62.973 77.7637 62.0552 78.7083 62.0552 79.8737C62.0552 81.039 62.973 81.9837 64.1052 81.9837Z" fill="#FFD798"/>
<path d="M80.4646 81.9837C81.5967 81.9837 82.5145 81.039 82.5145 79.8737C82.5145 78.7083 81.5967 77.7637 80.4646 77.7637C79.3324 77.7637 78.4146 78.7083 78.4146 79.8737C78.4146 81.039 79.3324 81.9837 80.4646 81.9837Z" fill="#FFD798"/>
<path d="M96.8359 81.9837C97.9681 81.9837 98.8859 81.039 98.8859 79.8737C98.8859 78.7083 97.9681 77.7637 96.8359 77.7637C95.7037 77.7637 94.7859 78.7083 94.7859 79.8737C94.7859 81.039 95.7037 81.9837 96.8359 81.9837Z" fill="#FFD798"/>
</g>
<defs>
<clipPath id="clip0_3701_24606">
<rect width="167" height="138" fill="white" transform="translate(0.109863 253.492)"/>
</clipPath>
<clipPath id="clip1_3701_24606">
<rect width="91" height="18" fill="white" transform="translate(78.4146 224.441)"/>
</clipPath>
<clipPath id="clip2_3701_24606">
<rect width="132" height="66" fill="white" transform="translate(78.4146 67.8594) rotate(90)"/>
</clipPath>
<clipPath id="clip3_3701_24606">
<rect width="117" height="82" fill="white" transform="translate(45.895 0.103516)"/>
</clipPath>
</defs>
</svg>