<svg width="360" height="225" viewBox="0 0 360 225" fill="none" xmlns="http://www.w3.org/2000/svg">
<path d="M-0.996094 0H361.379V224.635H-0.996094V0Z" fill="#FCB547"/>
<g clip-path="url(#clip0_4708_29622)">
<mask id="mask0_4708_29622" style="mask-type:luminance" maskUnits="userSpaceOnUse" x="278" y="98" width="232" height="233">
<path d="M509.875 214.447C509.875 150.609 458.124 98.8571 394.285 98.8571C330.447 98.8571 278.695 150.609 278.695 214.447C278.695 278.286 330.447 330.037 394.285 330.037C458.124 330.037 509.875 278.286 509.875 214.447Z" fill="white"/>
</mask>
<g mask="url(#mask0_4708_29622)">
<path d="M188.117 218.09L394.076 424.049L394.486 423.639L188.527 217.68L188.117 218.09Z" fill="#FFD798"/>
<path d="M193.268 210.816L399.227 416.775L399.637 416.365L193.678 210.406L193.268 210.816Z" fill="#FFD798"/>
<path d="M198.426 203.562L404.385 409.521L404.795 409.111L198.836 203.152L198.426 203.562Z" fill="#FFD798"/>
<path d="M203.568 196.289L409.527 402.248L409.937 401.838L203.978 195.879L203.568 196.289Z" fill="#FFD798"/>
<path d="M208.725 189.023L414.684 394.982L415.094 394.572L209.135 188.613L208.725 189.023Z" fill="#FFD798"/>
<path d="M213.865 181.754L419.824 387.713L420.234 387.303L214.275 181.344L213.865 181.754Z" fill="#FFD798"/>
<path d="M219.018 174.492L424.977 380.451L425.387 380.041L219.428 174.082L219.018 174.492Z" fill="#FFD798"/>
<path d="M224.174 167.227L430.133 373.186L430.543 372.775L224.584 166.816L224.174 167.227Z" fill="#FFD798"/>
<path d="M229.309 159.961L435.268 365.92L435.678 365.51L229.719 159.551L229.309 159.961Z" fill="#FFD798"/>
<path d="M234.459 152.688L440.418 358.646L440.828 358.236L234.869 152.277L234.459 152.688Z" fill="#FFD798"/>
<path d="M239.607 145.434L445.566 351.393L445.977 350.982L240.018 145.023L239.607 145.434Z" fill="#FFD798"/>
<path d="M244.758 138.16L450.717 344.119L451.127 343.709L245.168 137.75L244.758 138.16Z" fill="#FFD798"/>
<path d="M249.916 130.895L455.875 336.854L456.285 336.443L250.326 130.484L249.916 130.895Z" fill="#FFD798"/>
<path d="M255.059 123.633L461.018 329.592L461.428 329.182L255.469 123.223L255.059 123.633Z" fill="#FFD798"/>
<path d="M260.209 116.359L466.168 322.318L466.578 321.908L260.619 115.949L260.209 116.359Z" fill="#FFD798"/>
<path d="M265.357 109.094L471.316 315.053L471.727 314.643L265.768 108.684L265.357 109.094Z" fill="#FFD798"/>
<path d="M270.508 101.824L476.467 307.783L476.877 307.373L270.918 101.414L270.508 101.824Z" fill="#FFD798"/>
<path d="M275.666 94.5664L481.625 300.525L482.035 300.115L276.076 94.1563L275.666 94.5664Z" fill="#FFD798"/>
<path d="M280.799 87.3008L486.758 293.26L487.168 292.85L281.209 86.8907L280.799 87.3008Z" fill="#FFD798"/>
<path d="M285.951 80.0312L491.91 285.99L492.32 285.58L286.361 79.6211L285.951 80.0312Z" fill="#FFD798"/>
<path d="M291.1 72.7656L497.059 278.725L497.469 278.314L291.51 72.3555L291.1 72.7656Z" fill="#FFD798"/>
<path d="M296.242 65.5L502.201 271.459L502.611 271.049L296.652 65.0899L296.242 65.5Z" fill="#FFD798"/>
<path d="M301.393 58.2266L507.352 264.186L507.762 263.775L301.803 57.8165L301.393 58.2266Z" fill="#FFD798"/>
<path d="M306.533 50.9648L512.492 256.924L512.902 256.514L306.943 50.5547L306.533 50.9648Z" fill="#FFD798"/>
<path d="M311.693 43.6992L517.652 249.658L518.062 249.248L312.103 43.2891L311.693 43.6992Z" fill="#FFD798"/>
<path d="M316.842 36.4297L522.801 242.389L523.211 241.979L317.252 36.0196L316.842 36.4297Z" fill="#FFD798"/>
<path d="M321.99 29.1641L527.949 235.123L528.359 234.713L322.4 28.754L321.99 29.1641Z" fill="#FFD798"/>
<path d="M327.143 21.9023L533.102 227.861L533.512 227.451L327.553 21.4922L327.143 21.9023Z" fill="#FFD798"/>
<path d="M332.283 14.6289L538.242 220.588L538.652 220.178L332.693 14.2188L332.283 14.6289Z" fill="#FFD798"/>
<path d="M337.439 7.36328L543.398 213.322L543.809 212.912L337.85 6.95317L337.439 7.36328Z" fill="#FFD798"/>
<path d="M342.584 0.0976555L548.543 206.057L548.953 205.647L342.994 -0.312457L342.584 0.0976555Z" fill="#FFD798"/>
<path d="M347.732 -7.15625L553.691 198.803L554.102 198.393L348.142 -7.56636L347.732 -7.15625Z" fill="#FFD798"/>
<path d="M352.883 -14.4297L558.842 191.529L559.252 191.119L353.293 -14.8398L352.883 -14.4297Z" fill="#FFD798"/>
<path d="M358.025 -21.7031L563.984 184.256L564.395 183.846L358.436 -22.1132L358.025 -21.7031Z" fill="#FFD798"/>
</g>
</g>
<g clip-path="url(#clip1_4708_29622)">
<path d="M14.623 201.852V188.852L25.2465 195.352L14.623 201.852ZM16.1978 191.745V198.958L22.0921 195.352L16.1978 191.745Z" fill="#FFD798"/>
<path d="M31.9941 201.852V188.852L42.6176 195.352L31.9941 201.852ZM33.5689 191.745V198.958L39.4632 195.352L33.5689 191.745Z" fill="#FFD798"/>
<path d="M48.6328 201.852V188.852L59.2562 195.352L48.6328 201.852ZM50.2076 191.745V198.958L56.1019 195.352L50.2076 191.745Z" fill="#FFD798"/>
<path d="M66.0039 201.852V188.852L76.6273 195.352L66.0039 201.852ZM67.5787 191.745V198.958L73.473 195.352L67.5787 191.745Z" fill="#FFD798"/>
</g>
<g clip-path="url(#clip2_4708_29622)">
<path d="M-59.0059 115.231C-59.0059 87.1084 -36.119 64.2402 -7.99651 64.2402C20.1259 64.2402 42.9941 87.1084 42.9941 115.231C42.9941 143.353 20.1072 166.222 -7.99651 166.222C-36.1003 166.222 -58.9872 143.353 -58.9872 115.231L-59.0059 115.231ZM26.8948 115.231C26.8948 95.9902 11.2442 80.3209 -8.01521 80.3209C-27.2746 80.3209 -42.9252 95.9902 -42.9252 115.231C-42.9252 134.472 -27.2746 150.141 -8.01521 150.141C11.2442 150.141 26.8948 134.472 26.8948 115.231Z" fill="#FFD798"/>
</g>
<g clip-path="url(#clip3_4708_29622)">
<path d="M38.3442 12.9168C39.2731 12.9168 40.0262 12.1449 40.0262 11.1928C40.0262 10.2406 39.2731 9.46875 38.3442 9.46875C37.4152 9.46875 36.6621 10.2406 36.6621 11.1928C36.6621 12.1449 37.4152 12.9168 38.3442 12.9168Z" fill="#FFD798"/>
<path d="M51.7778 12.9168C52.7067 12.9168 53.4598 12.1449 53.4598 11.1928C53.4598 10.2406 52.7067 9.46875 51.7778 9.46875C50.8488 9.46875 50.0957 10.2406 50.0957 11.1928C50.0957 12.1449 50.8488 12.9168 51.7778 12.9168Z" fill="#FFD798"/>
<path d="M65.1996 12.9168C66.1286 12.9168 66.8817 12.1449 66.8817 11.1928C66.8817 10.2406 66.1286 9.46875 65.1996 9.46875C64.2707 9.46875 63.5176 10.2406 63.5176 11.1928C63.5176 12.1449 64.2707 12.9168 65.1996 12.9168Z" fill="#FFD798"/>
<path d="M78.6235 12.9168C79.5524 12.9168 80.3055 12.1449 80.3055 11.1928C80.3055 10.2406 79.5524 9.46875 78.6235 9.46875C77.6945 9.46875 76.9414 10.2406 76.9414 11.1928C76.9414 12.1449 77.6945 12.9168 78.6235 12.9168Z" fill="#FFD798"/>
<path d="M38.3442 25.8367C39.2731 25.8367 40.0262 25.0648 40.0262 24.1127C40.0262 23.1605 39.2731 22.3887 38.3442 22.3887C37.4152 22.3887 36.6621 23.1605 36.6621 24.1127C36.6621 25.0648 37.4152 25.8367 38.3442 25.8367Z" fill="#FFD798"/>
<path d="M51.7778 25.8367C52.7067 25.8367 53.4598 25.0648 53.4598 24.1127C53.4598 23.1605 52.7067 22.3887 51.7778 22.3887C50.8488 22.3887 50.0957 23.1605 50.0957 24.1127C50.0957 25.0648 50.8488 25.8367 51.7778 25.8367Z" fill="#FFD798"/>
<path d="M65.1996 25.8367C66.1286 25.8367 66.8817 25.0648 66.8817 24.1127C66.8817 23.1605 66.1286 22.3887 65.1996 22.3887C64.2707 22.3887 63.5176 23.1605 63.5176 24.1127C63.5176 25.0648 64.2707 25.8367 65.1996 25.8367Z" fill="#FFD798"/>
<path d="M78.6235 25.8367C79.5524 25.8367 80.3055 25.0648 80.3055 24.1127C80.3055 23.1605 79.5524 22.3887 78.6235 22.3887C77.6945 22.3887 76.9414 23.1605 76.9414 24.1127C76.9414 25.0648 77.6945 25.8367 78.6235 25.8367Z" fill="#FFD798"/>
<path d="M38.3442 38.7547C39.2731 38.7547 40.0262 37.9828 40.0262 37.0307C40.0262 36.0785 39.2731 35.3066 38.3442 35.3066C37.4152 35.3066 36.6621 36.0785 36.6621 37.0307C36.6621 37.9828 37.4152 38.7547 38.3442 38.7547Z" fill="#FFD798"/>
<path d="M51.7778 38.7547C52.7067 38.7547 53.4598 37.9828 53.4598 37.0307C53.4598 36.0785 52.7067 35.3066 51.7778 35.3066C50.8488 35.3066 50.0957 36.0785 50.0957 37.0307C50.0957 37.9828 50.8488 38.7547 51.7778 38.7547Z" fill="#FFD798"/>
<path d="M65.1996 38.7547C66.1286 38.7547 66.8817 37.9828 66.8817 37.0307C66.8817 36.0785 66.1286 35.3066 65.1996 35.3066C64.2707 35.3066 63.5176 36.0785 63.5176 37.0307C63.5176 37.9828 64.2707 38.7547 65.1996 38.7547Z" fill="#FFD798"/>
<path d="M78.6235 38.7547C79.5524 38.7547 80.3055 37.9828 80.3055 37.0307C80.3055 36.0785 79.5524 35.3066 78.6235 35.3066C77.6945 35.3066 76.9414 36.0785 76.9414 37.0307C76.9414 37.9828 77.6945 38.7547 78.6235 38.7547Z" fill="#FFD798"/>
<path d="M-0.435137 12.9168C0.493834 12.9168 1.24691 12.1449 1.24691 11.1928C1.24691 10.2406 0.493834 9.46875 -0.435137 9.46875C-1.36411 9.46875 -2.11719 10.2406 -2.11719 11.1928C-2.11719 12.1449 -1.36411 12.9168 -0.435137 12.9168Z" fill="#FFD798"/>
<path d="M12.9867 12.9168C13.9157 12.9168 14.6688 12.1449 14.6688 11.1928C14.6688 10.2406 13.9157 9.46875 12.9867 9.46875C12.0578 9.46875 11.3047 10.2406 11.3047 11.1928C11.3047 12.1449 12.0578 12.9168 12.9867 12.9168Z" fill="#FFD798"/>
<path d="M26.4203 12.9168C27.3493 12.9168 28.1024 12.1449 28.1024 11.1928C28.1024 10.2406 27.3493 9.46875 26.4203 9.46875C25.4914 9.46875 24.7383 10.2406 24.7383 11.1928C24.7383 12.1449 25.4914 12.9168 26.4203 12.9168Z" fill="#FFD798"/>
<path d="M-0.435137 25.8367C0.493834 25.8367 1.24691 25.0648 1.24691 24.1127C1.24691 23.1605 0.493834 22.3887 -0.435137 22.3887C-1.36411 22.3887 -2.11719 23.1605 -2.11719 24.1127C-2.11719 25.0648 -1.36411 25.8367 -0.435137 25.8367Z" fill="#FFD798"/>
<path d="M12.9867 25.8367C13.9157 25.8367 14.6688 25.0648 14.6688 24.1127C14.6688 23.1605 13.9157 22.3887 12.9867 22.3887C12.0578 22.3887 11.3047 23.1605 11.3047 24.1127C11.3047 25.0648 12.0578 25.8367 12.9867 25.8367Z" fill="#FFD798"/>
<path d="M26.4203 25.8367C27.3493 25.8367 28.1024 25.0648 28.1024 24.1127C28.1024 23.1605 27.3493 22.3887 26.4203 22.3887C25.4914 22.3887 24.7383 23.1605 24.7383 24.1127C24.7383 25.0648 25.4914 25.8367 26.4203 25.8367Z" fill="#FFD798"/>
<path d="M-0.435137 38.7547C0.493834 38.7547 1.24691 37.9828 1.24691 37.0307C1.24691 36.0785 0.493834 35.3066 -0.435137 35.3066C-1.36411 35.3066 -2.11719 36.0785 -2.11719 37.0307C-2.11719 37.9828 -1.36411 38.7547 -0.435137 38.7547Z" fill="#FFD798"/>
<path d="M12.9867 38.7547C13.9157 38.7547 14.6688 37.9828 14.6688 37.0307C14.6688 36.0785 13.9157 35.3066 12.9867 35.3066C12.0578 35.3066 11.3047 36.0785 11.3047 37.0307C11.3047 37.9828 12.0578 38.7547 12.9867 38.7547Z" fill="#FFD798"/>
<path d="M26.4203 38.7547C27.3493 38.7547 28.1024 37.9828 28.1024 37.0307C28.1024 36.0785 27.3493 35.3066 26.4203 35.3066C25.4914 35.3066 24.7383 36.0785 24.7383 37.0307C24.7383 37.9828 25.4914 38.7547 26.4203 38.7547Z" fill="#FFD798"/>
</g>
<defs>
<clipPath id="clip0_4708_29622">
<rect width="135" height="138" fill="white" transform="translate(268.623 224.852) rotate(-90)"/>
</clipPath>
<clipPath id="clip1_4708_29622">
<rect width="62" height="13" fill="white" transform="translate(14.623 188.852)"/>
</clipPath>
<clipPath id="clip2_4708_29622">
<rect width="102" height="51" fill="white" transform="translate(42.623 64.1855) rotate(90)"/>
</clipPath>
<clipPath id="clip3_4708_29622">
<rect width="96" height="39" fill="white" transform="translate(-15.377 0.335938)"/>
</clipPath>
</defs>
</svg>